<svg xmlns="http://www.w3.org/2000/svg" version="1.1" xmlns:xlink="http://www.w3.org/1999/xlink"
    width="512" height="512" x="0" y="0" viewBox="0 0 512 512"
    style="enable-background:new 0 0 512 512" xml:space="preserve" class="hovered-paths"><g><path fill="#555a6e" d="M468 40a13.658 13.658 0 0 0-9.657-4h-47.029a8 8 0 0 0-5.657 13.656l15.03 15.03L352 133.373l-52.687-52.686c-6.248-6.249-16.379-6.249-22.627 0l-112 112c-6.249 6.248-6.249 16.379 0 22.627C167.811 218.438 171.905 220 176 220s8.189-1.562 11.313-4.687L288 114.627l52.687 52.686c6.248 6.249 16.379 6.249 22.627 0l80-80 15.03 15.03a8 8 0 0 0 13.657-5.657v-47.03A13.662 13.662 0 0 0 468 40z" opacity="1" data-original="#555a6e"></path><path fill="#3cb44b" d="M168 260h-32c-53.019 0-96-42.981-96-96s42.981-96 96-96h32c53.019 0 96 42.981 96 96s-42.981 96-96 96z" opacity="1" data-original="#3cb44b" class="hovered-path"></path><circle cx="136" cy="164" r="96" fill="#d7e123" opacity="1" data-original="#d7e123"></circle><path fill="#3cb44b" d="M168 148a8 8 0 0 0 8-8v-1.538C176 121.665 162.335 108 145.538 108H144V92a8 8 0 0 0-16 0v16h-1.538C109.665 108 96 121.665 96 138.462a30.418 30.418 0 0 0 23.074 29.553l29.972 7.493A14.44 14.44 0 0 1 160 189.538c0 7.974-6.488 14.462-14.462 14.462h-19.076c-7.974 0-14.462-6.488-14.462-14.462V188a8 8 0 0 0-16 0v1.538C96 206.335 109.665 220 126.462 220H128v16a8 8 0 0 0 16 0v-16h1.538C162.335 220 176 206.335 176 189.538a30.418 30.418 0 0 0-23.074-29.553l-29.972-7.493A14.44 14.44 0 0 1 112 138.462c0-7.974 6.488-14.462 14.462-14.462h19.076c7.974 0 14.462 6.488 14.462 14.462V140a8 8 0 0 0 8 8zM104 308h128c8.837 0 16 7.163 16 16v136c0 8.837-7.163 16-16 16H104c-8.837 0-16-7.163-16-16V324c0-8.837 7.163-16 16-16z" opacity="1" data-original="#3cb44b" class="hovered-path"></path><path fill="#d7e123" d="M104 308h48c8.837 0 16 7.163 16 16v136c0 8.837-7.163 16-16 16h-48c-8.837 0-16-7.163-16-16V324c0-8.837 7.163-16 16-16z" opacity="1" data-original="#d7e123"></path><path fill="#2387c3" d="M216 244h128c8.837 0 16 7.163 16 16v200c0 8.837-7.163 16-16 16H216c-8.837 0-16-7.163-16-16V260c0-8.837 7.163-16 16-16z" opacity="1" data-original="#2387c3"></path><path fill="#5ad7ff" d="M216 244h48c8.837 0 16 7.163 16 16v200c0 8.837-7.163 16-16 16h-48c-8.837 0-16-7.163-16-16V260c0-8.837 7.163-16 16-16z" opacity="1" data-original="#5ad7ff"></path><path fill="#3cb44b" d="M328 180h128c8.837 0 16 7.163 16 16v264c0 8.837-7.163 16-16 16H328c-8.837 0-16-7.163-16-16V196c0-8.837 7.163-16 16-16z" opacity="1" data-original="#3cb44b" class="hovered-path"></path><path fill="#d7e123" d="M328 180h48c8.837 0 16 7.163 16 16v264c0 8.837-7.163 16-16 16h-48c-8.837 0-16-7.163-16-16V196c0-8.837 7.163-16 16-16z" opacity="1" data-original="#d7e123"></path></g></svg>