<svg xmlns="http://www.w3.org/2000/svg" version="1.1" xmlns:xlink="http://www.w3.org/1999/xlink" width="512" height="512" x="0" y="0" viewBox="0 0 128 128" style="enable-background:new 0 0 512 512" xml:space="preserve"><g><path fill="#ffdb80" d="M70.167 55.583h7.354v7.354h-7.354zM9.656 76l4.032-3.328.374-3.109-3.406.468-4.812 4.282z" opacity="1" data-original="#ffdb80"></path><path fill="#e1ebf4" d="M37.375 76 40 86.625V111h8.625l1.077-37.718z" opacity="1" data-original="#e1ebf4"></path><path fill="#2d4356" d="M4.345 76h5.311l-1.764-2.022 4.115-3.232 1.681 1.926 2.656-3.041-2.573-2.947a1.999 1.999 0 0 0-2.742-.256l-7.265 5.707a2.02 2.02 0 0 0-.272 2.888z" opacity="1" data-original="#2d4356"></path><path fill="#fc785e" d="M61.375 54.563 49 49.25s4.375-8.875-1.375-14a8.12 8.12 0 0 0-2.383-1.46 12.944 12.944 0 0 1-13.254.725c-1.227.407-1.988.735-1.988.735l-3.063 2.938-.687 32.437 1.5 3.313 21.937.562.188-15.688s8.062 1.376 10.437 1.126 1.063-5.376 1.063-5.376z" opacity="1" data-original="#fc785e"></path><path fill="#2d4356" d="M38 14a9 9 0 1 0 9 9 9.014 9.014 0 0 0-9-9zm0 14a5 5 0 1 1 5-5 5.002 5.002 0 0 1-5 5z" opacity="1" data-original="#2d4356"></path><circle cx="38" cy="23" r="5" fill="#e1ebf4" opacity="1" data-original="#e1ebf4"></circle><path fill="#ffdb80" d="m23.35 85.59-.14.41-6.59 18.8a9.803 9.803 0 0 0-.37 1.2 9.153 9.153 0 0 0-.02 4H3.26l-1.38-2.38C5 95 1.88 82 1.88 82l20.49-.46.6 2.46z" opacity="1" data-original="#ffdb80"></path><path fill="#2d4356" d="M60.14 51.85 52 48.42v-6.15a11.45 11.45 0 0 0-5.23-9.71 12.88 12.88 0 0 1-4.13 2.57A7.125 7.125 0 0 1 48 42.27v4.46l-13.22-5.57a1.998 1.998 0 0 0-1.56 3.68l25.39 10.7a2.048 2.048 0 0 1 1.3 2.43 1.813 1.813 0 0 1-2.36.9L37.9 51.4a2 2 0 0 0-1.42 3.74L48 59.52v12.37A1.063 1.063 0 0 1 47 73H29a1.063 1.063 0 0 1-1-1.11V42.27a7.115 7.115 0 0 1 5.36-7.14 12.88 12.88 0 0 1-4.13-2.57A11.428 11.428 0 0 0 24 42.27v29.62a5.18 5.18 0 0 0 .86 2.86l2.65 11.05-7.14 20.4a4.89 4.89 0 0 0 2.42 6.31l2.48 1.1a4.789 4.789 0 0 0 6.24-2.58l9.91-22.15a7.616 7.616 0 0 0 .53-3.75L40.78 77H47v31.71a1.315 1.315 0 0 1-1.33 1.29h-3.34a1.315 1.315 0 0 1-1.33-1.29v-9.09l-4 8.94v.15a5.313 5.313 0 0 0 5.33 5.29h3.34a5.313 5.313 0 0 0 5.33-5.29V74.92a5.119 5.119 0 0 0 1-3.03V61.04l4.15 1.57a5.815 5.815 0 0 0 7.53-3.3 6.029 6.029 0 0 0-3.54-7.46zm-22.37 35.4-9.93 22.19c-.15.35-.55.69-.95.51l-2.48-1.1a.89.89 0 0 1-.33-1.16c.02-.04 7.4-21.12 7.4-21.12a2.064 2.064 0 0 0 .05-1.13L29.51 77h7.22l1.26 8.7a3.891 3.891 0 0 1-.22 1.55z" opacity="1" data-original="#2d4356"></path><path fill="#e1ebf4" d="m37.77 87.25-9.93 22.19c-.15.35-.55.69-.95.51l-2.48-1.1a.89.89 0 0 1-.33-1.16c.02-.04 7.4-21.12 7.4-21.12a2.064 2.064 0 0 0 .05-1.13L29.51 77h7.22l1.26 8.7a3.891 3.891 0 0 1-.22 1.55z" opacity="1" data-original="#e1ebf4"></path><g fill="#2d4356"><path d="M4.679 108a48.675 48.675 0 0 0 .006-24H22.96l-.958-4H1.999a2.002 2.002 0 0 0-1.876 2.693 44.667 44.667 0 0 1 .49 25.008 3.366 3.366 0 0 0 .505 2.979 3.455 3.455 0 0 0 2.8 1.32h12.99a9.034 9.034 0 0 1-.896-4z" fill="#2d4356" opacity="1" data-original="#2d4356"></path><path d="M22.999 86a2 2 0 0 0-2 2 4 4 0 0 1-8 0 2 2 0 0 0-4 0 7.98 7.98 0 0 0 10.897 7.447l3.298-9.428C23.13 86.014 23.065 86 23 86zM16.092 76h4.952l-.607-2.535a5.96 5.96 0 0 1-.09-2.338z" fill="#2d4356" opacity="1" data-original="#2d4356"></path></g><path fill="#fc785e" d="M113.392 46.352a13.93 13.93 0 0 1-19.119-.304c-2.05.194-7.773 1.195-7.773 6.327v10.563h34.812V53a10.248 10.248 0 0 0-7.92-6.648z" opacity="1" data-original="#fc785e"></path><path fill="#2d4356" d="M104 26a10 10 0 1 0 10 10 10.017 10.017 0 0 0-10-10zm0 16a6 6 0 1 1 6-6 6.005 6.005 0 0 1-6 6z" opacity="1" data-original="#2d4356"></path><circle cx="104" cy="36" r="6" fill="#e1ebf4" opacity="1" data-original="#e1ebf4"></circle><circle cx="104" cy="52" r="2" fill="#2d4356" opacity="1" data-original="#2d4356"></circle><circle cx="104" cy="58" r="2" fill="#2d4356" opacity="1" data-original="#2d4356"></circle><path fill="#2d4356" d="M72 57h4v6h4v-8a2 2 0 0 0-2-2h-8a2 2 0 0 0-2 2v8h4z" opacity="1" data-original="#2d4356"></path><path fill="#f9edd250" d="M72 57h4v2h-4z" opacity="1" data-original="#f9edd250"></path><path fill="#2d4356" d="M112.182 48A8.07 8.07 0 0 1 120 56.285V63h4v-6.715a12.22 12.22 0 0 0-8.835-11.873A14.104 14.104 0 0 1 111.174 48zM88 56.285A8.07 8.07 0 0 1 95.818 48h1.008a14.103 14.103 0 0 1-3.991-3.588A12.22 12.22 0 0 0 84 56.285V63h4zM126 67H62a2.006 2.006 0 0 0-2 2v8a2.006 2.006 0 0 0 2 2h3v26a6.005 6.005 0 0 0 6 6h46a6.005 6.005 0 0 0 6-6V79h3a2.006 2.006 0 0 0 2-2v-8a2.006 2.006 0 0 0-2-2zm-7 38a2.006 2.006 0 0 1-2 2H71a2.006 2.006 0 0 1-2-2V79h7v2a2 2 0 0 0 4 0v-2h39zm5-30H64v-4h60z" opacity="1" data-original="#2d4356"></path><path fill="#d68751" d="M64 71h60v4H64z" opacity="1" data-original="#d68751"></path><path fill="#e1ebf4" d="M80 79v2a2 2 0 0 1-4 0v-2h-7v26a2.006 2.006 0 0 0 2 2h46a2.006 2.006 0 0 0 2-2V79zm16.82 21.72V102a2 2 0 0 1-4 0v-.89h-1.98a2 2 0 0 1 0-4h3.84a1.457 1.457 0 0 0 1.05-.35.962.962 0 0 0 .27-.67c0-.62-.47-.95-1.32-.95h-1.37A5.057 5.057 0 0 1 88 90.12a4.855 4.855 0 0 1 1.4-3.44 5.233 5.233 0 0 1 3.42-1.49V84a2 2 0 0 1 4 0v1.17h.33a2 2 0 0 1 0 4h-3.84c-1.14 0-1.31.59-1.31.95 0 .24.09 1.02 1.31 1.02h1.37a4.962 4.962 0 0 1 2.14 9.58z" opacity="1" data-original="#e1ebf4"></path><path fill="#2d4356" d="M100 96.09a4.971 4.971 0 0 1-3.18 4.63V102a2 2 0 0 1-4 0v-.89h-1.98a2 2 0 0 1 0-4h3.84a1.457 1.457 0 0 0 1.05-.35.962.962 0 0 0 .27-.67c0-.62-.47-.95-1.32-.95h-1.37A5.057 5.057 0 0 1 88 90.12a4.855 4.855 0 0 1 1.4-3.44 5.233 5.233 0 0 1 3.42-1.49V84a2 2 0 0 1 4 0v1.17h.33a2 2 0 0 1 0 4h-3.84c-1.14 0-1.31.59-1.31.95 0 .24.09 1.02 1.31 1.02h1.37a4.972 4.972 0 0 1 5.32 4.95z" opacity="1" data-original="#2d4356"></path><path fill="#72492d40" d="M64 73h60v2H64z" opacity="1" data-original="#72492d40"></path><path fill="#9fa5aa50" d="M119 103v2a2.006 2.006 0 0 1-2 2H71a2.006 2.006 0 0 1-2-2v-2a2.006 2.006 0 0 0 2 2h46a2.006 2.006 0 0 0 2-2z" opacity="1" data-original="#9fa5aa50"></path><path fill="#fff" d="M110 36a5.47 5.47 0 0 1-.09 1 5.993 5.993 0 0 0-11.82 0 5.47 5.47 0 0 1-.09-1 6 6 0 0 1 12 0z" opacity=".5"></path><path fill="#9fa5aa" d="M110 36a6 6 0 0 1-12 0 5.47 5.47 0 0 1 .09-1 5.993 5.993 0 0 0 11.82 0 5.47 5.47 0 0 1 .09 1zM43 23a5 5 0 0 1-10 0 4.619 4.619 0 0 1 .1-.99 5.004 5.004 0 0 0 9.8 0 4.619 4.619 0 0 1 .1.99z" opacity=".5"></path><path fill="#a54b3f" d="M48 69.89v2A1.063 1.063 0 0 1 47 73H29a1.063 1.063 0 0 1-1-1.11v-2A1.063 1.063 0 0 0 29 71h18a1.063 1.063 0 0 0 1-1.11zM59.91 57.97a1.813 1.813 0 0 1-2.36.9L37.9 51.4a2.004 2.004 0 0 0-2.44.86 1.98 1.98 0 0 1-.14-1.7 2.005 2.005 0 0 1 2.58-1.16l19.65 7.47a1.954 1.954 0 0 0 2.11-.46 1.762 1.762 0 0 1 .25 1.56z" opacity=".5"></path><path fill="#9fa5aa" d="M47 106.71v2a1.315 1.315 0 0 1-1.33 1.29h-3.34a1.315 1.315 0 0 1-1.33-1.29v-2a1.315 1.315 0 0 0 1.33 1.29h3.34a1.315 1.315 0 0 0 1.33-1.29zM37.77 87.25l-9.93 22.19c-.15.35-.55.69-.95.51l-2.48-1.1a.89.89 0 0 1-.33-1.16s.11-.32.3-.86c.01.01.02.02.03.02l2.48 1.1c.4.18.8-.16.95-.51l9.93-22.19a3.437 3.437 0 0 0 .11-.34l.11.79a3.891 3.891 0 0 1-.22 1.55z" opacity=".5"></path><path fill="#ad9359" d="M16.23 110h-.01a9.495 9.495 0 0 1-.21-2H4.68c.18-.67.33-1.34.47-2h11.1a9.153 9.153 0 0 0-.02 4z" opacity=".45"></path><path fill="#f9edd2" d="m23.35 85.59-.14.41H5.15c-.16-.75-.32-1.42-.47-2h18.29z" opacity=".5"></path></g></svg>