<svg xmlns="http://www.w3.org/2000/svg" version="1.1" xmlns:xlink="http://www.w3.org/1999/xlink" width="512" height="512" x="0" y="0" viewBox="0 0 96 96" style="enable-background:new 0 0 512 512" xml:space="preserve"><g><circle cx="49.29" cy="47.31" r="45.71" fill="#70b7ff" opacity="1" data-original="#70b7ff"></circle><circle cx="49.29" cy="47.31" r="35.25" fill="#98d5ff" opacity="1" data-original="#98d5ff"></circle><path fill="#b6f3ff" d="M49.29 67.56a20.26 20.26 0 1 1 20.26-20.25 20.27 20.27 0 0 1-20.26 20.25z" opacity="1" data-original="#b6f3ff"></path><path fill="#ffffff" d="M21.47 59.19a1 1 0 0 1 1.84-.79 28.25 28.25 0 0 0 43 11.48 1 1 0 0 1 1.4.19 1 1 0 0 1-.19 1.4 30.26 30.26 0 0 1-46.05-12.28z" opacity="1" data-original="#ffffff"></path><path fill="#cffdff" d="M80.1 18.83C78.12 8.64 70.37 1.57 62.8 3S50.7 14 52.68 24.17C54 31 58 36.46 62.71 38.83A8.39 8.39 0 0 1 67.35 45l6 39.29a5.16 5.16 0 1 0 10.13-2l-9.16-38.65a8.37 8.37 0 0 1 2-7.46c3.5-3.98 5.12-10.49 3.78-17.35z" opacity="1" data-original="#cffdff"></path><path fill="#ffffff" d="m68.87 55 7.77-1.52-2.32-9.79a8 8 0 0 1 .1-4l-8.67 1.69a8 8 0 0 1 1.6 3.62z" opacity="1" data-original="#ffffff"></path><path fill="#cffdff" d="m33.69 13.53-5.51 23.68A9.63 9.63 0 0 1 22.44 44a5.15 5.15 0 0 0-3.13 3.8l-8.08 42.4a5.16 5.16 0 1 1-10-2.33l11.43-41.66a5.17 5.17 0 0 0-1.13-4.79 9.63 9.63 0 0 1-2.18-8.59l5.5-23.67a2 2 0 0 1 2.41-1.51l14.93 3.47a2 2 0 0 1 1.5 2.41z" opacity="1" data-original="#cffdff"></path><path fill="#ffffff" d="M9.07 59.24 16.78 61c2.81-14.74 2.52-13.28 2.65-13.73l-6.68-1.55c-.08.5.25-.87-3.68 13.52z" opacity="1" data-original="#ffffff"></path><path fill="#70b7ff" d="m22.49 8.87-5.26 22.62a1 1 0 1 1-1.94-.49l5.25-22.59zM28.9 10.36 23.64 33a1 1 0 1 1-1.94-.45L27 9.9z" opacity="1" data-original="#70b7ff"></path><g fill="#302d3d"><path d="M67.48 71.51a1 1 0 1 0-1.21-1.59 28.25 28.25 0 0 1-43-11.48 1 1 0 0 0-1.84.79 30.26 30.26 0 0 0 46.05 12.28z" fill="#302d3d" opacity="1" data-original="#302d3d"></path><path d="M83.7 78.9A46.63 46.63 0 0 0 78 10.54C73.73 3.29 66.87.77 61.7 2.32A46.58 46.58 0 0 0 23.85 8.2l-6.36-1.48A3 3 0 0 0 13.88 9l-2.63 11.28a46.6 46.6 0 0 0-5 45.31l-6.07 22a6.1 6.1 0 0 0 .65 4.79 6.16 6.16 0 0 0 11.34-2l2.28-12a46.61 46.61 0 0 0 59.06 8.79 6 6 0 0 0 1.37 1.34 6.17 6.17 0 0 0 9.54-6.46zm-.57-2.37-2.57-10.86a36.16 36.16 0 0 0 .27-36.19A25.22 25.22 0 0 0 80.07 15a44.62 44.62 0 0 1 3.06 61.53zM13.49 47l4.75 1.1c-2 10.51-1.58 8.29-2.24 11.77-1.12-.27-.17 0-5.69-1.32.69-2.49 3.07-11.16 3.18-11.55zm6.9.62a4.1 4.1 0 0 1 2.43-2.7 10.68 10.68 0 0 0 6.34-7.44L34 16.7a34.14 34.14 0 0 1 18-3.5c-2.8 10.18 1.9 22.38 10.26 26.57a7.38 7.38 0 0 1 4.1 5.42c.73 4.78 3.69 24 4.42 28.82A34.24 34.24 0 0 1 17.84 60.9c2.69-14.17 2.44-12.96 2.55-13.28zm47-5.56 5.77-1.12c-.15 2.15 0 2 2.27 11.75L69.7 53.8c-1.45-9.45-1.34-9.8-2.31-11.74zm7.91 1.39a7.42 7.42 0 0 1 1.76-6.57A16.68 16.68 0 0 0 80 32.1a34.26 34.26 0 0 1-.09 30.68c-2.28-9.48 1.02 4.42-4.61-19.33zm-3.55-37C78 11 81.27 21.31 78.68 29.76c-1.6 5.32-3.79 5.52-5 9l-7.53 1.47a9.68 9.68 0 0 0-3-2.29c-8.39-4.21-12.64-17.65-8.09-27.17 3.45-7.17 10.62-8.95 16.69-4.36zM58.69 3.64a15.26 15.26 0 0 0-6 7.61 36.2 36.2 0 0 0-18.12 3l.1-.42a3 3 0 0 0-2.25-3.61L26.6 8.84a44.55 44.55 0 0 1 32.09-5.2zM15.82 9.42a1 1 0 0 1 1-.78 29.92 29.92 0 0 1 3.5.78c-.56 2.47 0 .13-5 21.66a1 1 0 1 0 1.94.45c2-8.76 4.09-17.63 5-21.65 2.48.58 1.47.35 4.46 1L24.39 21c-1.11 4.8-.52 2.28-2.68 11.55a1 1 0 1 0 1.94.45c3-12.83 2.3-9.92 3.3-14.21l1.72-7.44c.1 0-.2 0 3.29.76a1 1 0 0 1 .75 1.22C31.4 19 34.47 5.78 27.21 37a8.66 8.66 0 0 1-5.15 6 6.18 6.18 0 0 0-3.27 3.11L13.84 45a6.18 6.18 0 0 0-1.56-4.23 8.68 8.68 0 0 1-2-7.7c4.14-17.62 3.37-14.29 5.54-23.65zm-6 16.92-1.45 6.31a10.68 10.68 0 0 0 2.41 9.48 4.15 4.15 0 0 1 1 3.54c-.06.35-4.55 16.6-4.58 16.7a44.61 44.61 0 0 1 2.64-36.03zm.41 63.72a4.16 4.16 0 1 1-8.1-1.89l7.65-27.69 5.84 1.35c-3.35 17.65-2.17 11.44-5.37 28.23zM15 76l2.2-11.8a36.23 36.23 0 0 0 53.92 12.07c1.4 9.12 1.29 8.6 1.5 9.21A44.66 44.66 0 0 1 15 76zm67 9.85a4.16 4.16 0 0 1-7.58-1.48c0-.23-.43-2.75-1.46-9.5-.5-3.18 0 0-2.92-19l5.89-1.16c2.66 11.2 5.64 23.85 6.62 28a4.12 4.12 0 0 1-.55 3.1z" fill="#302d3d" opacity="1" data-original="#302d3d"></path></g></g></svg>