<svg xmlns="http://www.w3.org/2000/svg" version="1.1" xmlns:xlink="http://www.w3.org/1999/xlink" width="512" height="512" x="0" y="0" viewBox="0 0 512 512" style="enable-background:new 0 0 512 512" xml:space="preserve" class=""><g><path d="M408.066 57.13H103.934c-15.86 0-28.764 12.904-28.764 28.764v397.342c0 15.86 12.904 28.764 28.764 28.764h304.132c15.86 0 28.764-12.904 28.764-28.764V85.894c0-15.861-12.904-28.764-28.764-28.764z" style="" fill="#c46f5f" data-original="#c46f5f"></path><path d="M107.13 483.236V85.894c0-15.86 12.904-28.764 28.764-28.764h-31.96c-15.86 0-28.764 12.904-28.764 28.764v397.342c0 15.86 12.904 28.764 28.764 28.764h31.96c-15.86 0-28.764-12.904-28.764-28.764z" style="" fill="#b45f4a" data-original="#b45f4a"></path><path d="M402.311 89.09H109.69a2.56 2.56 0 0 0-2.559 2.559v385.832a2.559 2.559 0 0 0 2.559 2.559h292.621a2.56 2.56 0 0 0 2.559-2.559V91.649a2.559 2.559 0 0 0-2.559-2.559z" style="" fill="#fff6e9" data-original="#fff6e9"></path><path d="M137.578 477.481V91.649a2.559 2.559 0 0 1 2.559-2.559h-30.448a2.56 2.56 0 0 0-2.559 2.559v385.832a2.559 2.559 0 0 0 2.559 2.559h30.448a2.56 2.56 0 0 1-2.559-2.559z" style="" fill="#f9e4c7" data-original="#f9e4c7"></path><path d="M282.367 63.876a7.612 7.612 0 0 1-7.612-7.612V33.979c0-10.342-8.413-18.755-18.755-18.755-10.342 0-18.755 8.413-18.755 18.755v22.285a7.612 7.612 0 1 1-15.224 0V33.979C222.021 15.243 237.264 0 256 0s33.979 15.243 33.979 33.979v22.285a7.612 7.612 0 0 1-7.612 7.612z" style="" fill="#ccd2db" data-original="#ccd2db"></path><path d="M315.856 49.16H196.144c-4.432 0-8.058 3.626-8.058 8.058v36.617c0 4.432 3.626 8.058 8.058 8.058h119.712c4.432 0 8.058-3.626 8.058-8.058V57.218c.001-4.432-3.626-8.058-8.058-8.058z" style="" fill="#e4eaf8" data-original="#e4eaf8"></path><path d="M218.533 93.835V57.218c0-4.432 3.626-8.058 8.058-8.058h-30.448c-4.432 0-8.058 3.626-8.058 8.058v36.617c0 4.432 3.626 8.058 8.058 8.058h30.448c-4.431 0-8.058-3.626-8.058-8.058z" style="" fill="#ccd2db" data-original="#ccd2db"></path><path d="M292.961 83.138H219.04a7.612 7.612 0 1 1 0-15.224h73.921a7.612 7.612 0 1 1 0 15.224z" style="" fill="#bcc2cc" data-original="#bcc2cc"></path><path d="M292.452 145.099h-73.921a7.612 7.612 0 1 1 0-15.224h73.921a7.612 7.612 0 1 1 0 15.224zM292.452 191.165h-63.327a7.612 7.612 0 1 1 0-15.224h63.327a7.612 7.612 0 1 1 0 15.224zM349.139 218.509H229.125a7.612 7.612 0 1 1 0-15.224h120.014a7.612 7.612 0 1 1 0 15.224zM292.452 264.752h-63.327a7.612 7.612 0 1 1 0-15.224h63.327a7.612 7.612 0 1 1 0 15.224zM349.139 292.095H229.125a7.612 7.612 0 1 1 0-15.224h120.014a7.612 7.612 0 1 1 0 15.224zM292.452 338.339h-63.327a7.612 7.612 0 1 1 0-15.224h63.327a7.612 7.612 0 1 1 0 15.224zM349.139 365.682H229.125a7.612 7.612 0 1 1 0-15.224h120.014a7.612 7.612 0 1 1 0 15.224zM292.452 411.925h-63.327a7.612 7.612 0 1 1 0-15.224h63.327a7.612 7.612 0 1 1 0 15.224zM349.139 439.268H229.125a7.612 7.612 0 1 1 0-15.224h120.014a7.612 7.612 0 1 1 0 15.224z" style="" fill="#f9e4c7" data-original="#f9e4c7"></path><path d="M189.107 393.521h-25.443c-6.459 0-11.743 5.284-11.743 11.743v25.443c0 6.459 5.284 11.743 11.743 11.743h25.443c6.459 0 11.743-5.284 11.743-11.743v-25.443c0-6.459-5.284-11.743-11.743-11.743zM189.107 319.934h-25.443c-6.459 0-11.743 5.284-11.743 11.743v25.443c0 6.459 5.284 11.743 11.743 11.743h25.443c6.459 0 11.743-5.284 11.743-11.743v-25.443c0-6.459-5.284-11.743-11.743-11.743zM189.107 246.348h-25.443c-6.459 0-11.743 5.284-11.743 11.743v25.443c0 6.459 5.284 11.743 11.743 11.743h25.443c6.459 0 11.743-5.284 11.743-11.743V258.09c0-6.458-5.284-11.742-11.743-11.742zM189.107 172.761h-25.443c-6.459 0-11.743 5.284-11.743 11.743v25.443c0 6.459 5.284 11.743 11.743 11.743h25.443c6.459 0 11.743-5.284 11.743-11.743v-25.443c0-6.459-5.284-11.743-11.743-11.743z" style="" fill="#54a0ff" data-original="#54a0ff"></path><path d="M182.37 430.706v-25.443c0-5.6 3.974-10.31 9.24-11.466a11.678 11.678 0 0 0-2.503-.277h-25.443c-6.459 0-11.743 5.284-11.743 11.743v25.443c0 6.459 5.284 11.743 11.743 11.743h25.443c.859 0 1.695-.1 2.503-.277-5.266-1.156-9.24-5.866-9.24-11.466zM182.37 357.12v-25.443c0-5.6 3.974-10.31 9.24-11.466a11.678 11.678 0 0 0-2.503-.277h-25.443c-6.459 0-11.743 5.284-11.743 11.743v25.443c0 6.459 5.284 11.743 11.743 11.743h25.443c.859 0 1.695-.1 2.503-.277-5.266-1.156-9.24-5.867-9.24-11.466zM182.37 283.533V258.09c0-5.6 3.974-10.31 9.24-11.466a11.678 11.678 0 0 0-2.503-.277h-25.443c-6.459 0-11.743 5.284-11.743 11.743v25.443c0 6.459 5.284 11.743 11.743 11.743h25.443c.859 0 1.695-.099 2.503-.277-5.266-1.155-9.24-5.866-9.24-11.466zM182.37 209.947v-25.443c0-5.6 3.974-10.31 9.24-11.466a11.678 11.678 0 0 0-2.503-.277h-25.443c-6.459 0-11.743 5.284-11.743 11.743v25.443c0 6.459 5.284 11.743 11.743 11.743h25.443c.859 0 1.695-.1 2.503-.277-5.266-1.156-9.24-5.867-9.24-11.466z" style="" fill="#338def" data-original="#338def"></path><path d="m173.5 208.937-10.114-10.653a7.612 7.612 0 0 1 11.041-10.481l4.794 5.049 23.283-22.775a7.612 7.612 0 1 1 10.646 10.882l-28.807 28.179a7.612 7.612 0 0 1-10.843-.201z" style="" fill="#1dd1a1" data-original="#1dd1a1"></path></g></svg>