<svg xmlns="http://www.w3.org/2000/svg" version="1.1" xmlns:xlink="http://www.w3.org/1999/xlink" width="512" height="512" x="0" y="0" viewBox="0 0 512 512" style="enable-background:new 0 0 512 512" xml:space="preserve" class=""><g><path fill="#d1a08f" d="m91.572 404.979-28.855-2.464 8.659-98.049a26.398 26.398 0 0 1 15.879-21.934l39.55-16.986a119.627 119.627 0 0 1 50.661-9.659l32.6.941v81.621z" opacity="1" data-original="#d1a08f"></path><path fill="#c68d7a" d="M167.558 355.304c-.807 0-7.954-2.831-7.954-2.831l-35.221-17.48a7.703 7.703 0 0 1 7.223-13.608l17.963 9.537a136.984 136.984 0 0 0 20.882 8.95 7.704 7.704 0 0 1 4.872 9.744c-1.076 3.227-4.541 5.688-7.765 5.688z" opacity="1" data-original="#c68d7a"></path><path fill="#eef5f6" d="M194.805 452.894a33.838 33.838 0 0 0 13.86 2.948h200.51c18.719 0 33.894-15.143 33.894-33.822V41.404c0-18.68-15.175-33.822-33.894-33.822h-200.51c-18.719 0-33.894 15.143-33.894 33.822v320.625z" opacity="1" data-original="#eef5f6"></path><path fill="#deecf1" d="M442.75 41.282v379.692c0 18.634-17.223 33.746-38.463 33.746h-29.685c21.24 0 37.816-18.732 37.816-33.746l.349-376.72c0-22.382-16.926-36.708-38.166-36.708h29.685c21.241 0 38.464 15.103 38.464 33.736z" opacity="1" data-original="#deecf1"></path><path fill="#8d9ca8" d="M408.937 462.264H208.915a41.127 41.127 0 0 1-16.91-3.599 7.547 7.547 0 0 1 6.166-13.776 26.113 26.113 0 0 0 10.743 2.283h200.022c14.483 0 26.266-11.751 26.266-26.194V41.286c0-14.443-11.783-26.194-26.266-26.194H208.915c-14.483 0-26.265 11.751-26.265 26.194v319.846a7.546 7.546 0 0 1-15.092 0V41.286C167.558 18.521 186.111 0 208.915 0h200.022c22.805 0 41.358 18.521 41.358 41.286v379.691c0 22.766-18.553 41.287-41.358 41.287z" opacity="1" data-original="#8d9ca8" class=""></path><path fill="#deecf1" d="M314.422 36.707h-38.245a7.546 7.546 0 0 0 0 15.092h38.245a7.546 7.546 0 0 0 0-15.092z" opacity="1" data-original="#deecf1"></path><circle cx="341.672" cy="44.254" r="7.546" fill="#deecf1" opacity="1" data-original="#deecf1"></circle><path fill="#ade194" d="m366.896 406.849-17.678 2.03h-97.854c-13.653 0-24.722-11.068-24.722-24.722V332.04c0-13.653 11.068-24.722 24.722-24.722h100.319l15.213 2.03c13.653 0 22.692 9.038 22.692 22.692v52.118c0 13.653-9.038 22.691-22.692 22.691z" opacity="1" data-original="#ade194" class=""></path><path fill="#97da7b" d="M366.896 307.318h-24.359c13.653 0 24.722 11.068 24.722 24.722v52.118c0 13.653-11.068 24.721-24.722 24.721h24.359c13.653 0 24.722-11.068 24.722-24.721V332.04c0-13.653-11.068-24.722-24.722-24.722z" opacity="1" data-original="#97da7b"></path><path fill="#d1a08f" d="M179.265 511.998a5.11 5.11 0 0 0 4.085-2.015c12.755-16.894 24.067-37.873 29.698-58.938a59.633 59.633 0 0 1 19.272-29.749l29.276-24.37a79.51 79.51 0 0 1 50.868-18.401h27.606a6.626 6.626 0 0 0 6.626-6.626c0-20.126-16.316-36.442-36.442-36.442H293.05c-12.93 0-25.75 2.365-37.829 6.98-11.757 4.492-27.033 10.328-39.068 14.929-12.776 4.884-26.847 5.189-39.919.831l-8.219-2.74c-7.602-2.534-15.157-5.402-22.234-9.159l-20.036-6.038-63.028 62.255a261.053 261.053 0 0 0 3.28 70.116l.454 2.472a173.033 173.033 0 0 1 2.843 31.759A5.122 5.122 0 0 0 74.42 512z" opacity="1" data-original="#d1a08f"></path><path fill="#5f727a" d="M329.93 161.422h-41.598a7.364 7.364 0 0 1-7.364-7.364v-37.783c0-9.758 7.939-17.696 17.696-17.696h20.932c9.758 0 17.697 7.938 17.697 17.696v37.783a7.364 7.364 0 0 1-7.363 7.364zm-34.234-14.728h26.87v-30.419a2.973 2.973 0 0 0-2.969-2.969h-20.932a2.973 2.973 0 0 0-2.969 2.969zM378.482 246.133l-24.112 2.203H237.12c-5.93 0-10.737-4.807-10.737-10.737V208.32H386.3l2.918 27.077c.001 5.929-4.806 10.736-10.736 10.736z" opacity="1" data-original="#5f727a"></path><path fill="#516366" d="M362.42 208.32v29.279c0 5.93-4.807 10.737-10.737 10.737h29.458c5.93 0 10.737-4.807 10.737-10.737V208.32z" opacity="1" data-original="#516366"></path><path fill="#7a8c98" d="m396.515 211.886-24.734 2.646H220.584c-5.402 0-9.781-4.379-9.781-9.781v-19.566h196.656l-1.54 16.811c0 5.402-4.002 9.89-9.404 9.89z" opacity="1" data-original="#7a8c98"></path><path fill="#5f727a" d="M378.001 185.185v19.566c0 5.402-4.379 9.781-9.781 9.781h29.458c5.402 0 9.781-4.379 9.781-9.781v-19.566z" opacity="1" data-original="#5f727a"></path><path fill="#7a8c98" d="M386.381 185.834v.648H226.386v-.648c0-30.544 24.762-55.306 55.306-55.306h54.874c.245 0 .481.009.727.009 15.769 0 49.088 24.998 49.088 55.297z" opacity="1" data-original="#7a8c98"></path><path fill="#5f727a" d="M391.882 185.834v.648h-26.185c-.619-2.415-.962-4.767-.962-8.145 0-35.13-26.607-47.437-27.441-47.801 30.21.393 54.588 24.999 54.588 55.298z" opacity="1" data-original="#5f727a"></path><path fill="#8d9ca8" d="m417.755 189.674-28.536 2.875H200.515a7.364 7.364 0 0 1 0-14.728h189.697l26.732 1.8c4.067 0 4.54 1.497 4.54 5.563s.338 4.49-3.729 4.49z" opacity="1" data-original="#8d9ca8" class=""></path><path fill="#7a8c98" d="M417.746 177.821h-29.458a7.364 7.364 0 0 1 0 14.728h29.458a7.364 7.364 0 0 0 0-14.728z" opacity="1" data-original="#7a8c98"></path></g></svg>