<svg xmlns="http://www.w3.org/2000/svg" version="1.1" xmlns:xlink="http://www.w3.org/1999/xlink" width="512" height="512" x="0" y="0" viewBox="0 0 512 512" style="enable-background:new 0 0 512 512" xml:space="preserve"><g><g fill-rule="evenodd" clip-rule="evenodd"><path fill="#42a5f5" d="M42.859 44.67h168.707c7.824 6.215 5.5 23.147 5.5 33.857v35.849H15.846c-3.769 0-6.845-3.075-6.845-6.845V78.527C9.002 59.905 24.237 44.67 42.859 44.67z" opacity="1" data-original="#42a5f5"></path><path fill="#2d90f1" d="M68.83 56.87c-6.196-7.411-15.485-12.158-25.833-12.2h-.139c-18.622 0-33.857 15.235-33.857 33.857v29.004c0 3.77 3.075 6.845 6.845 6.845h5.733V87.947c0-18.622 15.235-33.856 33.857-33.856h.139c4.7.019 9.182 1.01 13.255 2.779z" opacity="1" data-original="#2d90f1"></path><path fill="#64b5f6" d="M356.059 44.67c18.622 0 33.857 15.235 33.857 33.857v381.959c0 3.77-3.075 6.844-6.845 6.844H83.56c-3.77 0-6.844-3.075-6.844-6.844V78.527c0-18.622-15.235-33.857-33.856-33.857z" opacity="1" data-original="#64b5f6"></path><path fill="#42a5f5" d="M370.762 48.051c11.31 5.497 19.154 17.115 19.154 30.476v381.958c0 3.77-3.075 6.844-6.845 6.844H83.56c-3.77 0-6.844-3.074-6.844-6.844v-8.929h290.582c3.77 0 6.845-3.075 6.845-6.844V62.753c0-5.26-1.217-10.249-3.381-14.702z" opacity="1" data-original="#42a5f5"></path><path fill="#42a5f5" d="M150.845 213.85a7.976 7.976 0 0 1 11.281-.031 7.976 7.976 0 0 1 .031 11.281l-25.751 25.993a7.977 7.977 0 0 1-11.218.093l-14.366-14.001a7.978 7.978 0 0 1 11.125-11.437l8.705 8.485zm167.004 24.238a8 8 0 0 1 0 16h-129.11a8 8 0 0 1 0-16zm0 186.31a8 8 0 0 1 0 16h-129.11a8 8 0 0 1 0-16zm0-124.207a8 8 0 0 1 0 16h-129.11a8 8 0 0 1 0-16zm32.395-27.232a8 8 0 0 1 0 16H188.739a8 8 0 0 1 0-16zm-32.395 89.336a8 8 0 0 1 0 16h-129.11a8 8 0 0 1 0-16zm32.395-27.233a8 8 0 0 1 0 16H188.739a8 8 0 0 1 0-16zm0 62.104a8 8 0 0 1 0 16H188.739a8 8 0 0 1 0-16zm-32.395-283.285a8 8 0 0 1 0 16h-129.11a8 8 0 0 1 0-16zm32.395-27.233a8 8 0 0 1 0 16H188.739a8 8 0 0 1 0-16zm-32.395 89.336a8 8 0 0 1 0 16h-129.11a8 8 0 0 1 0-16zm32.395-27.232a8 8 0 0 1 0 16H188.739a8 8 0 0 1 0-16zm0 62.103a8 8 0 0 1 0 16H188.739a8 8 0 0 1 0-16zm-199.399 65.098a7.976 7.976 0 0 1 11.281-.031 7.976 7.976 0 0 1 .031 11.281l-25.751 25.993a7.977 7.977 0 0 1-11.218.093l-14.366-14.001a7.978 7.978 0 0 1 11.125-11.437l8.705 8.485zm0 62.104a7.976 7.976 0 0 1 11.281-.031 7.976 7.976 0 0 1 .031 11.281l-25.75 25.993a7.977 7.977 0 0 1-11.218.093l-14.366-14.001a7.978 7.978 0 0 1 11.125-11.437l8.705 8.485zm0 62.103a7.976 7.976 0 0 1 11.281-.031 7.976 7.976 0 0 1 .031 11.281l-25.751 25.993a7.977 7.977 0 0 1-11.218.093l-14.366-14.001a7.978 7.978 0 0 1 11.125-11.437l8.704 8.485zm0-310.517a7.976 7.976 0 0 1 11.281-.031 7.976 7.976 0 0 1 .031 11.281l-25.751 25.993a7.977 7.977 0 0 1-11.218.093l-14.366-14.002a7.978 7.978 0 0 1 11.125-11.437l8.705 8.485zm0 62.104a7.976 7.976 0 0 1 11.281-.031 7.976 7.976 0 0 1 .031 11.281l-25.751 25.993a7.977 7.977 0 0 1-11.218.093l-14.366-14.001a7.978 7.978 0 0 1 11.125-11.437l8.705 8.485z" opacity="1" data-original="#42a5f5"></path><path fill="#eff4f7" d="M150.845 206.325a7.976 7.976 0 0 1 11.281-.031 7.976 7.976 0 0 1 .031 11.281l-25.751 25.993a7.977 7.977 0 0 1-11.218.093l-14.366-14.001a7.978 7.978 0 0 1 11.125-11.437l8.705 8.485zm167.004 24.238a8 8 0 0 1 0 16h-129.11a8 8 0 0 1 0-16zm0 186.311a8 8 0 0 1 0 16h-129.11a8 8 0 0 1 0-16zm0-124.207a8 8 0 0 1 0 16h-129.11a8 8 0 0 1 0-16zm32.395-27.233a8 8 0 0 1 0 16H188.739a8 8 0 0 1 0-16zm-32.395 89.336a8 8 0 0 1 0 16h-129.11a8 8 0 0 1 0-16zm32.395-27.232a8 8 0 0 1 0 16H188.739a8 8 0 0 1 0-16zm0 62.103a8 8 0 0 1 0 16H188.739a8 8 0 0 1 0-16zm-32.395-283.285a8 8 0 0 1 0 16h-129.11a8 8 0 0 1 0-16zm32.395-27.232a8 8 0 0 1 0 16H188.739a8 8 0 0 1 0-16zm-32.395 89.336a8 8 0 0 1 0 16h-129.11a8 8 0 0 1 0-16zm32.395-27.233a8 8 0 0 1 0 16H188.739a8 8 0 0 1 0-16zm0 62.104a8 8 0 0 1 0 16H188.739a8 8 0 0 1 0-16zm-199.399 65.098a7.976 7.976 0 0 1 11.281-.031 7.976 7.976 0 0 1 .031 11.281l-25.751 25.993a7.977 7.977 0 0 1-11.218.093l-14.366-14.001a7.978 7.978 0 0 1 11.125-11.437l8.705 8.485zm0 62.104a7.976 7.976 0 0 1 11.281-.031 7.976 7.976 0 0 1 .031 11.281l-25.751 25.993a7.977 7.977 0 0 1-11.218.093l-14.366-14.001a7.978 7.978 0 0 1 11.125-11.437l8.705 8.485zm0 62.103a7.976 7.976 0 0 1 11.281-.031 7.976 7.976 0 0 1 .031 11.281l-25.751 25.993a7.977 7.977 0 0 1-11.218.093l-14.366-14.001a7.978 7.978 0 0 1 11.125-11.437l8.704 8.485zm0-310.518a7.976 7.976 0 0 1 11.281-.031 7.976 7.976 0 0 1 .031 11.281l-25.751 25.993a7.977 7.977 0 0 1-11.218.093l-14.366-14.002a7.978 7.978 0 0 1 11.125-11.437l8.705 8.485zm0 62.104a7.976 7.976 0 0 1 11.281-.031 7.976 7.976 0 0 1 .031 11.281l-25.751 25.993a7.977 7.977 0 0 1-11.218.093l-14.366-14.001a7.978 7.978 0 0 1 11.125-11.437l8.705 8.485z" opacity="1" data-original="#eff4f7"></path><circle cx="413.103" cy="305.014" r="89.895" fill="#fdb800" transform="rotate(-73.98 413.264 305.077)" opacity="1" data-original="#fdb800"></circle><path fill="#f4a40e" d="M471.371 236.565c19.351 16.489 31.627 41.034 31.627 68.449 0 49.647-40.247 89.895-89.895 89.895-27.415 0-51.96-12.276-68.449-31.627 15.692 13.371 36.035 21.446 58.268 21.446 49.648 0 89.895-40.247 89.895-89.895 0-22.232-8.075-42.575-21.446-58.268z" opacity="1" data-original="#f4a40e"></path><ellipse cx="413.103" cy="305.014" fill="#ffda2d" rx="65.211" ry="65.212" transform="rotate(-8.5 412.575 304.029)" opacity="1" data-original="#ffda2d"></ellipse><path fill="#ffc700" d="M413.103 239.803c18.856 0 35.84 8.007 47.747 20.802-10.815-7.969-24.177-12.682-38.642-12.682-36.016 0-65.212 29.196-65.212 65.211 0 17.159 6.631 32.766 17.465 44.41-16.114-11.873-26.57-30.979-26.57-52.53.001-36.015 29.197-65.211 65.212-65.211z" opacity="1" data-original="#ffc700"></path><path fill="#ffc700" d="M440.387 285.983a7.04 7.04 0 0 1-11.401 8.261c-.676-.935-1.536-1.69-2.506-2.188-.923-.474-2.003-.742-3.182-.742h-4.421a6.97 6.97 0 0 0-4.936 2.061 6.973 6.973 0 0 0-2.061 4.936c0 1.916.789 3.664 2.061 4.935a6.97 6.97 0 0 0 4.936 2.061h3.14c5.809 0 11.085 2.371 14.905 6.192 3.82 3.82 6.191 9.096 6.191 14.905s-2.371 11.085-6.191 14.905a21.124 21.124 0 0 1-9.425 5.467v2.876a7.05 7.05 0 0 1-14.1 0v-2.585a21.266 21.266 0 0 1-5.372-1.906 21.261 21.261 0 0 1-7.518-6.428 7.04 7.04 0 1 1 11.4-8.261 7.17 7.17 0 0 0 2.507 2.188c.922.473 2.002.742 3.181.742h4.422a6.968 6.968 0 0 0 4.935-2.061 6.97 6.97 0 0 0 2.061-4.936 6.97 6.97 0 0 0-2.061-4.936 6.968 6.968 0 0 0-4.935-2.061h-3.14c-5.809 0-11.085-2.371-14.905-6.192-3.82-3.82-6.192-9.096-6.192-14.904 0-5.809 2.371-11.085 6.192-14.905a21.136 21.136 0 0 1 9.424-5.467v-2.877a7.05 7.05 0 0 1 14.1 0v2.585a21.175 21.175 0 0 1 5.372 1.906 21.249 21.249 0 0 1 7.519 6.429z" opacity="1" data-original="#ffc700"></path><path fill="#fdb800" d="M433.044 278.639a7.04 7.04 0 0 1-11.401 8.261c-.676-.935-1.537-1.69-2.506-2.188-.922-.474-2.002-.742-3.181-.742h-4.422a6.967 6.967 0 0 0-4.935 2.061c-1.272 1.271-2.061 3.019-2.061 4.935s.789 3.664 2.061 4.936a6.973 6.973 0 0 0 4.935 2.061h3.14c5.809 0 11.085 2.371 14.904 6.191 3.82 3.82 6.192 9.096 6.192 14.905s-2.371 11.085-6.192 14.905a21.124 21.124 0 0 1-9.425 5.467v2.876a7.05 7.05 0 0 1-14.1 0v-2.585a21.252 21.252 0 0 1-5.372-1.906 21.266 21.266 0 0 1-7.519-6.429 7.04 7.04 0 0 1 11.401-8.261 7.175 7.175 0 0 0 2.506 2.188c.923.474 2.002.742 3.181.742h4.422a6.968 6.968 0 0 0 4.935-2.061 6.968 6.968 0 0 0 2.061-4.935 6.97 6.97 0 0 0-2.061-4.936 6.973 6.973 0 0 0-4.935-2.061h-3.14c-5.808 0-11.085-2.371-14.904-6.191-3.82-3.82-6.192-9.096-6.192-14.905s2.372-11.085 6.192-14.905a21.134 21.134 0 0 1 9.425-5.467v-2.876a7.05 7.05 0 0 1 14.1 0v2.585a21.214 21.214 0 0 1 5.372 1.906 21.267 21.267 0 0 1 7.519 6.429z" opacity="1" data-original="#fdb800"></path><path fill="#72d561" d="M440.628 115.548h-14.527c-3.213.001-5.18-3.701-3.124-6.361l29.392-38.036a3.945 3.945 0 0 1 6.247 0l29.392 38.036c2.056 2.66.088 6.363-3.126 6.361h-14.526v69.515a5.183 5.183 0 0 1-5.173 5.173h-19.382a5.183 5.183 0 0 1-5.173-5.173z" opacity="1" data-original="#72d561"></path><path fill="#3cbe52" d="m450.696 73.314 1.673-2.164a3.945 3.945 0 0 1 6.247 0l29.392 38.036c2.056 2.66.088 6.363-3.126 6.361h-9.592c3.214.002 5.182-3.701 3.126-6.361zm19.66 42.233h-9.592v69.515a5.183 5.183 0 0 1-5.173 5.173h9.592a5.183 5.183 0 0 0 5.173-5.173z" opacity="1" data-original="#3cbe52"></path></g></g></svg>