<svg width="512" height="512" viewBox="0 0 512 512" fill="none" xmlns="http://www.w3.org/2000/svg">
<path d="M368 464C376.8 464 384 471.2 384 480C384 484.4 382.24 488.4 379.28 491.28C376.4 494.24 372.4 496 368 496H144C135.2 496 128 488.8 128 480C128 475.6 129.76 471.6 132.72 468.72C135.6 465.76 139.6 464 144 464H336H368Z" fill="#969FAA"/>
<path d="M312 416L336 464H176L200 416H312Z" fill="#AAB2BD"/>
<path d="M360 416H72C54.32 416 40 401.68 40 384V144C40 126.32 54.32 112 72 112H120V144H80C75.6 144 72 147.6 72 152V344C72 348.4 75.6 352 80 352H432C436.4 352 440 348.4 440 344V152C440 147.6 436.4 144 432 144H392V112H440C457.68 112 472 126.32 472 144V384C472 401.68 457.68 416 440 416H408C412.4 416 416.4 414.24 419.28 411.28C422.24 408.4 424 404.4 424 400C424 391.2 416.8 384 408 384H360C355.6 384 351.6 385.76 348.72 388.72C345.76 391.6 344 395.6 344 400C344 408.8 351.2 416 360 416Z" fill="#CCD1D9"/>
<path d="M408 384C416.8 384 424 391.2 424 400C424 404.4 422.24 408.4 419.28 411.28C416.4 414.24 412.4 416 408 416H360C351.2 416 344 408.8 344 400C344 395.6 345.76 391.6 348.72 388.72C351.6 385.76 355.6 384 360 384H408Z" fill="#FF826E"/>
<path d="M120 144V352H80C75.6 352 72 348.4 72 344V152C72 147.6 75.6 144 80 144H120ZM440 152V344C440 348.4 436.4 352 432 352H392V144H432C436.4 144 440 147.6 440 152Z" fill="#69D6F4"/>
<path d="M120 48V80H56V48C56 39.2 59.6 31.2 65.36 25.36C71.2 19.6 79.2 16 88 16C105.68 16 120 30.32 120 48Z" fill="#FFEAA7"/>
<path d="M360 16H88C105.68 16 120 30.32 120 48V352H392V48C392 30.32 377.68 16 360 16Z" fill="#E6E9ED"/>
<path d="M328 48H360V160H328V48ZM264 80H296V160H264V80ZM200 112H232V160H200V112Z" fill="#B4DD7F"/>
<path d="M312 192C356.16 192 392 227.84 392 272C392 316.16 356.16 352 312 352C267.84 352 232 316.16 232 272C232 227.84 267.84 192 312 192Z" fill="#FCD770"/>
<path d="M440 104H400V48C400 25.944 382.056 8 360 8H88C65.944 8 48 25.944 48 48V88H112V104H72C49.944 104 32 121.944 32 144V384C32 406.056 49.944 424 72 424H187.056L171.056 456H144C130.768 456 120 466.768 120 480C120 493.232 130.768 504 144 504H368C381.232 504 392 493.232 392 480C392 466.768 381.232 456 368 456H340.944L324.944 424H440C462.056 424 480 406.056 480 384V144C480 121.944 462.056 104 440 104ZM384 322.44V344H362.44C370.817 338.111 378.111 330.817 384 322.44ZM312 344C272.304 344 240 311.696 240 272C240 232.304 272.304 200 312 200C351.696 200 384 232.304 384 272C384 311.696 351.696 344 312 344ZM400 152H432V344H400V152ZM384 48V221.56C368.064 198.888 341.76 184 312 184C263.48 184 224 223.48 224 272C224 301.76 238.888 328.064 261.56 344H128V48C128 38.96 124.872 30.704 119.792 24H360C373.232 24 384 34.768 384 48ZM112 344H80V152H112V344ZM64 72V48C64 34.768 74.768 24 88 24C101.232 24 112 34.768 112 48V72H64ZM376 480C376 484.408 372.408 488 368 488H144C139.592 488 136 484.408 136 480C136 475.592 139.592 472 144 472H368C372.408 472 376 475.592 376 480ZM323.056 456H188.944L204.944 424H307.056L323.056 456ZM360 408C355.592 408 352 404.408 352 400C352 395.592 355.592 392 360 392H408C412.408 392 416 395.592 416 400C416 404.408 412.408 408 408 408H360ZM464 384C464 397.232 453.232 408 440 408H430.528C431.424 405.488 432 402.816 432 400C432 386.768 421.232 376 408 376H360C346.768 376 336 386.768 336 400C336 402.816 336.576 405.488 337.472 408H72C58.768 408 48 397.232 48 384V144C48 130.768 58.768 120 72 120H112V136H80C71.176 136 64 143.176 64 152V344C64 352.824 71.176 360 80 360H432C440.824 360 448 352.824 448 344V152C448 143.176 440.824 136 432 136H400V120H440C453.232 120 464 130.768 464 144V384Z" fill="black"/>
<path d="M80 376H96V392H80V376ZM112 376H128V392H112V376ZM144 376H160V392H144V376ZM312 248C316.408 248 320 251.592 320 256H336C335.984 251.053 334.438 246.232 331.573 242.198C328.708 238.165 324.666 235.117 320 233.472V216H304V232H288V256C288 269.232 298.768 280 312 280C316.408 280 320 283.592 320 288V296H312C307.592 296 304 292.408 304 288H288C288 298.416 294.712 307.216 304 310.528V328H320V312H336V288C336 274.768 325.232 264 312 264C307.592 264 304 260.408 304 256V248H312Z" fill="black"/>
<path d="M264 280C268.418 280 272 276.418 272 272C272 267.582 268.418 264 264 264C259.582 264 256 267.582 256 272C256 276.418 259.582 280 264 280Z" fill="black"/>
<path d="M360 280C364.418 280 368 276.418 368 272C368 267.582 364.418 264 360 264C355.582 264 352 267.582 352 272C352 276.418 355.582 280 360 280Z" fill="black"/>
<path d="M368 40H320V152H304V72H256V152H240V104H192V168H368V40ZM224 152H208V120H224V152ZM272 88H288V152H272V88ZM352 152H336V56H352V152ZM144 312H208V328H144V312ZM144 280H208V296H144V280ZM144 248H208V264H144V248ZM144 216H208V232H144V216ZM144 184H208V200H144V184ZM144 40H160V56H144V40ZM144 72H160V88H144V72ZM144 104H160V120H144V104Z" fill="black"/>
</svg>
