<svg width="512" height="512" viewBox="0 0 512 512" fill="none" xmlns="http://www.w3.org/2000/svg">
<path d="M288 16H496V176H288V16Z" fill="#7CCDF4"/>
<path d="M369.84 136C367.82 136.002 365.875 135.235 364.4 133.856L338.552 109.856L349.448 98.1436L369.84 117.088L450.552 42.1436L461.448 53.8556L375.288 133.856C373.808 135.233 371.861 135.999 369.84 136Z" fill="#33415C"/>
<path d="M384 224H400V240H384V224ZM384 256H400V272H384V256ZM384 192H400V208H384V192ZM384 288H400V304H384V288ZM384 320H400V336H384V320ZM352 320H368V336H352V320ZM320 320H336V336H320V320ZM288 320H304V336H288V320ZM256 320H272V336H256V320Z" fill="#FF6B6B"/>
<path d="M463.504 432.632C431.504 440.424 424.424 447.504 416.632 479.504C416.6 479.647 416.519 479.776 416.405 479.867C416.29 479.959 416.147 480.009 416 480.009C415.853 480.009 415.71 479.959 415.596 479.867C415.481 479.776 415.401 479.647 415.368 479.504C407.576 447.504 400.496 440.424 368.496 432.632C368.353 432.6 368.225 432.519 368.133 432.405C368.041 432.29 367.991 432.147 367.991 432C367.991 431.853 368.041 431.71 368.133 431.596C368.225 431.481 368.353 431.401 368.496 431.368C400.496 423.576 407.576 416.496 415.368 384.496C415.401 384.353 415.481 384.225 415.596 384.133C415.71 384.041 415.853 383.991 416 383.991C416.147 383.991 416.29 384.041 416.405 384.133C416.519 384.225 416.6 384.353 416.632 384.496C424.424 416.496 431.504 423.576 463.504 431.368C463.647 431.401 463.776 431.481 463.867 431.596C463.959 431.71 464.009 431.853 464.009 432C464.009 432.147 463.959 432.29 463.867 432.405C463.776 432.519 463.647 432.6 463.504 432.632ZM143.504 80.6321C111.504 88.4241 104.424 95.5041 96.6321 127.504C96.5996 127.647 96.5194 127.776 96.4046 127.867C96.2897 127.959 96.1471 128.009 96.0001 128.009C95.8531 128.009 95.7105 127.959 95.5956 127.867C95.4808 127.776 95.4006 127.647 95.3681 127.504C87.5761 95.5041 80.4961 88.4241 48.4961 80.6321C48.3527 80.5996 48.2247 80.5194 48.1329 80.4046C48.0412 80.2897 47.9912 80.1471 47.9912 80.0001C47.9912 79.8531 48.0412 79.7105 48.1329 79.5956C48.2247 79.4808 48.3527 79.4006 48.4961 79.3681C80.4961 71.5761 87.5761 64.4961 95.3681 32.4961C95.4006 32.3527 95.4808 32.2247 95.5956 32.1329C95.7105 32.0412 95.8531 31.9912 96.0001 31.9912C96.1471 31.9912 96.2897 32.0412 96.4046 32.1329C96.5194 32.2247 96.5996 32.3527 96.6321 32.4961C104.424 64.4961 111.504 71.5761 143.504 79.3681C143.647 79.4006 143.776 79.4808 143.867 79.5956C143.959 79.7105 144.009 79.8531 144.009 80.0001C144.009 80.1471 143.959 80.2897 143.867 80.4046C143.776 80.5194 143.647 80.5996 143.504 80.6321Z" fill="#7CCDF4"/>
<path d="M144 384H91.76C90.48 384 89.28 384 88 384.08H87.44C68.1218 385.191 49.9601 393.649 36.6773 407.72C23.3945 421.791 15.9967 440.41 16 459.76V496H256V459.76C256.003 440.41 248.605 421.791 235.323 407.72C222.04 393.649 203.878 385.191 184.56 384.08H184C182.72 384 181.52 384 180.24 384H144Z" fill="#5C677D"/>
<path d="M128 384H144L145.04 399.2L146.72 422.32L152 496H120L125.28 422.32L126.96 399.2L128 384Z" fill="#FF6B6B"/>
<path d="M144 384H88V384.08L88.08 384.32V384.4L100 448L125.28 422.32L136 411.44L146.72 422.32L172 448L183.92 384.4V384.32L184 384.08V384H180.24H144Z" fill="#7CCDF4"/>
<path d="M223.6 304H224V273.76C224 256.319 217.072 239.593 204.739 227.261C192.407 214.928 175.681 208 158.24 208H113.76C105.124 208 96.5731 209.701 88.5947 213.006C80.6164 216.31 73.367 221.154 67.2607 227.261C54.9283 239.593 48 256.319 48 273.76V304H223.6Z" fill="#2D3142"/>
<path d="M208 292.248C208 286.307 205.64 280.61 201.439 276.409C197.238 272.208 191.541 269.848 185.6 269.848H176L112 240L120 269.856H86.4C80.4592 269.856 74.7616 272.216 70.5608 276.417C66.36 280.618 64 286.315 64 292.256C59.8971 292.118 55.9071 293.614 52.907 296.416C49.9068 299.219 48.1419 303.097 48 307.2C48.1481 311.299 49.9155 315.173 52.9147 317.971C55.9139 320.769 59.9003 322.264 64 322.128V353.048C64.1141 359.553 66.1603 365.877 69.8783 371.217C73.5964 376.556 78.8183 380.669 84.88 383.032L116.504 396.144C122.684 398.707 129.309 400.026 136 400.026C142.691 400.026 149.316 398.707 155.496 396.144L187.12 383.032C193.185 380.667 198.41 376.551 202.128 371.207C205.847 365.863 207.891 359.533 208 353.024V322.104C212.096 322.24 216.079 320.749 219.077 317.955C222.076 315.162 223.846 311.295 224 307.2C223.86 303.096 222.096 299.215 219.096 296.411C216.095 293.607 212.104 292.11 208 292.248Z" fill="#FEC3A6"/>
</svg>
