<svg width="512" height="512" viewBox="0 0 512 512" fill="none" xmlns="http://www.w3.org/2000/svg">
<g clip-path="url(#clip0_62_2)">
<path d="M256 0C114.62 0 0 114.58 0 256C0 397.42 114.62 512 256 512C397.38 512 512 397.35 512 256C512 114.65 397.38 0 256 0Z" fill="#2AD352"/>
<path d="M0.000237741 256C-0.0575515 298.315 10.4209 339.978 30.4902 377.23C56.059 384.737 82.5722 388.539 109.22 388.52C263.12 388.52 387.88 263.76 387.88 109.86C387.903 82.7898 383.982 55.8603 376.24 29.9204C339.232 10.2076 297.931 -0.0694735 256 0.000353461C114.62 0.000353461 0.000237741 114.58 0.000237741 256Z" fill="#74DA7F"/>
<path d="M402 213.581L248.13 375.171C243.937 379.57 238.899 383.077 233.318 385.483C227.737 387.888 221.728 389.143 215.65 389.171H215.45C209.407 389.172 203.424 387.96 197.859 385.604C192.293 383.249 187.257 379.8 183.05 375.461L101.4 291.361C97.1815 287.126 93.8458 282.095 91.5868 276.561C89.3278 271.027 88.1905 265.099 88.2409 259.122C88.2912 253.144 89.5283 247.237 91.8802 241.741C94.2321 236.246 97.6521 231.272 101.942 227.109C106.231 222.946 111.305 219.677 116.868 217.49C122.431 215.304 128.373 214.244 134.35 214.373C140.326 214.501 146.217 215.815 151.681 218.239C157.145 220.662 162.074 224.147 166.18 228.491L215.13 278.911L336.62 151.331C340.69 146.967 345.585 143.453 351.021 140.993C356.457 138.533 362.328 137.175 368.292 136.997C374.257 136.82 380.197 137.827 385.77 139.961C391.343 142.094 396.437 145.311 400.759 149.426C405.08 153.54 408.543 158.471 410.947 163.933C413.351 169.394 414.648 175.278 414.764 181.244C414.879 187.21 413.811 193.14 411.62 198.69C409.429 204.241 406.159 209.302 402 213.581Z" fill="white"/>
</g>
<defs>
<clipPath id="clip0_62_2">
<rect width="512" height="512" fill="white"/>
</clipPath>
</defs>
</svg>
