<svg width="512" height="512" viewBox="0 0 512 512" fill="none" xmlns="http://www.w3.org/2000/svg">
<g clip-path="url(#clip0_78_2)">
<path d="M453.319 85.0888C453.319 66.4278 438.19 51.3008 419.529 51.3008H33.789C15.13 51.3008 0 66.4288 0 85.0888V470.827C0 480.485 4.059 489.189 10.556 495.347H419.529V504.616H478.715C493.257 504.616 505.653 495.428 510.417 482.54C514.365 472.105 515.761 492.056 453.319 85.0888Z" fill="#BABABA"/>
<path d="M473.952 470.828V219.568L453.319 85.0888C453.319 66.4278 438.19 51.3008 419.529 51.3008H54.4238C35.7648 51.3008 20.6348 66.4278 20.6348 85.0888V470.827C20.6348 480.485 24.6938 489.189 31.1908 495.347H419.531V504.616H440.164C458.823 504.617 473.952 489.49 473.952 470.828Z" fill="#A8A8A8"/>
<path d="M419.529 51.3008H33.789C15.13 51.3008 0 66.4288 0 85.0888V470.827C0 489.489 15.13 504.616 33.789 504.616H419.528C438.189 504.616 453.318 489.489 453.318 470.827V85.0888C453.319 66.4288 438.189 51.3008 419.529 51.3008Z" fill="#E6E6E6"/>
<path d="M20.633 470.828V85.0888C20.633 66.4278 35.763 51.3008 54.422 51.3008H33.789C15.13 51.3008 0 66.4288 0 85.0888V470.827C0 489.489 15.13 504.616 33.789 504.616H54.422C35.764 504.617 20.633 489.49 20.633 470.828Z" fill="#CCCBCA"/>
<path d="M419.529 51.3008H33.789C15.13 51.3008 0 66.4288 0 85.0888V171.885H453.319V85.0888C453.319 66.4288 438.189 51.3008 419.529 51.3008Z" fill="#EA473B"/>
<path d="M20.633 85.0888C20.633 66.4278 35.763 51.3008 54.422 51.3008H33.789C15.13 51.3008 0 66.4288 0 85.0888V171.885H20.633V85.0888Z" fill="#D63322"/>
<path d="M361.838 81.5088V88.5428C361.838 95.3808 356.296 95.7648 349.458 95.7648H345.331C338.494 95.7648 332.951 95.3808 332.951 88.5428V81.5098C326.405 86.0778 322.118 93.6598 322.118 102.248C322.118 116.208 333.435 127.524 347.394 127.524C372.151 127.523 381.985 95.5688 361.838 81.5088ZM233.911 81.5088V88.5428C233.911 95.3808 228.369 94.7328 221.531 94.7328H217.404C210.567 94.7328 205.024 95.3808 205.024 88.5428V81.5098C198.478 86.0778 194.191 93.6598 194.191 102.248C194.191 116.208 205.508 127.524 219.467 127.524C233.427 127.524 244.743 116.208 244.743 102.248C244.743 93.6598 240.456 86.0768 233.911 81.5088ZM105.984 81.5088V88.5428C105.984 96.5148 98.4808 95.7648 89.4768 95.7648C82.6398 95.7648 77.0968 95.3808 77.0968 88.5428V81.5098C56.9298 95.5838 66.8148 127.524 91.5398 127.524C105.5 127.524 116.816 116.208 116.816 102.248C116.816 93.6598 112.529 86.0768 105.984 81.5088Z" fill="#414356"/>
<path d="M343.784 102.248C343.784 101.769 343.802 101.295 343.828 100.823C337.701 100.08 332.951 94.8708 332.951 88.5428V81.5098C326.405 86.0778 322.118 93.6598 322.118 102.248C322.118 116.208 333.435 127.524 347.394 127.524C351.271 127.524 354.943 126.649 358.227 125.088C349.688 121.031 343.784 112.33 343.784 102.248ZM215.857 102.248C215.857 101.769 215.875 101.295 215.901 100.823C209.774 100.08 205.024 94.8708 205.024 88.5428V81.5098C198.478 86.0778 194.191 93.6598 194.191 102.248C194.191 116.208 205.508 127.524 219.467 127.524C223.344 127.524 227.016 126.649 230.3 125.088C221.761 121.031 215.857 112.33 215.857 102.248ZM87.9737 100.823C81.8467 100.08 77.0967 94.8708 77.0967 88.5428V81.5098C70.5507 86.0778 66.2637 93.6598 66.2637 102.248C66.2637 120.864 85.7077 133.007 102.372 125.088C93.3177 120.785 87.3877 111.38 87.9737 100.823Z" fill="#2F3242"/>
<path d="M0 171.881H453.32V200.768H0V171.881Z" fill="#F77C79"/>
<path d="M0 171.881H20.633V200.768H0V171.881Z" fill="#DD6464"/>
<path d="M93.6027 7.38477C100.441 7.38477 105.983 12.9278 105.983 19.7648V88.5428C105.983 95.3808 100.441 100.923 93.6027 100.923H89.4757C82.6387 100.923 77.0957 95.3808 77.0957 88.5428V19.7648C77.0957 12.9278 82.6387 7.38477 89.4757 7.38477H93.6027ZM221.53 7.38477C228.368 7.38477 233.91 12.9278 233.91 19.7648V88.5428C233.91 95.3808 228.368 100.923 221.53 100.923H217.403C210.566 100.923 205.023 95.3808 205.023 88.5428V19.7648C205.023 12.9278 210.566 7.38477 217.403 7.38477H221.53ZM349.457 7.38477C356.295 7.38477 361.837 12.9278 361.837 19.7648V88.5428C361.837 95.3808 356.295 100.923 349.457 100.923H345.33C338.493 100.923 332.95 95.3808 332.95 88.5428V19.7648C332.95 12.9278 338.493 7.38477 345.33 7.38477H349.457Z" fill="#585A60"/>
<path d="M93.6027 7.38477C100.441 7.38477 105.983 12.9278 105.983 19.7648V88.5428C105.983 95.3808 100.441 100.923 93.6027 100.923H89.4757C82.6387 100.923 77.0957 95.3808 77.0957 88.5428V19.7648C77.0957 12.9278 82.6387 7.38477 89.4757 7.38477H93.6027ZM221.53 7.38477C228.368 7.38477 233.91 12.9278 233.91 19.7648V88.5428C233.91 95.3808 228.368 100.923 221.53 100.923H217.403C210.566 100.923 205.023 95.3808 205.023 88.5428V19.7648C205.023 12.9278 210.566 7.38477 217.403 7.38477H221.53ZM349.457 7.38477C356.295 7.38477 361.837 12.9278 361.837 19.7648V88.5428C361.837 95.3808 356.295 100.923 349.457 100.923H345.33C338.493 100.923 332.95 95.3808 332.95 88.5428V19.7648C332.95 12.9278 338.493 7.38477 345.33 7.38477H349.457Z" fill="#585A60"/>
<path d="M91.5387 88.5428V19.7648C91.5387 14.7708 94.5027 10.4788 98.7607 8.52077C97.1437 7.77368 95.3839 7.38611 93.6027 7.38477H89.4757C82.6387 7.38477 77.0957 12.9278 77.0957 19.7648V88.5428C77.0957 95.3808 82.6387 100.923 89.4757 100.923H93.6027C95.4467 100.923 97.1897 100.509 98.7607 99.7868C94.5027 97.8298 91.5387 93.5368 91.5387 88.5428ZM219.466 88.5428V19.7648C219.466 14.7708 222.43 10.4788 226.688 8.52077C225.071 7.77368 223.311 7.38611 221.53 7.38477H217.403C210.566 7.38477 205.023 12.9278 205.023 19.7648V88.5428C205.023 95.3808 210.566 100.923 217.403 100.923H221.53C223.374 100.923 225.117 100.509 226.688 99.7868C222.43 97.8298 219.466 93.5368 219.466 88.5428ZM347.393 88.5428V19.7648C347.393 14.7708 350.357 10.4788 354.615 8.52077C352.998 7.77368 351.238 7.38611 349.457 7.38477H345.33C338.493 7.38477 332.95 12.9278 332.95 19.7648V88.5428C332.95 95.3808 338.493 100.923 345.33 100.923H349.457C351.301 100.923 353.044 100.509 354.615 99.7868C350.357 97.8298 347.393 93.5368 347.393 88.5428Z" fill="#414356"/>
<path d="M168.606 248.179H143.132C141.08 248.179 139.112 248.994 137.661 250.445C136.209 251.896 135.394 253.864 135.394 255.917C135.394 257.969 136.209 259.937 137.661 261.388C139.112 262.839 141.08 263.655 143.132 263.655H168.606C170.658 263.655 172.627 262.839 174.078 261.388C175.529 259.937 176.344 257.969 176.344 255.917C176.344 253.864 175.529 251.896 174.078 250.445C172.627 248.994 170.658 248.179 168.606 248.179ZM239.427 248.179H213.95C211.898 248.179 209.93 248.994 208.479 250.445C207.027 251.896 206.212 253.864 206.212 255.917C206.212 257.969 207.027 259.937 208.479 261.388C209.93 262.839 211.898 263.655 213.95 263.655H239.427C241.458 263.622 243.394 262.792 244.819 261.345C246.243 259.897 247.042 257.948 247.042 255.917C247.042 253.886 246.243 251.936 244.819 250.489C243.394 249.041 241.458 248.211 239.427 248.179ZM310.247 248.179H284.769C282.717 248.179 280.749 248.994 279.298 250.445C277.846 251.896 277.031 253.864 277.031 255.917C277.031 257.969 277.846 259.937 279.298 261.388C280.749 262.839 282.717 263.655 284.769 263.655H310.247C312.299 263.655 314.268 262.839 315.719 261.388C317.17 259.937 317.985 257.969 317.985 255.917C317.985 253.864 317.17 251.896 315.719 250.445C314.268 248.994 312.299 248.179 310.247 248.179ZM381.065 248.179H355.588C353.536 248.179 351.568 248.994 350.117 250.445C348.665 251.896 347.85 253.864 347.85 255.917C347.85 257.969 348.665 259.937 350.117 261.388C351.568 262.839 353.536 263.655 355.588 263.655H381.065C383.096 263.622 385.032 262.792 386.457 261.345C387.881 259.897 388.68 257.948 388.68 255.917C388.68 253.886 387.881 251.936 386.457 250.489C385.032 249.041 383.096 248.211 381.065 248.179ZM97.7892 310.519H72.3122C70.26 310.519 68.2918 311.334 66.8406 312.785C65.3895 314.236 64.5742 316.204 64.5742 318.257C64.5742 320.309 65.3895 322.277 66.8406 323.728C68.2918 325.179 70.26 325.995 72.3122 325.995H97.7892C99.8415 325.995 101.81 325.179 103.261 323.728C104.712 322.277 105.527 320.309 105.527 318.257C105.527 316.204 104.712 314.236 103.261 312.785C101.81 311.334 99.8415 310.519 97.7892 310.519ZM168.606 310.519H143.132C141.08 310.519 139.112 311.334 137.661 312.785C136.209 314.236 135.394 316.204 135.394 318.257C135.394 320.309 136.209 322.277 137.661 323.728C139.112 325.179 141.08 325.995 143.132 325.995H168.606C169.622 325.995 170.629 325.795 171.568 325.406C172.506 325.017 173.36 324.447 174.078 323.729C174.797 323.01 175.367 322.157 175.755 321.218C176.144 320.279 176.344 319.273 176.344 318.257C176.344 317.24 176.144 316.234 175.755 315.295C175.367 314.356 174.797 313.503 174.078 312.785C173.36 312.066 172.506 311.496 171.568 311.107C170.629 310.719 169.622 310.519 168.606 310.519ZM239.427 310.519H213.95C211.898 310.519 209.93 311.334 208.479 312.785C207.027 314.236 206.212 316.204 206.212 318.257C206.212 320.309 207.027 322.277 208.479 323.728C209.93 325.179 211.898 325.995 213.95 325.995H239.427C241.479 325.995 243.448 325.179 244.899 323.728C246.35 322.277 247.165 320.309 247.165 318.257C247.165 316.204 246.35 314.236 244.899 312.785C243.448 311.334 241.479 310.519 239.427 310.519ZM310.247 310.519H284.769C282.717 310.519 280.749 311.334 279.298 312.785C277.846 314.236 277.031 316.204 277.031 318.257C277.031 320.309 277.846 322.277 279.298 323.728C280.749 325.179 282.717 325.995 284.769 325.995H310.247C312.299 325.995 314.268 325.179 315.719 323.728C317.17 322.277 317.985 320.309 317.985 318.257C317.985 316.204 317.17 314.236 315.719 312.785C314.268 311.334 312.299 310.519 310.247 310.519ZM381.065 310.519H355.588C353.536 310.519 351.568 311.334 350.117 312.785C348.665 314.236 347.85 316.204 347.85 318.257C347.85 320.309 348.665 322.277 350.117 323.728C351.568 325.179 353.536 325.995 355.588 325.995H381.065C383.117 325.995 385.086 325.179 386.537 323.728C387.988 322.277 388.803 320.309 388.803 318.257C388.803 316.204 387.988 314.236 386.537 312.785C385.086 311.334 383.117 310.519 381.065 310.519ZM97.7892 372.859H72.3122C70.26 372.859 68.2918 373.674 66.8406 375.125C65.3895 376.576 64.5742 378.544 64.5742 380.597C64.5742 382.649 65.3895 384.617 66.8406 386.068C68.2918 387.519 70.26 388.335 72.3122 388.335H97.7892C102.063 388.335 105.527 384.871 105.527 380.597C105.527 376.323 102.063 372.859 97.7892 372.859ZM168.606 372.859H143.132C141.08 372.859 139.112 373.674 137.661 375.125C136.209 376.576 135.394 378.544 135.394 380.597C135.394 382.649 136.209 384.617 137.661 386.068C139.112 387.519 141.08 388.335 143.132 388.335H168.606C172.88 388.335 176.344 384.871 176.344 380.597C176.344 376.323 172.88 372.859 168.606 372.859ZM239.427 372.859H213.95C211.898 372.859 209.93 373.674 208.479 375.125C207.027 376.576 206.212 378.544 206.212 380.597C206.212 382.649 207.027 384.617 208.479 386.068C209.93 387.519 211.898 388.335 213.95 388.335H239.427C243.701 388.335 247.165 384.871 247.165 380.597C247.165 376.323 243.701 372.859 239.427 372.859ZM310.247 372.859H284.769C282.717 372.859 280.749 373.674 279.298 375.125C277.846 376.576 277.031 378.544 277.031 380.597C277.031 382.649 277.846 384.617 279.298 386.068C280.749 387.519 282.717 388.335 284.769 388.335H310.247C312.299 388.335 314.268 387.519 315.719 386.068C317.17 384.617 317.985 382.649 317.985 380.597C317.985 378.544 317.17 376.576 315.719 375.125C314.268 373.674 312.299 372.859 310.247 372.859ZM381.065 372.859H355.588C353.536 372.859 351.568 373.674 350.117 375.125C348.665 376.576 347.85 378.544 347.85 380.597C347.85 382.649 348.665 384.617 350.117 386.068C351.568 387.519 353.536 388.335 355.588 388.335H381.065C385.339 388.335 388.803 384.871 388.803 380.597C388.803 376.323 385.339 372.859 381.065 372.859ZM97.7892 435.2H72.3122C70.26 435.2 68.2918 436.015 66.8406 437.466C65.3895 438.917 64.5742 440.885 64.5742 442.938C64.5742 444.99 65.3895 446.958 66.8406 448.409C68.2918 449.86 70.26 450.676 72.3122 450.676H97.7892C99.8415 450.676 101.81 449.86 103.261 448.409C104.712 446.958 105.527 444.99 105.527 442.938C105.527 440.885 104.712 438.917 103.261 437.466C101.81 436.015 99.8415 435.2 97.7892 435.2ZM168.606 435.2H143.132C141.08 435.2 139.112 436.015 137.661 437.466C136.209 438.917 135.394 440.885 135.394 442.938C135.394 444.99 136.209 446.958 137.661 448.409C139.112 449.86 141.08 450.676 143.132 450.676H168.606C169.622 450.676 170.629 450.476 171.568 450.087C172.506 449.698 173.36 449.128 174.078 448.41C174.797 447.691 175.367 446.838 175.755 445.899C176.144 444.96 176.344 443.954 176.344 442.938C176.344 441.921 176.144 440.915 175.755 439.976C175.367 439.037 174.797 438.184 174.078 437.466C173.36 436.747 172.506 436.177 171.568 435.788C170.629 435.4 169.622 435.2 168.606 435.2ZM239.427 435.2H213.95C211.898 435.2 209.93 436.015 208.479 437.466C207.027 438.917 206.212 440.885 206.212 442.938C206.212 444.99 207.027 446.958 208.479 448.409C209.93 449.86 211.898 450.676 213.95 450.676H239.427C241.479 450.676 243.448 449.86 244.899 448.409C246.35 446.958 247.165 444.99 247.165 442.938C247.165 440.885 246.35 438.917 244.899 437.466C243.448 436.015 241.479 435.2 239.427 435.2ZM310.247 435.2H284.769C282.717 435.2 280.749 436.015 279.298 437.466C277.846 438.917 277.031 440.885 277.031 442.938C277.031 444.99 277.846 446.958 279.298 448.409C280.749 449.86 282.717 450.676 284.769 450.676H310.247C312.299 450.676 314.268 449.86 315.719 448.409C317.17 446.958 317.985 444.99 317.985 442.938C317.985 440.885 317.17 438.917 315.719 437.466C314.268 436.015 312.299 435.2 310.247 435.2Z" fill="#585A60"/>
</g>
<defs>
<clipPath id="clip0_78_2">
<rect width="512" height="512" fill="white"/>
</clipPath>
</defs>
</svg>
