<svg xmlns="http://www.w3.org/2000/svg" version="1.1" xmlns:xlink="http://www.w3.org/1999/xlink" width="512" height="512" x="0" y="0" viewBox="0 0 64 64" style="enable-background:new 0 0 512 512" xml:space="preserve" class=""><g><path fill="#73a8f8" d="M55 27H37a7 7 0 0 0-7 7v11l5 3v12h22V48l5-3V34a7 7 0 0 0-7-7z" opacity="1" data-original="#73a8f8"></path><path fill="#f2d0c5" d="M43 22h6v5a3.001 3.001 0 0 1-6 0z" opacity="1" data-original="#f2d0c5"></path><path fill="#5996ef" d="M56.25 45.75a.75.75 0 0 1-.75-.75v-9a.75.75 0 0 1 1.5 0v9a.75.75 0 0 1-.75.75zM35.75 45.75A.75.75 0 0 1 35 45v-9a.75.75 0 0 1 1.5 0v9a.75.75 0 0 1-.75.75z" opacity="1" data-original="#5996ef"></path><path fill="#646e78" d="M52 36.615V36H40v.615A7.954 7.954 0 0 1 35 44v16h22V44a7.954 7.954 0 0 1-5-7.385z" opacity="1" data-original="#646e78"></path><path fill="#f2d0c5" d="M30 40v10l3 10h4l-2-11v-9zM62 40v10l-3 10h-4l2-11v-9z" opacity="1" data-original="#f2d0c5"></path><path fill="#646e78" d="M32 60H2v-8h30z" opacity="1" data-original="#646e78"></path><path fill="#737d8c" d="M33 60H16v-8h17z" opacity="1" data-original="#737d8c"></path><path fill="#f54164" d="M16 52h17v-1a3 3 0 0 0-3-3H16v4z" opacity="1" data-original="#f54164"></path><path fill="#ea3250" d="M27 48H8l-3-8h19a3 3 0 0 1 3 3z" opacity="1" data-original="#ea3250"></path><path fill="#ff5f82" d="M9 43v5h7v4H2V40h4a3 3 0 0 1 3 3z" opacity="1" data-original="#ff5f82"></path><path fill="#a5afb9" d="M11 40H8v-4h3z" opacity="1" data-original="#a5afb9"></path><path fill="#ebf5ff" d="M24 45.016h-6V35h6z" opacity="1" data-original="#ebf5ff"></path><path fill="#bef5ff" d="M15 36H7v-8h8z" opacity="1" data-original="#bef5ff"></path><path fill="#f54164" d="M7 36H4v-8h3z" opacity="1" data-original="#f54164"></path><path fill="#b4bec8" d="M1 60h62v3H1z" opacity="1" data-original="#b4bec8"></path><path fill="#a5afb9" d="M3 61.5h60V63H3z" opacity="1" data-original="#a5afb9"></path><path fill="#fff082" d="M43 1h6c3.863 0 7 3.137 7 7v2c0 4.415-3.585 8-8 8h-4c-4.415 0-8-3.585-8-8V8c0-3.863 3.137-7 7-7z" opacity="1" data-original="#fff082"></path><path fill="#ffdc64" d="M54.846 4.154A6.96 6.96 0 0 0 51 3h-6a7 7 0 0 0-7 7v1a4 4 0 0 0 4 4h12.24A7.963 7.963 0 0 0 56 10V8a6.963 6.963 0 0 0-1.154-3.846z" opacity="1" data-original="#ffdc64"></path><path fill="#fce4d2" d="M53 12h-2c-3.148 0-6.111-1.482-8-4a6.325 6.325 0 0 1-4 4v6a7 7 0 1 0 14 0z" opacity="1" data-original="#fce4d2" class=""></path><g fill="#f2d0c5"><path d="M39 18h-1a2 2 0 0 1 0-4h1zM53 14h1a2 2 0 0 1 0 4h-1z" fill="#f2d0c5" opacity="1" data-original="#f2d0c5"></path></g><path d="M49.5 16.75a.75.75 0 0 0 .75-.75v-1a.75.75 0 0 0-1.5 0v1c0 .414.336.75.75.75zM42.5 14.25a.75.75 0 0 0-.75.75v1a.75.75 0 0 0 1.5 0v-1a.75.75 0 0 0-.75-.75zM48.219 21.33a.75.75 0 1 0-1.061-1.061 1.639 1.639 0 0 1-2.316 0 .75.75 0 1 0-1.061 1.061c.611.612 1.415.917 2.219.917s1.607-.306 2.219-.917z" fill="#000000" opacity="1" data-original="#000000" class=""></path><path d="M63 59.25h-2.992l2.71-9.035A.752.752 0 0 0 62.75 50V34c0-4.273-3.477-7.75-7.75-7.75h-5.25v-1.473a7.76 7.76 0 0 0 3.962-6.027H54A2.752 2.752 0 0 0 56.75 16c0-.831-.378-1.567-.962-2.072A8.688 8.688 0 0 0 56.75 10V8c0-4.273-3.477-7.75-7.75-7.75h-6c-4.273 0-7.75 3.477-7.75 7.75v2c0 1.368.343 2.706.962 3.928A2.733 2.733 0 0 0 35.25 16 2.752 2.752 0 0 0 38 18.75h.288a7.755 7.755 0 0 0 3.962 6.027v1.473H37c-4.273 0-7.75 3.477-7.75 7.75v13.25h-1.5V43a3.755 3.755 0 0 0-3-3.674V35a.75.75 0 0 0-.75-.75h-6a.75.75 0 0 0-.75.75v4.25h-5.5v-2.5H15a.75.75 0 0 0 .75-.75v-8a.75.75 0 0 0-.75-.75H4a.75.75 0 0 0-.75.75v8c0 .414.336.75.75.75h3.25v2.5H2a.75.75 0 0 0-.75.75v19.25H1a.75.75 0 0 0-.75.75v3c0 .414.336.75.75.75h62a.75.75 0 0 0 .75-.75v-3a.75.75 0 0 0-.75-.75zm-56.75-24h-1.5v-6.5h1.5zm55 14.64-2.808 9.36h-2.544l1.839-10.116a.75.75 0 0 0 .012-.134v-8.25h3.5v9.14zm-8.5-22.14H55A6.257 6.257 0 0 1 61.25 34v5.25h-3.5V36a.75.75 0 0 0-1.5 0v6.792a7.162 7.162 0 0 1-3.5-6.177zM54 17.25h-.25v-2.5H54c.689 0 1.25.561 1.25 1.25s-.561 1.25-1.25 1.25zm-15.75 0H38c-.689 0-1.25-.561-1.25-1.25s.561-1.25 1.25-1.25h.25zm0-5.25v1.25H38c-.148 0-.29.021-.432.044A7.207 7.207 0 0 1 36.75 10V8A6.257 6.257 0 0 1 43 1.75h6A6.257 6.257 0 0 1 55.25 8v2a7.207 7.207 0 0 1-.818 3.294A2.68 2.68 0 0 0 54 13.25h-.25V12a.75.75 0 0 0-.75-.75h-2a9.294 9.294 0 0 1-7.4-3.7.75.75 0 0 0-1.312.213 5.602 5.602 0 0 1-3.525 3.526.75.75 0 0 0-.513.711zm1.5 6v-5.482a7.128 7.128 0 0 0 3.453-3.119A10.81 10.81 0 0 0 51 12.75h1.25V18c0 3.446-2.804 6.25-6.25 6.25s-6.25-2.804-6.25-6.25zm8.5 7.414V27c0 1.241-1.009 2.25-2.25 2.25s-2.25-1.009-2.25-2.25v-1.586a7.71 7.71 0 0 0 4.5 0zm-7.5 2.336h1.576c.348 1.71 1.863 3 3.674 3s3.326-1.29 3.674-3h1.576v7.5h-10.5zm10.501 9c.051 3.348 1.993 6.301 4.999 7.716v4.467L54.374 59.25H37.626L35.75 48.933v-4.467c3.006-1.415 4.948-4.368 4.999-7.716zM30.75 34A6.257 6.257 0 0 1 37 27.75h2.25v8.865a7.162 7.162 0 0 1-3.5 6.177V36a.75.75 0 0 0-1.5 0v3.25h-3.5zm0 6.75h3.5V49c0 .045.004.09.012.134l1.839 10.116H33.75V51a3.755 3.755 0 0 0-3-3.674zm-.75 8A2.252 2.252 0 0 1 32.25 51v.25h-15.5v-2.5zm2.25 4v6.5h-15.5v-6.5zm-13.5-17h4.5v8.516h-4.5zm-1.5 5v4.266c0 .414.336.75.75.75h6a.75.75 0 0 0 .75-.75v-4.128A2.247 2.247 0 0 1 26.25 43v4.25H9.75V43c0-.847-.293-1.621-.769-2.25zm-8.5-1.5v-2.5h1.5v2.5zm-1-10.5h6.5v6.5h-6.5zm-5 12H6A2.252 2.252 0 0 1 8.25 43v5c0 .414.336.75.75.75h6.25v2.5H2.75zm0 12h12.5v6.5H2.75zm59.5 9.5H1.75v-1.5h60.5z" fill="#000000" opacity="1" data-original="#000000" class=""></path><path d="M22 57.75h5a.75.75 0 0 0 .75-.75v-2a.75.75 0 0 0-1.5 0v1.25h-3.5V55a.75.75 0 0 0-1.5 0v2c0 .414.336.75.75.75z" fill="#000000" opacity="1" data-original="#000000" class=""></path></g></svg>