<svg width="512" height="512" viewBox="0 0 512 512" fill="none" xmlns="http://www.w3.org/2000/svg">
<g clip-path="url(#clip0_83_2)">
<path d="M408.422 195.571H103.578C95.4206 195.571 88.8086 188.959 88.8086 180.802V14.769C88.8086 6.612 95.4216 0 103.578 0H408.422C416.579 0 423.191 6.612 423.191 14.769V180.802C423.191 188.959 416.578 195.571 408.422 195.571Z" fill="#0CC166"/>
<path d="M411.332 224.715H100.666C92.3542 224.715 85.6152 217.977 85.6152 209.664V40.4612C85.6152 32.1492 92.3532 25.4102 100.666 25.4102H411.331C419.643 25.4102 426.382 32.1482 426.382 40.4612V209.665C426.382 217.977 419.644 224.715 411.332 224.715Z" fill="#29E088"/>
<path d="M72.416 251.662H439.583V489.557H72.416V251.662Z" fill="#2C332F"/>
<path d="M429.017 66.0974V237.916C429.017 246.363 422.183 253.206 413.747 253.286H98.2844C89.8274 253.206 82.9844 246.362 82.9844 237.916V66.0974C82.9844 57.6604 89.8274 50.8174 98.2744 50.8174H413.737C422.183 50.8174 429.017 57.6604 429.017 66.0974Z" fill="#79FF79"/>
<path d="M429.017 66.0974V237.916C429.017 246.363 422.183 253.206 413.747 253.286H98.2844C89.8274 253.206 82.9844 246.362 82.9844 237.916V135.043L82.9944 135.023C113.695 177.427 163.613 205.021 219.974 205.021C308.328 205.021 380.842 137.227 388.336 50.8174H413.736C422.183 50.8174 429.017 57.6604 429.017 66.0974Z" fill="#29E088"/>
<path d="M429.017 66.0974V237.916C429.017 246.363 422.183 253.206 413.747 253.286H254.252C338.067 233.357 404.078 154.892 404.078 66.0464C404.078 60.9164 403.868 55.8364 403.467 50.8164H413.737C422.183 50.8174 429.017 57.6604 429.017 66.0974Z" fill="#0CC166"/>
<path d="M405.14 241.017C405.14 247.793 399.647 253.286 392.871 253.286H323.183C316.407 253.286 310.914 247.793 310.914 241.017C310.914 234.241 316.407 228.748 323.183 228.748H392.871C399.646 228.748 405.14 234.241 405.14 241.017Z" fill="#29E088"/>
<path d="M379.668 241.017C379.668 247.793 374.175 253.286 367.399 253.286H347.88C341.104 253.286 335.611 247.793 335.611 241.017C335.611 234.241 341.104 228.748 347.88 228.748H367.399C374.175 228.748 379.668 234.241 379.668 241.017Z" fill="#79FF79"/>
<path d="M404.566 130.543V221.107C404.566 223.134 403.761 225.078 402.328 226.511C400.895 227.944 398.951 228.749 396.924 228.749H157.277C153.984 228.749 150.754 226.108 149.986 222.906C146.787 209.57 137.877 198.453 125.996 192.268C122.466 190.434 119.623 187.5 118.003 183.862H117.995C117.279 182.252 116.218 180.818 114.887 179.662C113.556 178.506 111.988 177.656 110.292 177.172C108.623 176.695 107.441 175.216 107.441 173.48V82.9154C107.441 80.8887 108.247 78.9449 109.68 77.5117C111.113 76.0786 113.057 75.2734 115.083 75.2734H357.7C359.535 75.2734 361.131 76.5744 361.451 78.3814C364.028 92.9264 373.326 105.151 386.011 111.754C389.542 113.588 392.384 116.522 394.004 120.16H394.012C394.729 121.771 395.79 123.205 397.121 124.361C398.451 125.516 400.019 126.366 401.714 126.85C403.385 127.327 404.566 128.807 404.566 130.543Z" fill="#12ADB5"/>
<path d="M404.565 130.54V221.109C404.565 222.112 404.367 223.105 403.984 224.032C403.6 224.958 403.038 225.8 402.329 226.509C401.62 227.218 400.778 227.78 399.852 228.164C398.925 228.547 397.932 228.745 396.93 228.744H157.275C153.989 228.744 150.753 226.109 149.982 222.903C146.786 209.567 137.878 198.455 125.995 192.273C122.468 190.439 119.623 187.504 117.999 183.866C117.282 182.241 116.21 180.796 114.863 179.638C113.536 178.495 111.977 177.654 110.294 177.173C108.621 176.692 107.438 175.219 107.438 173.476V162.113C137.326 188.796 176.744 205.018 219.969 205.018C289.246 205.018 348.783 163.336 374.875 103.688C378.173 106.905 381.924 109.623 386.008 111.754C389.545 113.588 392.39 116.523 394.003 120.161H394.013C394.731 121.772 395.793 123.206 397.124 124.362C398.455 125.519 400.023 126.369 401.719 126.854C403.382 127.324 404.565 128.807 404.565 130.54Z" fill="#0D8BA0"/>
<path d="M404.568 130.544V221.113C404.568 223.138 403.764 225.08 402.332 226.512C400.9 227.944 398.958 228.748 396.933 228.748H312.025C350.752 204.2 380.941 166.204 395.159 122.188C396.748 124.45 399.065 126.098 401.722 126.857C403.386 127.328 404.568 128.811 404.568 130.544Z" fill="#02718C"/>
<path d="M178.898 111.501H138.693C132.769 111.501 127.967 106.699 127.967 100.775C127.967 94.8508 132.769 90.0488 138.693 90.0488H178.898C184.822 90.0488 189.624 94.8508 189.624 100.775C189.624 106.699 184.821 111.501 178.898 111.501Z" fill="#C2FFC2"/>
<path d="M167.241 90.0498H156.197C150.273 90.0498 145.471 94.8518 145.471 100.776C145.471 106.7 150.273 111.502 156.197 111.502H167.241C173.165 111.502 177.967 106.7 177.967 100.776C177.966 94.8518 173.164 90.0498 167.241 90.0498Z" fill="#EEFFEE"/>
<path d="M373.314 213.972H333.109C327.185 213.972 322.383 209.17 322.383 203.246C322.383 197.322 327.185 192.52 333.109 192.52H373.314C379.238 192.52 384.04 197.322 384.04 203.246C384.04 209.17 379.238 213.972 373.314 213.972Z" fill="#C2FFC2"/>
<path d="M363.74 192.52H355.281C349.357 192.52 344.555 197.322 344.555 203.246C344.555 209.17 349.357 213.972 355.281 213.972H363.74C369.664 213.972 374.466 209.17 374.466 203.246C374.465 197.323 369.663 192.52 363.74 192.52Z" fill="#EEFFEE"/>
<path d="M395.326 99.0028C403.171 99.0028 409.531 92.643 409.531 84.7978C409.531 76.9526 403.171 70.5928 395.326 70.5928C387.481 70.5928 381.121 76.9526 381.121 84.7978C381.121 92.643 387.481 99.0028 395.326 99.0028Z" fill="#C2FFC2"/>
<path d="M390.979 94.6564C396.424 94.6564 400.837 90.2428 400.837 84.7984C400.837 79.354 396.424 74.9404 390.979 74.9404C385.535 74.9404 381.121 79.354 381.121 84.7984C381.121 90.2428 385.535 94.6564 390.979 94.6564Z" fill="#EEFFEE"/>
<path d="M116.68 233.429C124.525 233.429 130.885 227.069 130.885 219.224C130.885 211.378 124.525 205.019 116.68 205.019C108.834 205.019 102.475 211.378 102.475 219.224C102.475 227.069 108.834 233.429 116.68 233.429Z" fill="#C2FFC2"/>
<path d="M112.333 229.082C117.777 229.082 122.191 224.669 122.191 219.224C122.191 213.78 117.777 209.366 112.333 209.366C106.888 209.366 102.475 213.78 102.475 219.224C102.475 224.669 106.888 229.082 112.333 229.082Z" fill="#EEFFEE"/>
<path d="M309.493 50.8203H149.47C142.719 50.8203 137.246 56.2933 137.246 63.0443C137.246 69.7953 142.719 75.2683 149.47 75.2683H309.493C316.244 75.2683 321.717 69.7953 321.717 63.0443C321.717 56.2933 316.244 50.8203 309.493 50.8203Z" fill="#C2FFC2"/>
<path d="M271.727 50.8203H188.204C181.453 50.8203 175.98 56.2933 175.98 63.0443C175.98 69.7953 181.453 75.2683 188.204 75.2683H271.727C278.478 75.2683 283.951 69.7953 283.951 63.0443C283.951 56.2933 278.478 50.8203 271.727 50.8203Z" fill="#EEFFEE"/>
<path d="M131.899 151.626V120.71C131.899 113.959 126.426 108.486 119.675 108.486H119.665C112.914 108.486 107.441 113.959 107.441 120.71V151.626C107.441 158.377 112.914 163.85 119.665 163.85H119.675C126.427 163.85 131.899 158.377 131.899 151.626Z" fill="#3CD3D3"/>
<path d="M131.899 137.09V128.947C131.899 122.193 126.424 116.718 119.67 116.718C112.916 116.718 107.441 122.193 107.441 128.947V137.09C107.441 143.844 112.916 149.319 119.67 149.319C126.423 149.319 131.899 143.844 131.899 137.09Z" fill="#57EAE6"/>
<path d="M256.003 212.653C289.495 212.653 316.645 185.503 316.645 152.011C316.645 118.519 289.495 91.3691 256.003 91.3691C222.512 91.3691 195.361 118.519 195.361 152.011C195.361 185.503 222.512 212.653 256.003 212.653Z" fill="#0D8BA0"/>
<path d="M316.644 152.01C316.644 185.502 289.495 212.65 256.004 212.65C236.705 212.65 219.512 203.636 208.406 189.584C218.167 197.059 230.123 201.1 242.416 201.08C273.385 201.08 298.489 175.976 298.489 145.007C298.489 119.836 281.901 98.5332 259.058 91.4502C291.13 93.0382 316.644 119.541 316.644 152.01Z" fill="#02718C"/>
<path d="M263.887 146.751H261.263V132.856H273.49C274.885 132.856 276.223 132.302 277.21 131.315C278.196 130.329 278.75 128.991 278.75 127.596C278.75 126.201 278.196 124.863 277.21 123.877C276.223 122.89 274.885 122.336 273.49 122.336H261.263V118.506C261.263 117.111 260.709 115.773 259.723 114.787C258.736 113.8 257.398 113.246 256.003 113.246C254.608 113.246 253.27 113.8 252.284 114.787C251.298 115.773 250.743 117.111 250.743 118.506V122.336H248.12C238.489 122.336 230.652 130.172 230.652 139.804C230.652 149.435 238.489 157.271 248.12 157.271H250.743V171.166H238.517C237.122 171.166 235.784 171.72 234.798 172.707C233.812 173.693 233.257 175.031 233.257 176.426C233.257 177.821 233.812 179.159 234.798 180.145C235.784 181.132 237.122 181.686 238.517 181.686H250.743V185.517C250.743 186.912 251.298 188.25 252.284 189.236C253.27 190.223 254.608 190.777 256.003 190.777C257.398 190.777 258.736 190.223 259.723 189.236C260.709 188.25 261.263 186.912 261.263 185.517V181.686H263.887C273.518 181.686 281.354 173.85 281.354 164.219C281.354 154.588 273.519 146.751 263.887 146.751ZM248.121 146.751C244.29 146.751 241.173 143.635 241.173 139.804C241.173 135.973 244.29 132.856 248.121 132.856H250.744V146.751H248.121ZM263.887 171.166H261.263V157.271H263.887C267.718 157.271 270.834 160.387 270.834 164.218C270.834 168.049 267.718 171.166 263.887 171.166Z" fill="#79FF79"/>
<path d="M250.744 181.685H261.264V185.516H250.744V181.685ZM250.744 157.271H261.264V171.166H250.744V157.271Z" fill="#29E088"/>
<path d="M250.744 157.271H261.264V163.74H250.744V157.271Z" fill="#0CC166"/>
<path d="M250.744 132.856H261.264V141.231H250.744V132.856Z" fill="#29E088"/>
<path d="M248.12 146.751C246.858 146.75 245.62 146.405 244.54 145.753C243.459 145.102 242.577 144.168 241.987 143.053C241.539 142.218 240.874 141.521 240.06 141.036C239.247 140.551 238.317 140.297 237.371 140.3C233.488 140.3 230.844 144.415 232.639 147.858C235.551 153.446 241.393 157.271 248.12 157.271H263.887C265.129 157.272 266.348 157.605 267.417 158.237C268.487 158.869 269.368 159.775 269.968 160.863C270.881 162.512 272.637 163.514 274.522 163.514C278.563 163.514 281.066 159.153 279.076 155.635C276.079 150.336 270.398 146.751 263.886 146.751H248.12Z" fill="#C2FFC2"/>
<path d="M250.744 118.505H261.264V122.335H250.744V118.505Z" fill="#29E088"/>
<path d="M211.82 175.093C216.313 173.058 218.519 168.023 217.142 163.287C216.079 159.622 215.54 155.826 215.543 152.01C215.543 135.79 225.137 121.778 238.947 115.334C243.291 113.307 245.473 108.374 244.23 103.744L244.18 103.557C242.58 97.596 235.987 94.422 230.395 97.031C209.703 106.684 195.363 127.67 195.363 152.01C195.363 157.813 196.178 163.425 197.7 168.738C199.404 174.689 205.997 177.731 211.636 175.176C211.698 175.149 211.759 175.121 211.82 175.093Z" fill="#12ADB5"/>
<path d="M216.863 141.761C218.82 134.294 222.865 127.665 228.332 122.534C232.086 119.011 232.529 113.206 229.376 109.136L229.251 108.975C225.673 104.355 218.866 103.724 214.598 107.715C206.368 115.41 200.284 125.37 197.341 136.603C195.759 142.644 199.983 148.652 206.207 149.151L206.408 149.167C211.228 149.554 215.638 146.437 216.863 141.761Z" fill="#3CD3D3"/>
<path d="M84.0564 512H48.8814C42.9084 512 38.0664 507.158 38.0664 501.185V240.595H84.0574L84.0564 512Z" fill="#4A5955"/>
<path d="M38.0664 315.437V435.234C38.0664 444.72 45.7564 452.409 55.2414 452.409C64.7274 452.409 72.4164 444.719 72.4164 435.234V315.437C72.4164 305.951 64.7264 298.262 55.2414 298.262C45.7564 298.262 38.0664 305.952 38.0664 315.437Z" fill="#5C7064"/>
<path d="M72.4164 407.208V348.78C72.4164 339.294 64.7264 331.605 55.2414 331.605C45.7554 331.605 38.0664 339.295 38.0664 348.78V407.208C38.0664 416.694 45.7564 424.383 55.2414 424.383C64.7264 424.383 72.4164 416.693 72.4164 407.208Z" fill="#778F85"/>
<path d="M463.118 512H427.943V240.594H473.934V501.184C473.934 507.158 469.091 512 463.118 512Z" fill="#4A5955"/>
<path d="M38.0664 240.594H84.0574V283.71H38.0664V240.594ZM427.943 240.594H473.934V283.71H427.943V240.594ZM207.411 478.949H307.154V512H207.411V478.949Z" fill="#3A4443"/>
<path d="M88.8095 178.925H61.0625V140.757C61.0625 137.424 62.5995 134.277 65.2285 132.227L80.0775 120.651C83.6285 117.883 88.8095 120.413 88.8095 124.916V178.925ZM423.191 178.925H450.939V140.757C450.939 137.424 449.402 134.277 446.773 132.227L431.924 120.651C428.373 117.883 423.192 120.413 423.192 124.916L423.191 178.925Z" fill="#778F85"/>
<path d="M486.724 259.409H25.2756C17.9976 259.409 12.7976 252.366 14.9396 245.41L35.3166 179.24C35.997 177.03 37.368 175.097 39.2283 173.723C41.0885 172.349 43.3401 171.608 45.6526 171.608H466.347C471.094 171.608 475.286 174.703 476.683 179.24L497.06 245.41C499.202 252.366 494.002 259.409 486.724 259.409Z" fill="#5C7064"/>
<path d="M497.06 245.41L476.68 179.24C476.001 177.031 474.632 175.097 472.772 173.724C470.913 172.35 468.662 171.609 466.35 171.61H464.47C464.265 209.188 437.062 240.343 401.28 246.744V259.41H486.72C494 259.41 499.2 252.37 497.06 245.41ZM120.931 171.61H88.6361C86.4351 248.491 30.4531 259.41 30.4531 259.41H120.931V171.61Z" fill="#4A5955"/>
<path d="M403.945 259.409H108.053C102.53 259.409 98.0527 254.932 98.0527 249.409V162.01C98.0527 156.487 102.53 152.01 108.053 152.01H403.945C409.468 152.01 413.945 156.487 413.945 162.01V249.409C413.945 254.932 409.468 259.409 403.945 259.409Z" fill="#778F85"/>
<path d="M375.715 240.247H211.4V176.736H375.715C381.688 176.736 386.53 181.578 386.53 187.551V229.431C386.53 235.405 381.688 240.247 375.715 240.247Z" fill="#F8FFFC"/>
<path d="M429.017 302.451V474.27C429.017 482.717 422.183 489.56 413.747 489.64H98.2844C89.8274 489.56 82.9844 482.716 82.9844 474.27V302.451C82.9844 294.014 89.8274 287.171 98.2744 287.171H413.737C422.183 287.171 429.017 294.015 429.017 302.451Z" fill="#79FF79"/>
<path d="M429.017 302.451V474.27C429.017 482.717 422.183 489.56 413.747 489.64H98.2844C89.8274 489.56 82.9844 482.716 82.9844 474.27V371.397L82.9944 371.377C113.695 413.781 163.613 441.375 219.974 441.375C308.328 441.375 380.842 373.581 388.336 287.171H413.736C422.183 287.171 429.017 294.015 429.017 302.451Z" fill="#29E088"/>
<path d="M429.017 302.451V474.27C429.017 482.717 422.183 489.56 413.747 489.64H254.252C338.067 469.711 404.078 391.246 404.078 302.4C404.078 297.27 403.868 292.19 403.467 287.17H413.737C422.183 287.171 429.017 294.015 429.017 302.451Z" fill="#0CC166"/>
<path d="M405.14 477.372C405.14 484.148 399.647 489.641 392.871 489.641H323.183C316.407 489.641 310.914 484.148 310.914 477.372C310.914 470.596 316.407 465.103 323.183 465.103H392.871C399.646 465.102 405.14 470.596 405.14 477.372Z" fill="#29E088"/>
<path d="M379.668 477.372C379.668 484.148 374.175 489.641 367.399 489.641H347.88C341.104 489.641 335.611 484.148 335.611 477.372C335.611 470.596 341.104 465.103 347.88 465.103H367.399C374.175 465.102 379.668 470.596 379.668 477.372Z" fill="#79FF79"/>
<path d="M404.566 366.897V457.461C404.566 459.488 403.761 461.432 402.328 462.865C400.895 464.298 398.951 465.103 396.924 465.103H157.277C153.984 465.103 150.754 462.462 149.986 459.26C146.787 445.924 137.877 434.807 125.996 428.622C122.466 426.788 119.623 423.854 118.003 420.216H117.995C117.279 418.605 116.218 417.171 114.887 416.016C113.556 414.86 111.988 414.01 110.292 413.526C108.623 413.049 107.441 411.57 107.441 409.833V319.269C107.441 317.242 108.247 315.298 109.68 313.865C111.113 312.432 113.057 311.627 115.083 311.627H357.7C359.535 311.627 361.131 312.928 361.451 314.735C364.028 329.28 373.326 341.505 386.011 348.108C389.542 349.942 392.384 352.876 394.004 356.514H394.012C394.729 358.124 395.79 359.558 397.121 360.714C398.451 361.87 400.019 362.72 401.714 363.204C403.385 363.682 404.566 365.161 404.566 366.897Z" fill="#12ADB5"/>
<path d="M404.565 366.894V457.463C404.565 458.466 404.367 459.459 403.984 460.385C403.6 461.312 403.038 462.153 402.329 462.862C401.62 463.571 400.778 464.134 399.852 464.517C398.925 464.901 397.932 465.098 396.93 465.098H157.275C153.989 465.098 150.753 462.463 149.982 459.257C146.786 445.921 137.878 434.809 125.995 428.627C122.468 426.793 119.623 423.858 117.999 420.22C117.282 418.594 116.21 417.15 114.863 415.992C113.536 414.849 111.977 414.008 110.294 413.527C108.621 413.046 107.438 411.573 107.438 409.83V398.467C137.326 425.15 176.744 441.372 219.969 441.372C289.246 441.372 348.783 399.69 374.875 340.042C378.173 343.259 381.924 345.976 386.008 348.108C389.545 349.942 392.39 352.877 394.003 356.515H394.013C394.731 358.126 395.793 359.559 397.124 360.716C398.455 361.872 400.023 362.723 401.719 363.208C403.382 363.678 404.565 365.161 404.565 366.894Z" fill="#0D8BA0"/>
<path d="M404.568 366.899V457.468C404.568 459.493 403.764 461.435 402.332 462.867C400.9 464.299 398.958 465.103 396.933 465.103H312.025C350.752 440.555 380.941 402.559 395.159 358.543C396.748 360.804 399.065 362.453 401.722 363.212C403.386 363.682 404.568 365.165 404.568 366.899Z" fill="#02718C"/>
<path d="M178.898 347.856H138.693C132.769 347.856 127.967 343.054 127.967 337.13C127.967 331.206 132.769 326.404 138.693 326.404H178.898C184.822 326.404 189.624 331.206 189.624 337.13C189.624 343.054 184.821 347.856 178.898 347.856Z" fill="#C2FFC2"/>
<path d="M167.241 326.404H156.197C150.273 326.404 145.471 331.206 145.471 337.13C145.471 343.054 150.273 347.856 156.197 347.856H167.241C173.165 347.856 177.967 343.054 177.967 337.13C177.966 331.207 173.164 326.404 167.241 326.404Z" fill="#EEFFEE"/>
<path d="M373.314 450.326H333.109C327.185 450.326 322.383 445.524 322.383 439.6C322.383 433.676 327.185 428.874 333.109 428.874H373.314C379.238 428.874 384.04 433.676 384.04 439.6C384.04 445.524 379.238 450.326 373.314 450.326Z" fill="#C2FFC2"/>
<path d="M363.74 428.875H355.281C349.357 428.875 344.555 433.677 344.555 439.601C344.555 445.525 349.357 450.327 355.281 450.327H363.74C369.664 450.327 374.466 445.525 374.466 439.601C374.465 433.677 369.663 428.875 363.74 428.875Z" fill="#EEFFEE"/>
<path d="M395.326 335.358C403.171 335.358 409.531 328.998 409.531 321.153C409.531 313.308 403.171 306.948 395.326 306.948C387.481 306.948 381.121 313.308 381.121 321.153C381.121 328.998 387.481 335.358 395.326 335.358Z" fill="#C2FFC2"/>
<path d="M390.979 331.011C396.424 331.011 400.837 326.597 400.837 321.153C400.837 315.709 396.424 311.295 390.979 311.295C385.535 311.295 381.121 315.709 381.121 321.153C381.121 326.597 385.535 331.011 390.979 331.011Z" fill="#EEFFEE"/>
<path d="M116.68 469.783C124.525 469.783 130.885 463.423 130.885 455.578C130.885 447.733 124.525 441.373 116.68 441.373C108.834 441.373 102.475 447.733 102.475 455.578C102.475 463.423 108.834 469.783 116.68 469.783Z" fill="#C2FFC2"/>
<path d="M112.333 465.436C117.777 465.436 122.191 461.022 122.191 455.578C122.191 450.133 117.777 445.72 112.333 445.72C106.888 445.72 102.475 450.133 102.475 455.578C102.475 461.022 106.888 465.436 112.333 465.436Z" fill="#EEFFEE"/>
<path d="M309.493 287.174H149.47C142.719 287.174 137.246 292.647 137.246 299.398C137.246 306.149 142.719 311.622 149.47 311.622H309.493C316.244 311.622 321.717 306.149 321.717 299.398C321.717 292.647 316.244 287.174 309.493 287.174Z" fill="#C2FFC2"/>
<path d="M271.727 287.174H188.204C181.453 287.174 175.98 292.647 175.98 299.398C175.98 306.149 181.453 311.622 188.204 311.622H271.727C278.478 311.622 283.951 306.149 283.951 299.398C283.951 292.647 278.478 287.174 271.727 287.174Z" fill="#EEFFEE"/>
<path d="M131.899 383.98V353.064C131.899 346.313 126.426 340.84 119.675 340.84H119.665C112.914 340.84 107.441 346.313 107.441 353.064V383.98C107.441 390.731 112.914 396.204 119.665 396.204H119.675C126.427 396.204 131.899 390.731 131.899 383.98Z" fill="#3CD3D3"/>
<path d="M131.899 369.445V361.302C131.899 354.548 126.424 349.073 119.67 349.073C112.916 349.073 107.441 354.548 107.441 361.302V369.445C107.441 376.199 112.916 381.674 119.67 381.674C126.423 381.674 131.899 376.199 131.899 369.445Z" fill="#57EAE6"/>
<path d="M256.003 449.007C289.495 449.007 316.645 421.856 316.645 388.365C316.645 354.873 289.495 327.723 256.003 327.723C222.512 327.723 195.361 354.873 195.361 388.365C195.361 421.856 222.512 449.007 256.003 449.007Z" fill="#0D8BA0"/>
<path d="M316.644 388.365C316.644 421.857 289.495 449.005 256.004 449.005C236.705 449.005 219.512 439.991 208.406 425.939C218.167 433.413 230.123 437.455 242.416 437.435C273.385 437.435 298.489 412.331 298.489 381.362C298.489 356.191 281.901 334.888 259.058 327.805C291.13 329.392 316.644 355.895 316.644 388.365Z" fill="#02718C"/>
<path d="M263.887 383.105H261.263V369.21H273.49C274.885 369.21 276.223 368.655 277.21 367.669C278.196 366.683 278.75 365.345 278.75 363.95C278.75 362.555 278.196 361.217 277.21 360.23C276.223 359.244 274.885 358.69 273.49 358.69H261.263V354.86C261.263 353.465 260.709 352.127 259.723 351.14C258.736 350.154 257.398 349.6 256.003 349.6C254.608 349.6 253.27 350.154 252.284 351.14C251.298 352.127 250.743 353.465 250.743 354.86V358.69H248.12C238.489 358.69 230.652 366.526 230.652 376.158C230.652 385.789 238.489 393.625 248.12 393.625H250.743V407.52H238.517C237.122 407.52 235.784 408.074 234.798 409.06C233.812 410.047 233.257 411.385 233.257 412.78C233.257 414.175 233.812 415.513 234.798 416.499C235.784 417.485 237.122 418.04 238.517 418.04H250.743V421.871C250.743 423.266 251.298 424.604 252.284 425.59C253.27 426.576 254.608 427.131 256.003 427.131C257.398 427.131 258.736 426.576 259.723 425.59C260.709 424.604 261.263 423.266 261.263 421.871V418.04H263.887C273.518 418.04 281.354 410.204 281.354 400.573C281.354 390.942 273.519 383.105 263.887 383.105ZM248.121 383.105C244.29 383.105 241.173 379.989 241.173 376.158C241.173 372.327 244.29 369.21 248.121 369.21H250.744V383.105H248.121ZM263.887 407.52H261.263V393.625H263.887C265.729 393.626 267.495 394.359 268.798 395.661C270.1 396.964 270.833 398.73 270.834 400.572C270.833 402.414 270.1 404.18 268.798 405.482C267.495 406.785 265.729 407.517 263.887 407.52Z" fill="#79FF79"/>
<path d="M250.744 418.04H261.264V421.871H250.744V418.04ZM250.744 393.625H261.264V407.52H250.744V393.625Z" fill="#29E088"/>
<path d="M250.744 393.625H261.264V400.094H250.744V393.625Z" fill="#0CC166"/>
<path d="M250.744 369.21H261.264V377.585H250.744V369.21Z" fill="#29E088"/>
<path d="M248.12 383.105C246.858 383.104 245.62 382.76 244.54 382.108C243.459 381.456 242.577 380.523 241.987 379.407C241.539 378.573 240.874 377.876 240.06 377.391C239.247 376.906 238.317 376.651 237.371 376.654C233.488 376.654 230.844 380.769 232.639 384.213C235.551 389.801 241.393 393.626 248.12 393.626H263.887C265.129 393.627 266.348 393.961 267.417 394.592C268.487 395.224 269.368 396.131 269.968 397.218C270.881 398.867 272.637 399.869 274.522 399.869C278.563 399.869 281.066 395.508 279.076 391.99C276.079 386.691 270.398 383.106 263.886 383.106L248.12 383.105Z" fill="#C2FFC2"/>
<path d="M250.744 354.86H261.264V358.69H250.744V354.86Z" fill="#29E088"/>
<path d="M211.82 411.447C216.313 409.412 218.519 404.377 217.142 399.641C216.079 395.977 215.54 392.18 215.543 388.364C215.543 372.144 225.137 358.132 238.947 351.688C243.291 349.661 245.473 344.728 244.23 340.098L244.18 339.911C242.58 333.95 235.987 330.776 230.395 333.385C209.703 343.038 195.363 364.024 195.363 388.364C195.363 394.167 196.178 399.779 197.7 405.092C199.404 411.043 205.997 414.085 211.636 411.53C211.698 411.503 211.759 411.476 211.82 411.447Z" fill="#12ADB5"/>
<path d="M216.863 378.115C218.82 370.648 222.865 364.019 228.332 358.888C232.086 355.365 232.529 349.56 229.376 345.49L229.251 345.329C225.673 340.709 218.866 340.078 214.598 344.069C206.368 351.764 200.284 361.724 197.341 372.957C195.759 378.998 199.983 385.006 206.207 385.505L206.408 385.521C211.228 385.909 215.638 382.792 216.863 378.115Z" fill="#3CD3D3"/>
<path d="M206.347 438.796L190.852 478.949H59.6974C47.7514 478.949 38.0664 488.633 38.0664 500.58V501.185C38.0664 507.158 42.9084 512 48.8814 512H239.594C245.567 512 250.409 507.158 250.409 501.185V442.69C250.409 436.717 245.567 431.875 239.594 431.875H216.436C214.252 431.875 212.12 432.536 210.319 433.771C208.518 435.007 207.133 436.758 206.347 438.796Z" fill="#778F85"/>
<path d="M191.259 478.949H80.3424C71.2154 478.949 63.8164 486.348 63.8164 495.475C63.8164 504.602 71.2154 512.001 80.3424 512.001H191.259C200.386 512.001 207.785 504.602 207.785 495.475C207.785 486.347 200.386 478.949 191.259 478.949Z" fill="#97B5AE"/>
<path d="M163.712 478.949H131.825C122.698 478.949 115.299 486.348 115.299 495.475C115.299 504.602 122.698 512.001 131.825 512.001H163.712C172.839 512.001 180.238 504.602 180.238 495.475C180.237 486.347 172.839 478.949 163.712 478.949Z" fill="#B9D8CE"/>
<path d="M321.148 478.949L305.653 438.796C304.867 436.758 303.482 435.007 301.681 433.771C299.88 432.536 297.747 431.874 295.563 431.874H272.405C266.432 431.874 261.59 436.716 261.59 442.689V501.184C261.59 507.157 266.432 511.999 272.405 511.999H463.118C469.091 511.999 473.933 507.157 473.933 501.184V500.579C473.933 488.633 464.249 478.948 452.302 478.948H321.148V478.949Z" fill="#778F85"/>
<path d="M234.914 452.41C238.369 452.41 241.17 449.61 241.17 446.154C241.17 442.699 238.369 439.898 234.914 439.898C231.459 439.898 228.658 442.699 228.658 446.154C228.658 449.61 231.459 452.41 234.914 452.41Z" fill="#5C7064"/>
<path d="M277.086 452.41C280.541 452.41 283.342 449.61 283.342 446.154C283.342 442.699 280.541 439.898 277.086 439.898C273.631 439.898 270.83 442.699 270.83 446.154C270.83 449.61 273.631 452.41 277.086 452.41Z" fill="#5C7064"/>
<path d="M394.87 478.949H314.051C304.924 478.949 297.525 486.348 297.525 495.475C297.525 504.602 304.924 512.001 314.051 512.001H394.87C403.997 512.001 411.396 504.602 411.396 495.475C411.396 486.347 403.997 478.949 394.87 478.949Z" fill="#97B5AE"/>
<path d="M226.46 240.247H136.284C130.311 240.247 125.469 235.405 125.469 229.432V187.552C125.469 181.579 130.311 176.737 136.284 176.737H226.46C232.433 176.737 237.275 181.579 237.275 187.552V229.432C237.276 235.405 232.434 240.247 226.46 240.247Z" fill="#A9CFFC"/>
<path d="M203.229 176.736H155.493C146.085 176.736 138.459 184.363 138.459 193.77C138.459 203.178 146.086 210.804 155.493 210.804H203.229C212.637 210.804 220.263 203.177 220.263 193.77C220.263 184.363 212.637 176.736 203.229 176.736Z" fill="#CBE1FF"/>
<path d="M179.421 176.736H173.77C164.362 176.736 156.736 184.363 156.736 193.77C156.736 203.178 164.363 210.804 173.77 210.804H179.421C188.829 210.804 196.455 203.177 196.455 193.77C196.456 184.363 188.829 176.736 179.421 176.736Z" fill="#E3F0FF"/>
<path d="M269.039 204.409H257.732C256.362 204.409 255.047 203.864 254.078 202.895C253.109 201.926 252.564 200.611 252.564 199.241V191.305C252.564 189.934 253.109 188.62 254.078 187.65C255.047 186.681 256.362 186.137 257.732 186.137H269.039C270.41 186.137 271.725 186.681 272.694 187.65C273.663 188.62 274.207 189.934 274.207 191.305V199.241C274.207 200.611 273.663 201.926 272.694 202.895C271.725 203.864 270.41 204.409 269.039 204.409ZM300.671 204.409H289.364C288.686 204.409 288.014 204.275 287.387 204.015C286.76 203.756 286.19 203.375 285.71 202.895C285.23 202.415 284.85 201.845 284.59 201.218C284.33 200.591 284.196 199.919 284.196 199.241V191.305C284.196 190.626 284.33 189.954 284.59 189.327C284.85 188.7 285.23 188.13 285.71 187.65C286.19 187.17 286.76 186.79 287.387 186.53C288.014 186.27 288.686 186.137 289.364 186.137H300.671C302.042 186.137 303.357 186.681 304.326 187.65C305.295 188.62 305.839 189.934 305.839 191.305V199.241C305.839 200.611 305.295 201.926 304.326 202.895C303.357 203.864 302.042 204.409 300.671 204.409ZM332.303 204.409H320.996C319.626 204.409 318.311 203.864 317.342 202.895C316.373 201.926 315.828 200.611 315.828 199.241V191.305C315.828 189.934 316.373 188.62 317.342 187.65C318.311 186.681 319.626 186.137 320.996 186.137H332.303C333.674 186.137 334.989 186.681 335.958 187.65C336.927 188.62 337.471 189.934 337.471 191.305V199.241C337.471 200.611 336.927 201.926 335.957 202.895C334.988 203.864 333.674 204.408 332.303 204.409ZM363.934 204.409H352.627C351.257 204.409 349.942 203.864 348.973 202.895C348.004 201.926 347.459 200.611 347.459 199.241V191.305C347.459 189.934 348.004 188.62 348.973 187.65C349.942 186.681 351.257 186.137 352.627 186.137H363.934C365.305 186.137 366.62 186.681 367.589 187.65C368.558 188.62 369.102 189.934 369.102 191.305V199.241C369.102 200.611 368.558 201.926 367.589 202.895C366.62 203.864 365.305 204.409 363.934 204.409ZM269.039 230.846H257.732C256.362 230.846 255.047 230.301 254.078 229.332C253.109 228.363 252.564 227.048 252.564 225.678V217.742C252.564 216.371 253.109 215.057 254.078 214.087C255.047 213.118 256.362 212.574 257.732 212.574H269.039C270.41 212.574 271.725 213.118 272.694 214.087C273.663 215.057 274.207 216.371 274.207 217.742V225.678C274.207 227.048 273.663 228.363 272.694 229.332C271.725 230.301 270.41 230.846 269.039 230.846ZM300.671 230.846H289.364C288.686 230.846 288.014 230.712 287.387 230.452C286.76 230.193 286.19 229.812 285.71 229.332C285.23 228.852 284.85 228.282 284.59 227.655C284.33 227.028 284.196 226.356 284.196 225.678V217.742C284.196 217.063 284.33 216.391 284.59 215.764C284.85 215.137 285.23 214.567 285.71 214.087C286.19 213.608 286.76 213.227 287.387 212.967C288.014 212.707 288.686 212.574 289.364 212.574H300.671C302.042 212.574 303.357 213.118 304.326 214.087C305.295 215.057 305.839 216.371 305.839 217.742V225.678C305.839 227.048 305.295 228.363 304.326 229.332C303.357 230.301 302.042 230.846 300.671 230.846ZM332.303 230.846H320.996C319.626 230.846 318.311 230.301 317.342 229.332C316.373 228.363 315.828 227.048 315.828 225.678V217.742C315.828 216.371 316.373 215.057 317.342 214.087C318.311 213.118 319.626 212.574 320.996 212.574H332.303C333.674 212.574 334.989 213.118 335.958 214.087C336.927 215.057 337.471 216.371 337.471 217.742V225.678C337.471 227.048 336.927 228.363 335.957 229.332C334.988 230.301 333.674 230.845 332.303 230.846ZM363.934 230.846H352.627C351.257 230.846 349.942 230.301 348.973 229.332C348.004 228.363 347.459 227.048 347.459 225.678V217.742C347.459 216.371 348.004 215.057 348.973 214.087C349.942 213.118 351.257 212.574 352.627 212.574H363.934C365.305 212.574 366.62 213.118 367.589 214.087C368.558 215.057 369.102 216.371 369.102 217.742V225.678C369.102 227.048 368.558 228.363 367.589 229.332C366.62 230.301 365.305 230.846 363.934 230.846Z" fill="#778F85"/>
<path d="M290.304 25.4131H164.127C157.11 25.4131 151.422 31.1011 151.422 38.1181C151.422 45.1351 157.11 50.8231 164.127 50.8231H290.304C297.321 50.8231 303.009 45.1351 303.009 38.1181C303.009 31.1011 297.321 25.4131 290.304 25.4131Z" fill="#79FF79"/>
<path d="M259.459 25.4131H204.664C197.647 25.4131 191.959 31.1011 191.959 38.1181C191.959 45.1351 197.647 50.8231 204.664 50.8231H259.459C266.476 50.8231 272.164 45.1351 272.164 38.1181C272.164 31.1011 266.476 25.4131 259.459 25.4131Z" fill="#C2FFC2"/>
<path d="M265.256 0H184.168C177.151 0 171.463 5.688 171.463 12.705C171.463 19.722 177.151 25.41 184.168 25.41H265.256C272.273 25.41 277.961 19.722 277.961 12.705C277.961 5.688 272.272 0 265.256 0Z" fill="#29E088"/>
<path d="M247.138 0H227.412C220.395 0 214.707 5.688 214.707 12.705C214.707 19.722 220.395 25.41 227.412 25.41H247.138C254.155 25.41 259.843 19.722 259.843 12.705C259.843 5.688 254.155 0 247.138 0Z" fill="#79FF79"/>
<path d="M265.088 196.544H261.682C260.302 196.544 258.978 195.996 258.002 195.02C257.027 194.044 256.478 192.72 256.478 191.34C256.478 189.96 257.027 188.636 258.002 187.66C258.978 186.684 260.302 186.136 261.682 186.136H265.088C266.468 186.136 267.792 186.684 268.768 187.66C269.744 188.636 270.292 189.96 270.292 191.34C270.292 192.72 269.744 194.044 268.768 195.02C267.792 195.996 266.468 196.544 265.088 196.544ZM296.719 196.544H293.313C291.933 196.544 290.609 195.996 289.633 195.02C288.658 194.044 288.109 192.72 288.109 191.34C288.109 189.96 288.658 188.636 289.633 187.66C290.609 186.684 291.933 186.136 293.313 186.136H296.719C298.099 186.136 299.423 186.684 300.399 187.66C301.375 188.636 301.923 189.96 301.923 191.34C301.923 192.72 301.375 194.044 300.399 195.02C299.423 195.996 298.099 196.544 296.719 196.544ZM328.351 196.544H324.945C323.565 196.544 322.241 195.996 321.265 195.02C320.29 194.044 319.741 192.72 319.741 191.34C319.741 189.96 320.29 188.636 321.265 187.66C322.241 186.684 323.565 186.136 324.945 186.136H328.351C329.731 186.136 331.055 186.684 332.031 187.66C333.007 188.636 333.555 189.96 333.555 191.34C333.555 192.72 333.007 194.044 332.031 195.02C331.055 195.996 329.731 196.544 328.351 196.544ZM359.983 196.544H356.577C355.197 196.544 353.873 195.996 352.898 195.02C351.922 194.044 351.373 192.72 351.373 191.34C351.373 189.96 351.922 188.636 352.898 187.66C353.873 186.684 355.197 186.136 356.577 186.136H359.983C361.363 186.136 362.687 186.684 363.663 187.66C364.639 188.636 365.187 189.96 365.187 191.34C365.187 192.72 364.639 194.044 363.663 195.02C362.687 195.996 361.363 196.544 359.983 196.544ZM265.088 223.06H261.682C260.302 223.06 258.978 222.511 258.002 221.536C257.027 220.56 256.478 219.236 256.478 217.856C256.478 216.476 257.027 215.152 258.002 214.176C258.978 213.2 260.302 212.652 261.682 212.652H265.088C266.468 212.652 267.792 213.2 268.768 214.176C269.744 215.152 270.292 216.476 270.292 217.856C270.292 219.236 269.744 220.56 268.768 221.536C267.792 222.511 266.468 223.06 265.088 223.06ZM296.719 223.06H293.313C291.933 223.06 290.609 222.511 289.633 221.536C288.658 220.56 288.109 219.236 288.109 217.856C288.109 216.476 288.658 215.152 289.633 214.176C290.609 213.2 291.933 212.652 293.313 212.652H296.719C298.099 212.652 299.423 213.2 300.399 214.176C301.375 215.152 301.923 216.476 301.923 217.856C301.923 219.236 301.375 220.56 300.399 221.536C299.423 222.511 298.099 223.06 296.719 223.06ZM328.351 223.06H324.945C323.565 223.06 322.241 222.511 321.265 221.536C320.29 220.56 319.741 219.236 319.741 217.856C319.741 216.476 320.29 215.152 321.265 214.176C322.241 213.2 323.565 212.652 324.945 212.652H328.351C329.731 212.652 331.055 213.2 332.031 214.176C333.007 215.152 333.555 216.476 333.555 217.856C333.555 219.236 333.007 220.56 332.031 221.536C331.055 222.511 329.731 223.06 328.351 223.06ZM359.983 223.06H356.577C355.197 223.06 353.873 222.511 352.898 221.536C351.922 220.56 351.373 219.236 351.373 217.856C351.373 216.476 351.922 215.152 352.898 214.176C353.873 213.2 355.197 212.652 356.577 212.652H359.983C361.363 212.652 362.687 213.2 363.663 214.176C364.639 215.152 365.187 216.476 365.187 217.856C365.187 219.236 364.639 220.56 363.663 221.536C362.687 222.511 361.363 223.06 359.983 223.06ZM145.238 164.375C145.238 171.204 150.774 176.74 157.603 176.74H310.787C317.616 176.74 323.152 171.204 323.152 164.375C323.152 157.546 317.616 152.01 310.787 152.01H157.603C150.774 152.01 145.238 157.546 145.238 164.375Z" fill="#97B5AE"/>
<path d="M264.597 152.01H184.787C177.958 152.01 172.422 157.546 172.422 164.375C172.422 171.204 177.958 176.74 184.787 176.74H264.597C271.426 176.74 276.962 171.204 276.962 164.375C276.962 157.546 271.426 152.01 264.597 152.01Z" fill="#B9D8CE"/>
</g>
<defs>
<clipPath id="clip0_83_2">
<rect width="512" height="512" fill="white"/>
</clipPath>
</defs>
</svg>
