<svg width="512" height="512" viewBox="0 0 512 512" fill="none" xmlns="http://www.w3.org/2000/svg">
<g clip-path="url(#clip0_122_2)">
<path d="M256 512C397.385 512 512 397.385 512 256C512 114.615 397.385 0 256 0C114.615 0 0 114.615 0 256C0 397.385 114.615 512 256 512Z" fill="#C941ED"/>
<path d="M511.999 256C511.999 236.082 509.723 216.696 505.419 198.086L390.666 83.332L121.332 419.665L209.427 507.761C224.79 510.584 240.379 512.003 255.999 512C397.384 512 511.999 397.385 511.999 256Z" fill="#541E75"/>
<path d="M121.33 83.3301H390.66V419.66H121.33V83.3301Z" fill="white"/>
<path d="M255.949 83.3301H390.659V419.66H255.949V83.3301Z" fill="#DFDFDF"/>
<path d="M183.029 296.43C235.22 296.43 277.529 254.121 277.529 201.93C277.529 149.739 235.22 107.43 183.029 107.43C130.838 107.43 88.5293 149.739 88.5293 201.93C88.5293 254.121 130.838 296.43 183.029 296.43Z" fill="#FEEA3B"/>
<path d="M183.03 107.434C182.535 107.434 182.042 107.445 181.549 107.453V296.416C182.042 296.424 182.535 296.435 183.03 296.435C235.221 296.435 277.53 254.125 277.53 201.934C277.53 149.743 235.221 107.434 183.03 107.434Z" fill="#FED500"/>
<path d="M354.02 395.43C406.21 395.43 448.52 353.121 448.52 300.93C448.52 248.739 406.21 206.43 354.02 206.43C301.829 206.43 259.52 248.739 259.52 300.93C259.52 353.121 301.829 395.43 354.02 395.43Z" fill="#83E276"/>
<path d="M354.021 206.429C353.871 206.429 353.722 206.434 353.572 206.434V395.423C353.722 395.423 353.871 395.428 354.021 395.428C406.212 395.428 448.521 353.118 448.521 300.928C448.521 248.737 406.211 206.429 354.021 206.429Z" fill="#0CC27C"/>
<path d="M183.03 273.22C222.403 273.22 254.32 241.303 254.32 201.93C254.32 162.558 222.403 130.64 183.03 130.64C143.658 130.64 111.74 162.558 111.74 201.93C111.74 241.303 143.658 273.22 183.03 273.22Z" fill="#FEC007"/>
<path d="M183.03 130.645C182.533 130.645 182.043 130.672 181.549 130.683V273.187C182.043 273.197 182.534 273.224 183.03 273.224C222.402 273.224 254.32 241.306 254.32 201.934C254.32 162.562 222.402 130.645 183.03 130.645Z" fill="#FEB200"/>
<path d="M214.906 182.614V178.774C214.906 166.694 205.118 156.865 193.058 156.783V149H172.999V156.784C160.939 156.865 151.15 166.695 151.15 178.775V189.83C151.15 201.96 161.019 211.828 173.148 211.828H192.908C193.978 211.828 194.847 212.698 194.847 213.767V225.093C194.847 226.163 193.977 227.033 192.908 227.033H173.148C172.078 227.033 171.209 226.163 171.209 225.093V222.581H151.15V225.093C151.15 237.173 160.939 247.003 172.999 247.084V254.868H193.058V247.084C205.118 247.002 214.906 237.173 214.906 225.093V213.767C214.906 201.637 205.037 191.769 192.908 191.769H173.148C172.078 191.769 171.209 190.899 171.209 189.829V178.774C171.209 177.704 172.079 176.834 173.148 176.834H192.908C193.978 176.834 194.847 177.704 194.847 178.774V182.614H214.906Z" fill="#FEF5E0"/>
<path d="M214.908 182.614V178.774C214.908 166.694 205.12 156.865 193.06 156.783V149H181.549V176.835H192.91C193.98 176.835 194.849 177.705 194.849 178.774V182.614H214.908ZM192.91 211.828C193.98 211.828 194.849 212.698 194.849 213.767V225.093C194.849 226.163 193.979 227.033 192.91 227.033H181.549V254.868H193.06V247.084C205.12 247.002 214.908 237.172 214.908 225.093V213.767C214.908 201.637 205.039 191.769 192.91 191.769H181.549V211.828H192.91Z" fill="#DFDFDF"/>
<path d="M331.903 361.354L284.984 314.435L304.783 294.636L331.903 321.756L403.256 250.404L423.055 270.203L331.903 361.354Z" fill="#0CC27C"/>
<path d="M403.256 250.404L353.57 300.089V339.687L423.055 270.203L403.256 250.404Z" fill="#0DA366"/>
</g>
<defs>
<clipPath id="clip0_122_2">
<rect width="512" height="512" fill="white"/>
</clipPath>
</defs>
</svg>
