<svg width="512" height="512" viewBox="0 0 512 512" fill="none" xmlns="http://www.w3.org/2000/svg">
<g clip-path="url(#clip0_80_2)">
<path d="M426.668 101.332V149.332H0V101.332C0 68.906 26.238 42.668 58.668 42.668H368C400.426 42.668 426.668 68.906 426.668 101.332Z" fill="#2196F3"/>
<path d="M202.668 373.332C202.668 279.23 279.23 202.668 373.332 202.668C391.98 202.668 409.855 205.781 426.668 211.328V149.332H0V346.668C0 379.094 26.238 405.332 58.668 405.332H205.781C203.797 394.945 202.668 384.277 202.668 373.332Z" fill="#DDDDDD"/>
<path d="M106.668 106.668C94.891 106.668 85.332 97.109 85.332 85.332V21.332C85.332 9.559 94.891 0 106.668 0C118.441 0 128 9.559 128 21.332V85.332C128 97.109 118.441 106.668 106.668 106.668ZM320 106.668C308.223 106.668 298.668 97.109 298.668 85.332V21.332C298.668 9.559 308.223 0 320 0C331.777 0 341.332 9.559 341.332 21.332V85.332C341.332 97.109 331.777 106.668 320 106.668Z" fill="#607D8B"/>
<path d="M373.332 234.668C296.875 234.668 234.668 296.875 234.668 373.332C234.668 449.793 296.875 512 373.332 512C449.793 512 512 449.793 512 373.332C512 296.875 449.793 234.668 373.332 234.668ZM437.461 349.973L368.129 429.973C364.246 434.453 358.676 437.098 352.769 437.332H352C349.199 437.333 346.425 436.781 343.837 435.709C341.249 434.636 338.898 433.064 336.918 431.082L299.586 393.75C291.242 385.406 291.242 371.926 299.586 363.586C307.926 355.242 321.406 355.242 329.75 363.586L350.89 384.726L405.207 322.046C412.93 313.129 426.41 312.215 435.309 319.895C444.203 327.594 445.164 341.078 437.461 349.973Z" fill="#4CAF50"/>
</g>
<defs>
<clipPath id="clip0_80_2">
<rect width="512" height="512" fill="white"/>
</clipPath>
</defs>
</svg>
