<svg width="512" height="512" viewBox="0 0 512 512" fill="none" xmlns="http://www.w3.org/2000/svg">
<path d="M332.089 18.1621V493.838C332.089 499.473 327.525 504.027 321.9 504.027H10.189C4.564 504.026 0 499.473 0 493.838V18.1621C0 12.5271 4.564 7.97412 10.189 7.97412H321.901C327.525 7.97412 332.089 12.5271 332.089 18.1621Z" fill="#F8F3F1"/>
<path d="M332.088 206.438V493.838C332.088 499.473 327.524 504.027 321.899 504.027H288.285C234.901 478.952 197.938 424.693 197.938 361.81C197.939 282.857 256.205 217.512 332.088 206.438Z" fill="#E5E1E5"/>
<path d="M332.082 18.1582V493.842C332.082 499.466 327.528 504.03 321.894 504.03H283.963C289.587 504.03 294.151 499.466 294.151 493.842V18.1582C294.151 12.5342 289.587 7.97022 283.963 7.97022H321.894C327.528 7.96922 332.082 12.5342 332.082 18.1582Z" fill="#E5E1E5"/>
<path d="M94.2797 117.225H54.8547C48.7747 117.225 43.8457 112.296 43.8457 106.216V66.7912C43.8457 60.7112 48.7747 55.7822 54.8547 55.7822H94.2787C100.359 55.7822 105.288 60.7112 105.288 66.7912V106.215C105.288 112.296 100.36 117.225 94.2797 117.225Z" fill="#35BCC7"/>
<path d="M105.29 66.7932V106.215C105.29 112.292 100.358 117.224 94.2811 117.224H65.9121C71.9891 117.224 76.9211 112.292 76.9211 106.215V66.7932C76.9211 60.7162 71.9891 55.7842 65.9121 55.7842H94.2811C100.358 55.7842 105.29 60.7162 105.29 66.7932Z" fill="#20ABB9"/>
<path d="M74.2475 101.339C73.2326 101.34 72.2275 101.141 71.2898 100.752C70.3521 100.364 69.5004 99.7943 68.7835 99.076L60.4475 90.74C59.01 89.2884 58.2059 87.3267 58.211 85.2839C58.216 83.241 59.0298 81.2833 60.4744 79.8389C61.9189 78.3944 63.8767 77.5808 65.9196 77.576C67.9624 77.5711 69.9241 78.3754 71.3755 79.813L74.2475 82.686L106.818 50.114C108.27 48.6764 110.232 47.8721 112.274 47.877C114.317 47.8818 116.275 48.6954 117.72 50.1399C119.164 51.5843 119.978 53.542 119.983 55.5849C119.988 57.6277 119.184 59.5894 117.746 61.041L79.7115 99.076C78.9947 99.7946 78.143 100.364 77.2053 100.753C76.2676 101.141 75.2624 101.34 74.2475 101.339Z" fill="#FDD330"/>
<path d="M174.194 96.245H149.824C147.775 96.245 145.809 95.431 144.361 93.9821C142.912 92.5332 142.098 90.568 142.098 88.519C142.098 86.4699 142.912 84.5048 144.361 83.0559C145.809 81.607 147.775 80.793 149.824 80.793H174.194C175.208 80.7928 176.213 80.9926 177.15 81.3808C178.088 81.769 178.94 82.3381 179.657 83.0556C180.375 83.773 180.944 84.6248 181.332 85.5622C181.72 86.4996 181.92 87.5043 181.92 88.519C181.92 89.5336 181.72 90.5383 181.332 91.4757C180.944 92.4132 180.375 93.2649 179.657 93.9824C178.94 94.6998 178.088 95.2689 177.15 95.6571C176.213 96.0453 175.208 96.2451 174.194 96.245ZM288.241 124.951H149.824C148.809 124.951 147.804 124.751 146.867 124.363C145.93 123.975 145.078 123.406 144.361 122.688C143.643 121.971 143.074 121.119 142.686 120.182C142.297 119.244 142.098 118.24 142.098 117.225C142.098 116.21 142.297 115.206 142.686 114.268C143.074 113.331 143.643 112.479 144.361 111.762C145.078 111.044 145.93 110.475 146.867 110.087C147.804 109.699 148.809 109.499 149.824 109.499H288.241C289.255 109.499 290.26 109.699 291.197 110.087C292.135 110.475 292.987 111.044 293.704 111.762C294.422 112.479 294.991 113.331 295.379 114.268C295.767 115.206 295.967 116.21 295.967 117.225C295.967 118.24 295.767 119.244 295.379 120.182C294.991 121.119 294.422 121.971 293.704 122.688C292.987 123.406 292.135 123.975 291.197 124.363C290.26 124.751 289.255 124.951 288.241 124.951Z" fill="#C9C0C7"/>
<path d="M94.2797 217.366H54.8547C48.7747 217.366 43.8457 212.437 43.8457 206.357V166.933C43.8457 160.853 48.7747 155.924 54.8547 155.924H94.2787C100.359 155.924 105.288 160.853 105.288 166.933V206.357C105.288 212.437 100.36 217.366 94.2797 217.366Z" fill="#35BCC7"/>
<path d="M105.29 166.934V206.356C105.29 212.433 100.358 217.365 94.2811 217.365H65.9121C71.9891 217.365 76.9211 212.433 76.9211 206.356V166.934C76.9211 160.857 71.9891 155.925 65.9121 155.925H94.2811C100.358 155.925 105.29 160.857 105.29 166.934Z" fill="#20ABB9"/>
<path d="M74.2477 201.48C73.233 201.482 72.2279 201.282 71.2904 200.894C70.3528 200.506 69.5013 199.936 68.7848 199.217L60.4487 190.881C59.7313 190.164 59.1621 189.312 58.7738 188.375C58.3855 187.437 58.1856 186.433 58.1855 185.418C58.1855 183.369 58.9994 181.404 60.4482 179.955C61.8971 178.506 63.8623 177.692 65.9114 177.691C67.9605 177.691 69.9257 178.505 71.3747 179.954L74.2477 182.826L106.819 150.254C108.27 148.817 110.232 148.012 112.275 148.017C114.317 148.022 116.275 148.836 117.72 150.28C119.164 151.724 119.978 153.682 119.983 155.725C119.988 157.768 119.184 159.73 117.747 161.181L79.7117 199.216C78.9952 199.935 78.1435 200.505 77.2058 200.894C76.2681 201.282 75.2628 201.482 74.2477 201.48Z" fill="#FDD330"/>
<path d="M174.194 196.386H149.824C147.775 196.386 145.809 195.572 144.361 194.123C142.912 192.674 142.098 190.709 142.098 188.66C142.098 186.611 142.912 184.646 144.361 183.197C145.809 181.748 147.775 180.934 149.824 180.934H174.194C178.462 180.934 181.92 184.393 181.92 188.66C181.92 192.927 178.462 196.386 174.194 196.386ZM288.241 225.093H149.824C148.809 225.093 147.804 224.893 146.867 224.505C145.93 224.117 145.078 223.548 144.361 222.83C143.643 222.113 143.074 221.261 142.686 220.324C142.297 219.386 142.098 218.382 142.098 217.367C142.098 216.352 142.297 215.348 142.686 214.41C143.074 213.473 143.643 212.621 144.361 211.904C145.078 211.187 145.93 210.617 146.867 210.229C147.804 209.841 148.809 209.641 149.824 209.641H288.241C292.509 209.641 295.967 213.1 295.967 217.367C295.967 221.634 292.509 225.093 288.241 225.093Z" fill="#C9C0C7"/>
<path d="M94.2797 317.507H54.8547C48.7747 317.507 43.8457 312.578 43.8457 306.498V267.074C43.8457 260.994 48.7747 256.065 54.8547 256.065H94.2787C100.359 256.065 105.288 260.994 105.288 267.074V306.498C105.288 312.579 100.36 317.507 94.2797 317.507Z" fill="#FCA62F"/>
<path d="M105.29 267.076V306.498C105.29 312.575 100.358 317.507 94.2811 317.507H65.9121C71.9891 317.507 76.9211 312.575 76.9211 306.498V267.076C76.9211 260.999 71.9891 256.067 65.9121 256.067H94.2811C100.358 256.067 105.29 260.999 105.29 267.076Z" fill="#F98824"/>
<path d="M174.194 296.528H149.824C147.775 296.528 145.809 295.714 144.361 294.265C142.912 292.816 142.098 290.851 142.098 288.802C142.098 286.753 142.912 284.788 144.361 283.339C145.809 281.89 147.775 281.076 149.824 281.076H174.194C175.208 281.076 176.213 281.276 177.15 281.664C178.088 282.052 178.94 282.621 179.657 283.339C180.375 284.056 180.944 284.908 181.332 285.845C181.72 286.783 181.92 287.788 181.92 288.802C181.92 289.817 181.72 290.822 181.332 291.759C180.944 292.696 180.375 293.548 179.657 294.266C178.94 294.983 178.088 295.552 177.15 295.94C176.213 296.329 175.208 296.528 174.194 296.528ZM288.241 325.234H149.824C147.775 325.234 145.809 324.42 144.361 322.971C142.912 321.522 142.098 319.557 142.098 317.508C142.098 315.459 142.912 313.494 144.361 312.045C145.809 310.596 147.775 309.782 149.824 309.782H288.241C289.255 309.782 290.26 309.982 291.197 310.37C292.135 310.758 292.987 311.327 293.704 312.045C294.422 312.762 294.991 313.614 295.379 314.551C295.767 315.489 295.967 316.494 295.967 317.508C295.967 318.523 295.767 319.528 295.379 320.465C294.991 321.402 294.422 322.254 293.704 322.972C292.987 323.689 292.135 324.258 291.197 324.646C290.26 325.035 289.255 325.234 288.241 325.234Z" fill="#C9C0C7"/>
<path d="M94.2797 417.649H54.8547C48.7747 417.649 43.8457 412.72 43.8457 406.64V367.216C43.8457 361.136 48.7747 356.207 54.8547 356.207H94.2787C100.359 356.207 105.288 361.136 105.288 367.216V406.64C105.288 412.72 100.36 417.649 94.2797 417.649Z" fill="#FEE265"/>
<path d="M105.29 367.217V406.639C105.29 412.716 100.358 417.648 94.2811 417.648H65.9121C71.9891 417.648 76.9211 412.716 76.9211 406.639V367.217C76.9211 361.14 71.9891 356.208 65.9121 356.208H94.2811C100.358 356.208 105.29 361.14 105.29 367.217Z" fill="#FDD330"/>
<path d="M174.194 396.67H149.824C147.775 396.67 145.809 395.856 144.361 394.407C142.912 392.958 142.098 390.993 142.098 388.944C142.098 386.895 142.912 384.93 144.361 383.481C145.809 382.032 147.775 381.218 149.824 381.218H174.194C175.208 381.218 176.213 381.418 177.15 381.806C178.088 382.194 178.94 382.763 179.657 383.481C180.375 384.198 180.944 385.05 181.332 385.988C181.72 386.925 181.92 387.93 181.92 388.944C181.92 389.959 181.72 390.964 181.332 391.901C180.944 392.838 180.375 393.69 179.657 394.408C178.94 395.125 178.088 395.694 177.15 396.082C176.213 396.471 175.208 396.67 174.194 396.67ZM288.241 425.375H149.824C147.775 425.375 145.809 424.561 144.361 423.112C142.912 421.663 142.098 419.698 142.098 417.649C142.098 415.6 142.912 413.635 144.361 412.186C145.809 410.737 147.775 409.923 149.824 409.923H288.241C292.509 409.923 295.967 413.382 295.967 417.649C295.967 421.916 292.509 425.375 288.241 425.375Z" fill="#C9C0C7"/>
<path d="M354.967 474.541C441.694 474.541 512 404.235 512 317.508C512 230.781 441.694 160.475 354.967 160.475C268.24 160.475 197.934 230.781 197.934 317.508C197.934 404.235 268.24 474.541 354.967 474.541Z" fill="#5591D6"/>
<path d="M511.997 317.507C512.005 404.233 441.698 474.54 354.973 474.54C349.171 474.54 343.445 474.222 337.81 473.612C416.46 465.06 477.671 398.431 477.671 317.507C477.671 236.583 416.451 169.954 337.801 161.402C343.436 160.792 349.162 160.474 354.964 160.474C441.69 160.474 511.997 230.781 511.997 317.507Z" fill="#1475CB"/>
<path d="M354.967 437.821C421.414 437.821 475.28 383.955 475.28 317.508C475.28 251.061 421.414 197.195 354.967 197.195C288.52 197.195 234.654 251.061 234.654 317.508C234.654 383.955 288.52 437.821 354.967 437.821Z" fill="#F8F3F1"/>
<path d="M475.282 317.507C475.282 383.951 421.416 437.817 354.964 437.817C350.06 437.817 345.219 437.523 340.466 436.952C400.078 429.794 446.278 379.047 446.278 317.507C446.278 255.967 400.077 205.22 340.465 198.062C345.218 197.491 350.059 197.197 354.963 197.197C421.415 197.197 475.282 251.063 475.282 317.507Z" fill="#E5E1E5"/>
<path d="M370.624 367.247L345.324 325.062L366.272 312.498L391.572 354.683C392.336 355.957 392.562 357.481 392.202 358.922C391.841 360.362 390.924 361.6 389.65 362.364L378.305 369.168C377.675 369.546 376.976 369.797 376.249 369.905C375.521 370.013 374.78 369.977 374.067 369.799C373.354 369.62 372.682 369.303 372.092 368.865C371.501 368.427 371.002 367.878 370.624 367.247Z" fill="#FEE265"/>
<path d="M355.224 313.069C354.209 313.069 353.205 312.87 352.267 312.481C351.33 312.093 350.478 311.524 349.761 310.807C349.043 310.089 348.474 309.237 348.086 308.3C347.698 307.363 347.498 306.358 347.498 305.343V257.26C347.498 255.211 348.312 253.246 349.761 251.797C351.21 250.348 353.175 249.534 355.224 249.534C357.273 249.534 359.238 250.348 360.687 251.797C362.136 253.246 362.95 255.211 362.95 257.26V305.343C362.95 306.358 362.75 307.363 362.362 308.3C361.974 309.237 361.405 310.089 360.687 310.807C359.97 311.524 359.118 312.093 358.181 312.481C357.243 312.87 356.239 313.069 355.224 313.069Z" fill="#5591D6"/>
<path d="M354.966 334.822C364.529 334.822 372.28 327.071 372.28 317.508C372.28 307.946 364.529 300.194 354.966 300.194C345.404 300.194 337.652 307.946 337.652 317.508C337.652 327.071 345.404 334.822 354.966 334.822Z" fill="#FB9927"/>
<path d="M444.954 325.03H444.804C442.77 325.003 440.828 324.175 439.401 322.725C437.973 321.276 437.175 319.322 437.18 317.287C437.184 315.253 437.99 313.302 439.424 311.859C440.858 310.416 442.803 309.596 444.837 309.577H444.872L444.987 309.578C447.036 309.583 448.999 310.401 450.445 311.853C451.891 313.305 452.701 315.272 452.696 317.321C452.692 319.37 451.874 321.333 450.422 322.779C448.97 324.225 447.003 325.035 444.954 325.03ZM265.099 325.03H264.984C262.935 325.03 260.97 324.216 259.521 322.767C258.072 321.318 257.258 319.353 257.258 317.304C257.258 315.255 258.072 313.29 259.521 311.841C260.97 310.392 262.935 309.578 264.984 309.578H265.099C267.126 309.611 269.06 310.439 270.482 311.885C271.904 313.33 272.702 315.276 272.702 317.304C272.702 319.332 271.904 321.279 270.482 322.724C269.06 324.169 267.126 324.998 265.099 325.03ZM354.711 235.16C353.696 235.16 352.691 234.961 351.754 234.572C350.817 234.184 349.965 233.615 349.247 232.898C348.53 232.18 347.961 231.328 347.573 230.391C347.184 229.454 346.985 228.449 346.985 227.434V227.319C346.985 225.27 347.799 223.305 349.248 221.856C350.697 220.407 352.662 219.593 354.711 219.593C356.76 219.593 358.725 220.407 360.174 221.856C361.623 223.305 362.437 225.27 362.437 227.319V227.434C362.437 228.449 362.237 229.454 361.849 230.391C361.461 231.328 360.892 232.18 360.174 232.898C359.457 233.615 358.605 234.184 357.668 234.572C356.73 234.961 355.725 235.16 354.711 235.16ZM355.226 415.014C354.211 415.014 353.206 414.815 352.269 414.426C351.332 414.038 350.48 413.469 349.762 412.752C349.045 412.034 348.476 411.182 348.088 410.245C347.699 409.308 347.5 408.303 347.5 407.288V407.173C347.5 405.124 348.314 403.159 349.763 401.71C351.212 400.261 353.177 399.447 355.226 399.447C357.275 399.447 359.24 400.261 360.689 401.71C362.138 403.159 362.952 405.124 362.952 407.173V407.288C362.952 408.303 362.752 409.308 362.364 410.245C361.976 411.182 361.407 412.034 360.689 412.752C359.972 413.469 359.12 414.038 358.183 414.426C357.245 414.815 356.24 415.014 355.226 415.014ZM309.818 247.331C308.459 247.333 307.123 246.975 305.946 246.295C304.769 245.615 303.792 244.637 303.115 243.458L303.058 243.358C302.065 241.584 301.812 239.49 302.353 237.531C302.893 235.571 304.184 233.904 305.946 232.889C307.708 231.875 309.798 231.596 311.764 232.112C313.73 232.629 315.414 233.899 316.45 235.648L316.507 235.748C317.183 236.923 317.539 238.254 317.538 239.609C317.537 240.964 317.18 242.295 316.502 243.468C315.824 244.642 314.85 245.616 313.677 246.294C312.504 246.972 311.173 247.33 309.818 247.331ZM277.004 280.32C275.654 280.32 274.329 279.965 273.16 279.29L273.059 279.232C271.305 278.2 270.029 276.516 269.509 274.549C268.989 272.581 269.266 270.487 270.28 268.723C271.295 266.958 272.965 265.665 274.927 265.124C276.889 264.584 278.986 264.839 280.761 265.835L280.862 265.893C282.339 266.742 283.494 268.054 284.148 269.627C284.801 271.2 284.917 272.944 284.477 274.589C284.037 276.235 283.066 277.689 281.715 278.725C280.363 279.761 278.707 280.322 277.004 280.32ZM433.019 369.8C431.668 369.801 430.34 369.445 429.171 368.768L429.071 368.711C427.322 367.675 426.051 365.992 425.535 364.026C425.019 362.06 425.298 359.969 426.312 358.208C427.326 356.446 428.994 355.155 430.953 354.614C432.913 354.073 435.007 354.327 436.781 355.319L436.881 355.376C438.356 356.226 439.51 357.538 440.163 359.111C440.816 360.683 440.931 362.427 440.49 364.072C440.05 365.716 439.079 367.169 437.728 368.205C436.377 369.241 434.721 369.802 433.019 369.8ZM400.119 247.331C398.765 247.33 397.436 246.973 396.263 246.296C395.091 245.62 394.117 244.647 393.439 243.475C392.76 242.304 392.402 240.975 392.399 239.621C392.396 238.267 392.749 236.937 393.422 235.762L393.479 235.662C394.514 233.917 396.194 232.649 398.156 232.132C400.118 231.614 402.205 231.89 403.966 232.899C405.727 233.907 407.02 235.568 407.567 237.522C408.113 239.477 407.869 241.568 406.887 243.343L406.83 243.443C406.153 244.625 405.176 245.608 403.998 246.291C402.819 246.973 401.481 247.332 400.119 247.331ZM309.746 402.831C308.391 402.83 307.06 402.472 305.887 401.794C304.713 401.116 303.739 400.142 303.062 398.968C302.384 397.795 302.027 396.464 302.026 395.109C302.025 393.754 302.381 392.422 303.057 391.248L303.114 391.148C304.15 389.399 305.833 388.129 307.799 387.612C309.765 387.096 311.856 387.375 313.618 388.389C315.379 389.404 316.67 391.071 317.211 393.031C317.752 394.99 317.498 397.084 316.506 398.858L316.449 398.958C315.771 400.137 314.795 401.115 313.618 401.795C312.441 402.475 311.105 402.833 309.746 402.831ZM432.933 280.319C431.23 280.321 429.574 279.76 428.223 278.724C426.872 277.687 425.901 276.234 425.461 274.589C425.021 272.944 425.137 271.199 425.79 269.627C426.444 268.054 427.599 266.742 429.075 265.893L429.176 265.835C430.951 264.839 433.047 264.584 435.01 265.124C436.972 265.665 438.642 266.958 439.656 268.723C440.671 270.487 440.948 272.581 440.428 274.549C439.907 276.516 438.632 278.2 436.878 279.232L436.777 279.29C435.608 279.964 434.282 280.319 432.933 280.319ZM276.919 369.8C275.564 369.802 274.234 369.447 273.06 368.772C271.886 368.096 270.91 367.124 270.231 365.952C269.721 365.075 269.389 364.106 269.254 363.1C269.119 362.095 269.184 361.072 269.444 360.092C269.704 359.111 270.155 358.191 270.77 357.384C271.386 356.578 272.154 355.901 273.032 355.391L273.132 355.333C274.901 354.344 276.989 354.091 278.944 354.626C280.899 355.162 282.565 356.445 283.583 358.198C284.601 359.951 284.89 362.034 284.386 363.997C283.883 365.961 282.628 367.648 280.892 368.695L280.792 368.753C279.616 369.439 278.28 369.8 276.919 369.8ZM400.19 402.831C398.831 402.833 397.495 402.475 396.318 401.795C395.141 401.115 394.164 400.137 393.487 398.958L393.43 398.858C392.437 397.084 392.184 394.99 392.725 393.031C393.265 391.071 394.556 389.404 396.318 388.389C398.08 387.375 400.17 387.096 402.136 387.612C404.102 388.129 405.786 389.399 406.822 391.148L406.879 391.248C407.555 392.422 407.911 393.754 407.91 395.109C407.909 396.464 407.552 397.795 406.874 398.968C406.196 400.142 405.222 401.116 404.049 401.794C402.876 402.472 401.545 402.83 400.19 402.831Z" fill="#B9AFB9"/>
</svg>
