<svg width="512" height="512" viewBox="0 0 512 512" fill="none" xmlns="http://www.w3.org/2000/svg">
<g clip-path="url(#clip0_51_2)">
<path d="M403.835 94.727V396.854C403.835 397.457 403.825 398.06 403.795 398.664C402.85 419.355 385.769 435.853 364.826 435.853H145.532C123.987 435.853 106.523 418.39 106.523 396.854V47.052C106.523 28.533 119.422 13.03 136.725 9.039C139.614 8.37533 142.569 8.04153 145.532 8.044H319.724C325.592 8.04278 331.384 9.36959 336.665 11.925C347.203 16.997 350.171 23.406 369.109 42.77C390.896 66.427 396.097 68.852 400.537 79.094C402.716 84.0178 403.839 89.3429 403.835 94.727Z" fill="#FFC477"/>
<path d="M403.835 94.727V396.854C403.835 397.457 403.825 398.06 403.795 398.664C400.907 399.328 397.952 399.662 394.988 399.659H175.694C154.149 399.659 136.685 382.196 136.685 360.66V10.858C136.685 10.245 136.695 9.641 136.725 9.038C139.614 8.37433 142.568 8.04053 145.532 8.043H319.724C325.592 8.04178 331.383 9.36859 336.665 11.924C341.012 14.0191 344.933 16.9033 348.227 20.43L369.109 42.77L393.017 67.784C396.175 71.078 398.722 74.9081 400.537 79.095C402.715 84.0184 403.839 89.3433 403.835 94.727Z" fill="#FFDAAA"/>
<path d="M503.91 230.021V449.335C503.91 461.53 499.949 472.811 493.233 481.939C483.209 495.592 467.033 504.46 448.785 504.46H305.539C275.096 504.46 250.414 479.778 250.414 449.335V230.021C250.414 207.269 264.208 187.735 283.883 179.32C290.727 176.392 298.095 174.887 305.539 174.896H448.786C479.238 174.896 503.91 199.578 503.91 230.021Z" fill="#4CBA68"/>
<path d="M503.91 230.021V449.335C503.91 461.53 499.949 472.811 493.233 481.939C486.389 484.867 479.021 486.372 471.577 486.363H328.331C297.888 486.363 273.206 461.681 273.206 431.238V211.924C273.206 199.729 277.167 188.448 283.883 179.32C290.727 176.392 298.095 174.887 305.539 174.896H448.786C479.238 174.896 503.91 199.578 503.91 230.021Z" fill="#7CCC92"/>
<path d="M398.285 374.213V399.971C398.285 404.525 394.595 408.215 390.051 408.215H364.283C363.2 408.215 362.128 408.002 361.128 407.588C360.128 407.173 359.219 406.566 358.453 405.801C357.688 405.035 357.081 404.126 356.666 403.126C356.252 402.126 356.039 401.054 356.039 399.971V374.213C356.039 373.13 356.252 372.058 356.666 371.058C357.081 370.058 357.688 369.149 358.453 368.383C359.219 367.618 360.128 367.011 361.128 366.596C362.128 366.182 363.2 365.969 364.283 365.969H390.051C394.595 365.969 398.285 369.658 398.285 374.213Z" fill="#2C733F"/>
<path d="M466.028 224.853V252.451C466.028 262.264 458.075 270.226 448.253 270.226H306.072C296.259 270.226 288.297 262.263 288.297 252.451V224.853C288.297 215.04 296.26 207.078 306.072 207.078H448.253C458.075 207.078 466.028 215.041 466.028 224.853Z" fill="#1E81CE"/>
<path d="M466.028 224.853V252.451C466.028 262.264 458.075 270.226 448.253 270.226H336.233C326.42 270.226 318.458 262.263 318.458 252.451V224.853C318.458 215.04 326.421 207.078 336.233 207.078H448.252C458.075 207.078 466.028 215.041 466.028 224.853Z" fill="#3D9AE2"/>
<path d="M330.553 374.213V399.971C330.554 401.054 330.34 402.126 329.926 403.126C329.512 404.126 328.905 405.035 328.139 405.801C327.373 406.566 326.465 407.173 325.464 407.588C324.464 408.002 323.392 408.215 322.309 408.215H296.541C291.997 408.215 288.297 404.525 288.297 399.971V374.213C288.297 369.659 291.997 365.969 296.541 365.969H322.309C323.392 365.969 324.464 366.182 325.465 366.596C326.465 367.01 327.374 367.617 328.139 368.383C328.905 369.149 329.512 370.058 329.926 371.058C330.341 372.058 330.554 373.13 330.553 374.213ZM398.285 306.852V332.61C398.285 337.164 394.595 340.854 390.051 340.854H364.283C363.201 340.854 362.129 340.641 361.128 340.227C360.128 339.812 359.219 339.205 358.454 338.44C357.688 337.674 357.081 336.765 356.667 335.765C356.252 334.765 356.039 333.693 356.039 332.61V306.852C356.039 305.769 356.252 304.697 356.667 303.697C357.081 302.697 357.688 301.788 358.454 301.022C359.219 300.257 360.128 299.65 361.128 299.235C362.129 298.821 363.201 298.608 364.283 298.608H390.051C394.595 298.608 398.285 302.298 398.285 306.852Z" fill="#2C733F"/>
<path d="M466.842 306.852V332.61C466.842 333.693 466.629 334.765 466.215 335.765C465.801 336.765 465.193 337.674 464.428 338.44C463.662 339.205 462.753 339.812 461.753 340.227C460.753 340.641 459.681 340.854 458.598 340.854H432.84C431.758 340.854 430.685 340.641 429.685 340.227C428.685 339.812 427.776 339.205 427.01 338.44C426.245 337.674 425.638 336.765 425.223 335.765C424.809 334.765 424.596 333.693 424.596 332.61V306.852C424.596 305.769 424.809 304.697 425.223 303.697C425.638 302.697 426.245 301.788 427.01 301.022C427.776 300.257 428.685 299.65 429.685 299.235C430.685 298.821 431.758 298.608 432.84 298.608H458.598C459.681 298.608 460.753 298.821 461.753 299.235C462.753 299.65 463.662 300.257 464.428 301.022C465.193 301.788 465.801 302.697 466.215 303.697C466.629 304.697 466.842 305.769 466.842 306.852Z" fill="#EE8700"/>
<path d="M330.553 306.852V332.61C330.554 333.693 330.34 334.765 329.926 335.765C329.512 336.765 328.905 337.674 328.139 338.44C327.373 339.205 326.465 339.812 325.464 340.227C324.464 340.641 323.392 340.854 322.309 340.854H296.541C291.997 340.854 288.297 337.164 288.297 332.61V306.852C288.297 302.298 291.997 298.608 296.541 298.608H322.309C323.392 298.608 324.464 298.821 325.464 299.235C326.465 299.65 327.373 300.257 328.139 301.022C328.905 301.788 329.512 302.697 329.926 303.697C330.34 304.697 330.554 305.769 330.553 306.852ZM398.285 438.265V464.033C398.285 468.587 394.595 472.277 390.051 472.277H364.283C363.201 472.277 362.129 472.064 361.128 471.65C360.128 471.235 359.219 470.628 358.454 469.863C357.688 469.097 357.081 468.188 356.667 467.188C356.252 466.188 356.039 465.116 356.039 464.033V438.265C356.039 433.721 359.729 430.031 364.283 430.031H390.051C392.235 430.032 394.328 430.9 395.872 432.444C397.416 433.988 398.284 436.082 398.285 438.265ZM330.553 438.265V464.033C330.554 465.116 330.34 466.188 329.926 467.188C329.512 468.188 328.905 469.097 328.139 469.863C327.373 470.628 326.465 471.235 325.464 471.65C324.464 472.064 323.392 472.277 322.309 472.277H296.541C291.997 472.277 288.297 468.587 288.297 464.033V438.265C288.297 433.721 291.997 430.031 296.541 430.031H322.309C326.863 430.031 330.553 433.721 330.553 438.265Z" fill="#2C733F"/>
<path d="M466.842 378.214V458.212C466.842 465.984 460.548 472.277 452.787 472.277H438.651C430.889 472.277 424.596 465.983 424.596 458.212V378.214C424.596 371.448 430.085 365.968 436.842 365.968H454.597C461.363 365.969 466.842 371.448 466.842 378.214Z" fill="#EE8700"/>
<path d="M398.285 374.213V381.874C398.285 386.428 394.595 390.118 390.051 390.118H364.283C363.201 390.118 362.129 389.905 361.128 389.491C360.128 389.076 359.219 388.469 358.454 387.704C357.688 386.938 357.081 386.029 356.667 385.029C356.252 384.029 356.039 382.957 356.039 381.874V374.213C356.039 373.13 356.252 372.058 356.667 371.058C357.081 370.058 357.688 369.149 358.454 368.383C359.219 367.618 360.128 367.011 361.128 366.596C362.129 366.182 363.201 365.969 364.283 365.969H390.051C394.595 365.969 398.285 369.658 398.285 374.213ZM330.553 374.213V381.874C330.554 382.957 330.34 384.029 329.926 385.029C329.512 386.029 328.905 386.938 328.139 387.704C327.373 388.469 326.465 389.076 325.464 389.491C324.464 389.905 323.392 390.118 322.309 390.118H296.541C291.997 390.118 288.297 386.428 288.297 381.874V374.213C288.297 369.659 291.997 365.969 296.541 365.969H322.309C323.392 365.969 324.464 366.182 325.465 366.596C326.465 367.01 327.374 367.617 328.139 368.383C328.905 369.149 329.512 370.058 329.926 371.058C330.341 372.058 330.554 373.13 330.553 374.213ZM398.285 306.852V314.513C398.285 319.067 394.595 322.757 390.051 322.757H364.283C363.201 322.757 362.129 322.544 361.128 322.13C360.128 321.715 359.219 321.108 358.454 320.343C357.688 319.577 357.081 318.668 356.667 317.668C356.252 316.668 356.039 315.596 356.039 314.513V306.852C356.039 305.769 356.252 304.697 356.667 303.697C357.081 302.697 357.688 301.788 358.454 301.022C359.219 300.257 360.128 299.65 361.128 299.235C362.129 298.821 363.201 298.608 364.283 298.608H390.051C394.595 298.608 398.285 302.298 398.285 306.852Z" fill="#317F46"/>
<path d="M466.842 306.852V314.513C466.842 315.596 466.629 316.668 466.215 317.668C465.801 318.668 465.193 319.577 464.428 320.343C463.662 321.108 462.753 321.715 461.753 322.13C460.753 322.544 459.681 322.757 458.598 322.757H432.84C431.758 322.757 430.685 322.544 429.685 322.13C428.685 321.715 427.776 321.108 427.01 320.343C426.245 319.577 425.638 318.668 425.223 317.668C424.809 316.668 424.596 315.596 424.596 314.513V306.852C424.596 305.769 424.809 304.697 425.223 303.697C425.638 302.697 426.245 301.788 427.01 301.022C427.776 300.257 428.685 299.65 429.685 299.235C430.685 298.821 431.758 298.608 432.84 298.608H458.598C459.681 298.608 460.753 298.821 461.753 299.235C462.753 299.65 463.662 300.257 464.428 301.022C465.193 301.788 465.801 302.697 466.215 303.697C466.629 304.697 466.842 305.769 466.842 306.852Z" fill="#FF9811"/>
<path d="M330.553 306.852V314.513C330.554 315.596 330.34 316.668 329.926 317.668C329.512 318.668 328.905 319.577 328.139 320.343C327.373 321.108 326.465 321.715 325.464 322.13C324.464 322.544 323.392 322.757 322.309 322.757H296.541C291.997 322.757 288.297 319.067 288.297 314.513V306.852C288.297 302.298 291.997 298.608 296.541 298.608H322.309C323.392 298.608 324.464 298.821 325.464 299.235C326.465 299.65 327.373 300.257 328.139 301.022C328.905 301.788 329.512 302.697 329.926 303.697C330.34 304.697 330.554 305.769 330.553 306.852ZM398.285 438.265V445.936C398.285 450.49 394.595 454.18 390.051 454.18H364.283C363.201 454.18 362.129 453.967 361.128 453.553C360.128 453.138 359.219 452.531 358.454 451.766C357.688 451 357.081 450.091 356.667 449.091C356.252 448.091 356.039 447.019 356.039 445.936V438.265C356.039 433.721 359.729 430.031 364.283 430.031H390.051C392.235 430.032 394.328 430.9 395.872 432.444C397.416 433.988 398.284 436.082 398.285 438.265ZM330.553 438.265V445.936C330.554 447.019 330.34 448.091 329.926 449.091C329.512 450.091 328.905 451 328.139 451.766C327.373 452.531 326.465 453.138 325.464 453.553C324.464 453.967 323.392 454.18 322.309 454.18H296.541C291.997 454.18 288.297 450.49 288.297 445.936V438.265C288.297 433.721 291.997 430.031 296.541 430.031H322.309C326.863 430.031 330.553 433.721 330.553 438.265Z" fill="#317F46"/>
<path d="M466.842 378.214V440.115C466.842 447.887 460.548 454.18 452.787 454.18H438.651C430.889 454.18 424.596 447.886 424.596 440.115V378.214C424.596 371.448 430.085 365.968 436.842 365.968H454.597C461.363 365.969 466.842 371.448 466.842 378.214Z" fill="#FF9811"/>
<path d="M400.538 79.092H351.657C343.375 79.092 336.661 72.378 336.661 64.096V11.924C341.008 14.0169 344.929 16.8992 348.223 20.424L369.112 42.766L393.017 67.784C396.172 71.0795 398.719 74.908 400.538 79.092Z" fill="#FFB655"/>
<path d="M224.686 480.753C224.686 486.011 222.534 490.777 219.076 494.245C215.607 497.704 210.842 499.855 205.584 499.855H88.5581C78.0521 499.855 69.4561 491.259 69.4561 480.753C69.4561 475.495 71.6081 470.729 75.0661 467.261C78.5351 463.803 83.3001 461.651 88.5581 461.651H205.584C216.09 461.651 224.686 470.247 224.686 480.753Z" fill="#AA6100"/>
<path d="M224.686 442.548C224.686 447.806 222.534 452.572 219.076 456.04C215.607 459.498 210.842 461.65 205.584 461.65H88.5581C78.0521 461.65 69.4561 453.054 69.4561 442.548C69.4561 437.29 71.6081 432.524 75.0661 429.056C78.5351 425.597 83.3001 423.446 88.5581 423.446H205.584C216.09 423.446 224.686 432.042 224.686 442.548Z" fill="#CC7400"/>
<path d="M224.686 404.344C224.686 409.602 222.534 414.368 219.076 417.836C215.607 421.295 210.842 423.446 205.584 423.446H88.5581C78.0521 423.446 69.4561 414.85 69.4561 404.344C69.4561 399.086 71.6081 394.32 75.0661 390.852C78.5351 387.394 83.3001 385.242 88.5581 385.242H205.584C216.09 385.242 224.686 393.838 224.686 404.344Z" fill="#EE8700"/>
<path d="M224.686 366.139C224.686 371.397 222.534 376.163 219.076 379.631C215.607 383.089 210.842 385.241 205.584 385.241H88.5581C78.0521 385.241 69.4561 376.645 69.4561 366.139C69.4561 362.399 70.5521 358.9 72.4321 355.944C73.185 354.75 74.0684 353.644 75.0661 352.646C78.5351 349.187 83.3001 347.036 88.5581 347.036H205.584C216.09 347.037 224.686 355.633 224.686 366.139Z" fill="#FF9811"/>
<path d="M205.58 347.038H88.5581C78.0521 347.038 69.4561 338.442 69.4561 327.936C69.4561 317.43 78.0521 308.834 88.5581 308.834H205.58C216.086 308.834 224.682 317.43 224.682 327.936C224.682 338.442 216.086 347.038 205.58 347.038Z" fill="#FFA733"/>
<path d="M157.482 437.195C156.265 408.682 136.047 385.468 109.556 379.255C104.039 377.964 98.3702 377.432 92.7084 377.675V377.673H68.3534C13.1344 380.067 -12.6036 448.844 29.6814 486.37C41.3314 496.727 56.8734 502.753 73.6764 502.032H92.7064V502.011C94.4434 502.081 96.1944 502.098 97.9624 502.023C101.857 501.854 105.727 501.326 109.524 500.445C136.529 494.141 156.505 470.364 157.491 442.103V442.033C157.553 440.432 157.553 438.823 157.482 437.195Z" fill="#CC7400"/>
<path d="M157.492 442.031V442.101C156.507 470.362 136.53 494.14 109.525 500.443C83.0534 494.22 62.8354 471.016 61.6194 442.513C61.6094 442.372 61.5994 442.242 61.5994 442.101V442.031C60.5434 411.87 81.1544 385.891 109.556 379.255C136.048 385.468 156.266 408.682 157.482 437.195C157.553 438.823 157.553 440.432 157.492 442.031Z" fill="#EE8700"/>
<path d="M448.785 167.356H411.877V94.727C411.877 82.29 406.931 70.698 398.837 62.223L374.99 37.269C354.752 16.417 352.198 10.526 340.144 4.675C334.544 1.88 327.165 0 319.725 0H145.533C119.584 0 98.4812 21.113 98.4812 47.052V300.79H88.5582C73.5882 300.79 61.4132 312.965 61.4132 327.935C61.4132 335.385 64.4292 342.131 69.2952 347.037C64.4292 351.943 61.4132 358.689 61.4132 366.139C61.4132 368.934 61.8052 370.593 61.9462 371.508C3.04021 377.5 -20.4258 450.41 22.6852 489.982C35.7052 501.936 52.9872 508.712 71.7272 507.948C77.9202 507.948 205.422 507.898 205.583 507.898C220.543 507.898 232.728 495.723 232.728 480.753C232.728 473.303 229.712 466.557 224.846 461.651C229.42 457.036 232.356 450.813 232.688 443.896H242.873V449.335C242.873 483.89 270.983 512 305.538 512H448.785C483.34 512 511.45 483.89 511.45 449.335V230.021C511.451 195.466 483.34 167.356 448.785 167.356ZM344.708 28.442C358.061 42.5497 371.409 56.662 384.752 70.779C384.752 70.779 384.762 70.779 384.772 70.799H384.782C384.792 70.819 384.812 70.839 384.822 70.849L384.832 70.859C384.852 70.889 384.872 70.909 384.892 70.919C384.902 70.929 384.912 70.939 384.922 70.959C384.932 70.969 384.942 70.969 384.942 70.979C384.952 70.989 384.962 70.989 384.972 71.009C384.992 71.019 385.002 71.039 385.012 71.049H344.706L344.708 28.442ZM88.5582 316.876H205.584C211.677 316.876 216.643 321.843 216.643 327.935C216.643 334.038 211.676 338.994 205.584 338.994H88.5582C82.4652 338.994 77.4992 334.037 77.4992 327.935C77.4982 321.842 82.4652 316.876 88.5582 316.876ZM88.5582 355.08H205.584C211.677 355.08 216.643 360.047 216.643 366.139C216.643 372.242 211.676 377.198 205.584 377.198H124.751C121.464 375.692 118.057 374.461 114.566 373.518C109.318 372.088 103.918 371.295 98.4802 371.155C96.9019 371.113 95.3226 371.127 93.7452 371.195H78.7352C77.9195 369.634 77.495 367.899 77.4982 366.138C77.4982 360.047 82.4652 355.08 88.5582 355.08ZM216.643 404.344C216.643 410.447 211.676 415.403 205.584 415.403H160.573C157.494 407.217 152.858 399.706 146.92 393.285H205.584C211.676 393.285 216.643 398.251 216.643 404.344ZM49.4282 389.907C44.4208 394.662 40.1511 400.138 36.7602 406.154H27.3902C33.5132 398.563 41.1242 393.164 49.4282 389.907ZM18.8342 421.234H30.5472C30.2862 422.36 28.9582 426.693 28.3552 433.289H15.9792C16.455 429.173 17.4132 425.127 18.8342 421.234ZM20.1312 461.098C18.3403 457.031 17.0702 452.755 16.3512 448.37H28.6372C30.8392 460.857 30.9592 458.705 31.5122 461.098H20.1312ZM30.1652 476.178C35.1012 476.168 37.9672 476.198 38.6402 476.158C41.6844 480.957 45.3188 485.354 49.4582 489.248C42.1692 486.383 35.6852 482.01 30.1652 476.178ZM98.7922 492.878C69.3652 494.145 44.4512 471.353 43.2052 441.855C41.1842 394.894 97.2742 367.849 132.593 400.272C167.41 432.233 146.216 490.927 98.7922 492.878ZM205.584 491.812H140.667C147.885 485.703 153.767 478.174 157.949 469.694H205.584C211.677 469.694 216.643 474.661 216.643 480.753C216.643 486.855 211.676 491.812 205.584 491.812ZM216.553 443.896C215.889 449.365 211.224 453.608 205.584 453.608H163.499C165.011 446.336 165.34 438.867 164.474 431.49H205.584C212.36 431.489 217.417 437.552 216.553 443.896ZM242.873 427.809H228.355C227.342 426.236 226.166 424.773 224.846 423.446C235.352 412.849 235.362 395.838 224.846 385.242C229.712 380.336 232.728 373.59 232.728 366.14C232.728 358.69 229.712 351.944 224.846 347.038C241.756 329.987 229.672 300.791 205.583 300.791H114.566V47.052C114.566 29.981 128.46 16.086 145.532 16.086H328.622V79.093C328.622 80.1493 328.83 81.1954 329.234 82.1714C329.638 83.1474 330.23 84.0342 330.977 84.7811C331.724 85.5281 332.611 86.1205 333.587 86.5246C334.563 86.9286 335.609 87.1364 336.665 87.136H394.836C396.515 93.651 395.479 91.499 395.791 167.355H305.538C270.983 167.355 242.873 195.465 242.873 230.02V427.809ZM496.37 449.335C496.37 475.575 475.026 496.92 448.785 496.92H305.539C279.309 496.92 257.954 475.576 257.954 449.335V230.021C257.954 203.781 279.308 182.436 305.539 182.436H448.786C475.026 182.436 496.371 203.78 496.371 230.021V449.335H496.37Z" fill="black"/>
<path d="M333.428 262.686H306.072C300.443 262.686 295.837 258.08 295.837 252.451V224.853C295.837 219.224 300.443 214.618 306.072 214.618H448.253C453.903 214.618 458.488 219.213 458.488 224.853V252.451C458.488 258.091 453.903 262.686 448.253 262.686H365.943C363.943 262.686 362.026 263.48 360.612 264.894C359.198 266.308 358.403 268.226 358.403 270.226C358.403 272.226 359.198 274.144 360.612 275.558C362.026 276.972 363.943 277.766 365.943 277.766H448.253C462.218 277.766 473.568 266.405 473.568 252.451V224.853C473.568 210.898 462.217 199.538 448.253 199.538H306.072C292.091 199.538 280.757 210.872 280.757 224.853V252.451C280.757 266.432 292.091 277.766 306.072 277.766H333.428C335.428 277.766 337.346 276.972 338.76 275.558C340.174 274.144 340.968 272.226 340.968 270.226C340.968 268.226 340.174 266.308 338.76 264.894C337.346 263.48 335.428 262.686 333.428 262.686ZM296.541 415.755H322.309C331.016 415.755 338.093 408.677 338.093 399.971V374.213C338.093 365.506 331.015 358.429 322.309 358.429H296.541C287.844 358.429 280.757 365.507 280.757 374.213V399.971C280.756 408.677 287.844 415.755 296.541 415.755ZM295.837 374.213C295.837 373.821 296.159 373.509 296.541 373.509H322.309C322.691 373.509 323.013 373.821 323.013 374.213V399.971C323.013 400.158 322.938 400.336 322.806 400.468C322.674 400.6 322.496 400.674 322.309 400.675H296.541C296.355 400.674 296.176 400.6 296.044 400.468C295.912 400.336 295.838 400.158 295.837 399.971V374.213ZM458.598 291.068H432.84C424.133 291.068 417.056 298.146 417.056 306.852V332.61C417.056 341.317 424.134 348.394 432.84 348.394H458.598C467.305 348.394 474.382 341.316 474.382 332.61V306.852C474.382 298.146 467.304 291.068 458.598 291.068ZM459.302 332.61C459.303 332.703 459.285 332.794 459.25 332.88C459.214 332.966 459.163 333.043 459.097 333.109C459.032 333.174 458.954 333.226 458.868 333.262C458.783 333.297 458.691 333.315 458.598 333.314H432.84C432.654 333.313 432.475 333.239 432.343 333.107C432.211 332.975 432.137 332.797 432.136 332.61C432.448 307.124 431.482 306.148 432.84 306.148H458.598C458.691 306.147 458.783 306.165 458.868 306.201C458.954 306.236 459.032 306.288 459.097 306.353C459.163 306.419 459.214 306.496 459.25 306.582C459.285 306.668 459.303 306.759 459.302 306.852V332.61ZM296.541 348.394H322.309C331.016 348.394 338.093 341.316 338.093 332.61V306.852C338.093 298.145 331.015 291.068 322.309 291.068H296.541C287.844 291.068 280.757 298.146 280.757 306.852V332.61C280.756 341.317 287.844 348.394 296.541 348.394ZM295.837 306.852C295.837 306.46 296.159 306.148 296.541 306.148H322.309C322.691 306.148 323.013 306.46 323.013 306.852V332.61C323.013 332.797 322.938 332.975 322.806 333.107C322.674 333.239 322.496 333.313 322.309 333.314H296.541C296.355 333.313 296.176 333.239 296.044 333.107C295.912 332.975 295.838 332.797 295.837 332.61V306.852ZM334.122 427.809C331.226 424.552 327.004 422.491 322.309 422.491H296.541C294.309 422.49 292.102 422.963 290.067 423.88C288.032 424.797 286.216 426.136 284.738 427.809C279.259 433.952 281.119 440.648 280.757 443.895V464.033C280.757 472.74 287.845 479.817 296.541 479.817H322.309C331.016 479.817 338.093 472.739 338.093 464.033V443.895C337.731 440.719 339.571 433.952 334.122 427.809ZM322.309 464.737C296.853 464.425 295.837 465.39 295.837 464.033C295.837 436.757 295.535 437.571 296.541 437.571H322.309C323.546 437.571 322.782 439.29 323.013 443.895C323.012 443.896 323.666 464.737 322.309 464.737ZM454.596 358.428H436.841C425.933 358.428 417.055 367.306 417.055 378.214V458.212C417.055 470.126 426.747 479.818 438.651 479.818H452.787C464.701 479.818 474.383 470.126 474.383 458.212V378.214C474.382 367.306 465.515 358.428 454.596 358.428ZM459.302 458.212C459.302 461.811 456.386 464.737 452.787 464.737H438.651C435.062 464.737 432.136 461.811 432.136 458.212V378.214C432.137 376.967 432.634 375.771 433.516 374.889C434.398 374.006 435.594 373.51 436.841 373.509H454.596C455.844 373.51 457.04 374.006 457.922 374.889C458.804 375.771 459.3 376.967 459.301 378.214L459.302 458.212ZM194.647 219.028C185.453 215.65 178.811 213.21 178.811 204.692C178.811 196.929 183.967 192.993 194.134 192.993C204.927 192.993 207.833 197.744 211.635 197.744C215.773 197.744 218.062 193.352 218.062 190.316C218.062 184.034 207.815 180.919 198.655 180.097V174.433C198.655 170.493 195.45 167.288 191.51 167.288C187.57 167.288 184.365 170.493 184.365 174.433V181C171.84 183.974 164.958 192.625 164.958 205.443C164.958 222.993 177.878 227.848 188.262 231.751C198.428 235.571 206.459 238.589 206.459 250.196C206.459 259.783 201.136 264.644 190.635 264.644C175.267 264.644 175.123 254.268 169.261 254.268C165.631 254.268 162.707 258.332 162.707 261.696C162.707 267.638 171.556 275.448 184.365 277.475V282.948C184.365 286.888 187.57 290.093 191.51 290.093C195.45 290.093 198.655 286.888 198.655 282.948V277.328C212.433 274.735 220.313 264.618 220.313 249.445C220.312 228.458 206.082 223.23 194.647 219.028ZM390.051 422.491H364.283C359.588 422.491 355.365 424.552 352.47 427.809C347.011 433.962 348.861 440.648 348.499 443.895V464.033C348.499 472.74 355.577 479.817 364.283 479.817H390.051C398.748 479.817 405.825 472.739 405.825 464.033V438.265C405.825 433.811 403.965 429.78 400.989 426.914C398.056 424.076 394.133 422.489 390.051 422.491ZM390.051 464.737C364.595 464.425 363.579 465.39 363.579 464.033V438.265C363.579 437.883 363.901 437.571 364.283 437.571H390.051C390.433 437.571 390.745 437.883 390.745 438.265C390.443 463.782 391.388 464.737 390.051 464.737ZM390.051 291.068H364.283C355.576 291.068 348.499 298.146 348.499 306.852V332.61C348.499 341.317 355.577 348.394 364.283 348.394H390.051C392.082 348.394 394.012 348.012 395.792 347.308C401.663 345.006 405.826 339.285 405.826 332.609V306.851C405.825 298.115 398.707 291.068 390.051 291.068ZM390.745 332.61C390.746 332.702 390.729 332.793 390.694 332.878C390.66 332.963 390.609 333.041 390.544 333.106C390.48 333.171 390.403 333.223 390.318 333.259C390.234 333.295 390.143 333.313 390.051 333.314H364.283C364.097 333.313 363.918 333.239 363.786 333.107C363.654 332.975 363.58 332.797 363.579 332.61V306.852C363.579 305.495 364.514 306.45 390.051 306.148C390.433 306.148 390.745 306.46 390.745 306.852V332.61ZM395.792 359.514C393.964 358.792 392.016 358.424 390.051 358.428H364.283C355.576 358.428 348.499 365.506 348.499 374.212V399.97C348.499 408.677 355.577 415.754 364.283 415.754H390.051C398.748 415.754 405.825 408.676 405.825 399.97V374.212C405.825 367.537 401.663 361.816 395.792 359.514ZM390.745 399.97C390.746 400.062 390.729 400.153 390.694 400.238C390.66 400.323 390.609 400.401 390.544 400.466C390.48 400.531 390.403 400.583 390.318 400.619C390.234 400.655 390.143 400.673 390.051 400.674H364.283C364.097 400.673 363.918 400.599 363.786 400.467C363.654 400.335 363.58 400.157 363.579 399.97V374.212C363.579 373.82 363.901 373.508 364.283 373.508H390.051C390.433 373.508 390.745 373.82 390.745 374.212V399.97ZM327.587 118.122H346.528C347.518 118.123 348.499 117.928 349.414 117.549C350.329 117.17 351.161 116.615 351.861 115.915C352.561 115.214 353.117 114.383 353.495 113.468C353.874 112.553 354.069 111.572 354.068 110.582C354.067 108.583 353.273 106.665 351.859 105.251C350.445 103.837 348.528 103.043 346.528 103.042H327.587C325.588 103.043 323.67 103.837 322.256 105.251C320.843 106.665 320.048 108.583 320.047 110.582C320.046 111.572 320.241 112.553 320.62 113.468C320.998 114.383 321.554 115.215 322.254 115.915C322.954 116.615 323.786 117.171 324.701 117.549C325.616 117.928 326.597 118.123 327.587 118.122ZM163.71 118.122H297.426C298.416 118.123 299.397 117.928 300.312 117.549C301.227 117.17 302.059 116.615 302.759 115.915C303.459 115.214 304.015 114.383 304.393 113.468C304.772 112.553 304.967 111.572 304.966 110.582C304.965 108.583 304.171 106.665 302.757 105.251C301.343 103.837 299.426 103.043 297.426 103.042H163.71C161.711 103.043 159.793 103.837 158.379 105.251C156.966 106.665 156.171 108.583 156.17 110.582C156.17 111.572 156.364 112.553 156.743 113.468C157.122 114.383 157.677 115.214 158.377 115.915C159.078 116.615 159.909 117.17 160.824 117.549C161.739 117.928 162.72 118.123 163.71 118.122ZM187.678 155.552C191.84 155.552 195.218 152.174 195.218 148.012C195.218 143.85 191.84 140.472 187.678 140.472H163.71C159.548 140.472 156.17 143.85 156.17 148.012C156.17 152.174 159.548 155.552 163.71 155.552H187.678ZM354.069 148.012C354.068 146.012 353.274 144.095 351.86 142.681C350.446 141.267 348.529 140.473 346.529 140.472H217.839C213.677 140.472 210.299 143.85 210.299 148.012C210.299 152.174 213.677 155.552 217.839 155.552H346.528C348.528 155.551 350.445 154.757 351.859 153.343C353.273 151.929 354.068 150.012 354.069 148.012ZM93.7421 424.154C93.7421 422.259 94.4401 421.715 95.0931 421.353C97.1191 420.232 101.767 419.902 106.024 422.092C107.155 422.673 108.437 423.332 110.105 423.332C117.542 423.332 123.424 409.513 105.659 406.458V405.983C105.659 401.77 102.231 398.342 98.0181 398.342C93.8051 398.342 90.3771 401.77 90.3771 405.983V407.433C82.9331 410.133 78.7221 416.272 78.7221 424.605C78.7221 437.465 88.0651 440.976 94.8891 443.539C101.396 445.984 103.646 447.054 103.646 451.48C103.646 454.247 102.901 456.808 97.4921 456.808C89.6101 456.808 90.5541 450.578 84.6551 450.578C80.4861 450.578 77.3691 454.701 77.3691 458.388C77.3691 463.612 82.8011 468.57 90.3771 470.58V471.152C90.3771 475.365 93.8051 478.793 98.0181 478.793C102.231 478.793 105.659 475.366 105.659 471.152V470.38C113.857 467.745 118.666 460.686 118.666 451.03C118.668 428.117 93.7421 431.557 93.7421 424.154Z" fill="black"/>
</g>
<defs>
<clipPath id="clip0_51_2">
<rect width="512" height="512" fill="white"/>
</clipPath>
</defs>
</svg>
