<svg width="512" height="512" viewBox="0 0 512 512" fill="none" xmlns="http://www.w3.org/2000/svg">
<path d="M214.065 125.173V55.9953C214.065 47.1667 221.2 40.0312 230.029 40.0312H455.945C464.834 40.0312 471.969 47.1667 471.969 55.9953V455.944C471.977 458.051 471.568 460.138 470.766 462.086C469.963 464.034 468.783 465.804 467.294 467.293C465.804 468.783 464.034 469.963 462.087 470.765C460.139 471.568 458.051 471.977 455.945 471.969H230.029C227.927 471.969 225.846 471.554 223.905 470.748C221.965 469.942 220.202 468.761 218.719 467.272C217.236 465.783 216.061 464.016 215.262 462.072C214.464 460.128 214.057 458.046 214.065 455.944V387.008" fill="#81B4FE"/>
<path d="M441.068 471.908H455.944C458.046 471.908 460.126 471.493 462.067 470.687C464.008 469.881 465.771 468.7 467.254 467.211C468.737 465.722 469.912 463.955 470.71 462.012C471.509 460.068 471.916 457.985 471.908 455.884V55.9953C471.916 53.8938 471.509 51.8113 470.71 49.8675C469.912 47.9237 468.737 46.1567 467.254 44.6678C465.771 43.179 464.008 41.9977 462.067 41.1917C460.126 40.3856 458.046 39.9707 455.944 39.9707H441.068V471.908Z" fill="#5A9CFE"/>
<path d="M301.747 40.2726H384.168C392.392 40.2726 398.983 39.4261 398.983 48.3152V57.5671C398.983 66.4562 392.331 73.5917 384.168 73.5917H301.807C293.583 73.5917 286.992 66.4562 286.992 57.5671V48.3756C286.992 39.4865 293.583 40.3331 301.807 40.3331L301.747 40.2726Z" fill="#CCCCCC"/>
<path d="M180.321 277.194L39.7891 341.051L215.757 421.052L391.725 341.051L250.951 277.073" fill="#5FD35F"/>
<path d="M169.86 257.481C165.647 249.546 163.561 240.655 163.806 231.675C164.051 222.694 166.619 213.931 171.258 206.237C175.898 198.544 182.451 192.184 190.279 187.777C198.108 183.369 206.945 181.065 215.928 181.089C224.912 181.113 233.737 183.463 241.542 187.912C249.347 192.36 255.867 198.755 260.466 206.473C265.064 214.19 267.585 222.967 267.783 231.949C267.981 240.931 265.848 249.811 261.593 257.723L215.817 341.051L169.86 257.481Z" fill="#FF2A2A"/>
<path d="M268.85 337.302L340.507 364.393L391.785 341.052L315.17 306.281C305.93 320.241 292.152 330.58 276.166 335.549L268.85 337.302Z" fill="#EEFFB7"/>
<path d="M420.752 181.108L441.311 141.5C443.153 137.864 444.107 133.844 444.093 129.768C444.256 123.405 441.891 117.237 437.517 112.613C433.142 107.989 427.114 105.287 420.752 105.097C414.379 105.271 408.335 107.967 403.947 112.592C399.56 117.218 397.187 123.395 397.35 129.768C397.35 134.001 398.378 137.932 400.131 141.379L420.691 181.108H420.752Z" fill="#FF2A2A"/>
<path d="M143.194 341.051C120.759 348.065 102.558 363.727 104.13 370.318L192.537 410.47C197.193 383.078 187.095 358.648 176.392 338.874C165.315 336.853 153.911 337.601 143.194 341.051Z" fill="#EEFFB7"/>
<path d="M240.55 233.112C240.534 239.677 237.915 245.968 233.267 250.604C228.62 255.241 222.323 257.844 215.758 257.844C209.193 257.828 202.902 255.209 198.266 250.561C193.629 245.914 191.025 239.617 191.025 233.052C191.041 226.487 193.661 220.196 198.308 215.56C202.956 210.923 209.253 208.319 215.818 208.319C222.383 208.335 228.674 210.955 233.31 215.602C237.947 220.25 240.55 226.547 240.55 233.112Z" fill="#D4FF2A"/>
<path d="M216.18 343.167C181.894 342.683 168.59 332.887 143.193 341.111C137.63 342.865 132.308 345.344 127.471 348.065C127.471 332.645 127.652 316.742 127.773 301.141L180.322 277.255C192.416 299.024 204.933 321.096 216.18 343.167Z" fill="#EEFFB7"/>
<path d="M230.149 32.2305C223.798 32.2624 217.716 34.8038 213.231 39.3007C208.745 43.7977 206.219 49.8855 206.203 56.2371V173.912C192.151 176.191 179.365 183.389 170.128 194.221C160.891 205.054 155.803 218.816 155.771 233.052C156.194 250.951 162.544 260.747 169.437 273.325L36.4638 333.795C35.0571 334.424 33.8626 335.446 33.0244 336.739C32.1862 338.032 31.7402 339.54 31.7402 341.081C31.7402 342.622 32.1862 344.13 33.0244 345.423C33.8626 346.716 35.0571 347.739 36.4638 348.368L206.203 425.528V455.702C206.203 468.885 217.027 479.709 230.149 479.709H455.763C468.946 479.709 479.77 468.824 479.77 455.702V56.2371C479.738 49.8799 477.198 43.7922 472.703 39.297C468.208 34.8017 462.12 32.2623 455.763 32.2305H230.149ZM230.149 48.1946H279.009V57.5674C279.009 70.3871 288.926 81.574 301.806 81.574H384.167C396.986 81.574 406.964 70.3871 406.964 57.5674V48.3155C422.928 48.0736 439.618 48.1946 455.763 48.1946C460.359 48.1946 463.685 51.6414 463.685 56.2371V455.702C463.685 460.298 460.359 463.563 455.824 463.563H230.089C229.042 463.596 227.999 463.416 227.024 463.034C226.049 462.653 225.161 462.077 224.415 461.342C223.669 460.607 223.079 459.728 222.683 458.759C222.286 457.789 222.09 456.75 222.107 455.702V426.979L394.991 348.368C396.38 347.731 397.558 346.709 398.383 345.423C399.209 344.136 399.647 342.64 399.647 341.111C399.647 339.583 399.209 338.087 398.383 336.8C397.558 335.514 396.38 334.492 394.991 333.855L323.273 301.201C335.307 268.547 340.386 249.378 350.485 235.41C361.49 219.99 379.631 208.198 423.472 188.546C424.449 188.213 425.345 187.681 426.105 186.984C426.865 186.286 427.472 185.439 427.886 184.494C434.72 171.372 441.553 158.19 448.446 145.128C450.848 140.365 452.092 135.103 452.074 129.769C452.221 121.261 448.997 113.041 443.106 106.901C437.216 100.762 429.136 97.2002 420.63 96.9939C412.14 97.2158 404.082 100.786 398.214 106.926C392.346 113.066 389.144 121.277 389.307 129.769C389.307 135.211 390.516 140.472 392.874 145.007C398.558 155.589 404.061 166.595 409.685 177.359C370.077 195.439 350.424 208.198 337.544 226.037C325.329 243.09 320.129 262.924 308.519 294.55L262.017 273.385C272.539 255.184 275.562 245.448 275.744 233.052C275.744 202.151 252.16 176.693 222.107 173.489V56.2371C221.925 50.7948 226.4 48.1341 230.149 48.1946ZM390.879 48.5574V57.5674C390.879 62.405 387.734 65.6099 384.167 65.6099H301.746C298.118 65.6099 294.913 62.4655 294.913 57.5674V48.4969L390.879 48.5574ZM244.904 54.1206C243.846 54.1126 242.796 54.3151 241.817 54.7164C240.837 55.1178 239.948 55.7099 239.199 56.4583C238.451 57.2067 237.859 58.0965 237.457 59.0759C237.056 60.0553 236.853 61.1047 236.862 62.1631C236.862 66.5775 240.49 70.2057 244.904 70.2057H260.868C265.282 70.2057 268.911 66.5775 268.911 62.1631C268.919 61.1047 268.716 60.0553 268.315 59.0759C267.914 58.0965 267.321 57.2067 266.573 56.4583C265.825 55.7099 264.935 55.1178 263.955 54.7164C262.976 54.3151 261.927 54.1126 260.868 54.1206H244.904ZM420.751 113.079C429.096 113.079 436.11 120.214 436.11 129.769C436.135 132.599 435.493 135.396 434.236 137.932L420.751 163.813L407.266 137.811C406.021 135.314 405.379 132.559 405.392 129.769C405.573 118.037 412.95 113.563 420.751 113.079ZM215.757 189.09C223.391 189.133 230.882 191.156 237.501 194.959C244.119 198.763 249.638 204.217 253.519 210.791C257.4 217.364 259.509 224.832 259.642 232.464C259.775 240.096 257.926 247.632 254.277 254.337L215.757 324.482L176.875 253.732C173.51 247.36 171.766 240.258 171.796 233.052C171.796 208.622 191.388 189.09 215.757 189.09ZM183.043 233.052C183.043 251.011 197.798 265.766 215.757 265.766C224.43 265.734 232.738 262.279 238.876 256.153C245.014 250.026 248.485 241.724 248.532 233.052C248.5 224.375 245.035 216.063 238.894 209.933C232.753 203.803 224.435 200.353 215.757 200.337C211.464 200.329 207.212 201.168 203.243 202.805C199.274 204.443 195.667 206.847 192.629 209.88C189.59 212.913 187.179 216.515 185.535 220.481C183.89 224.447 183.043 228.698 183.043 232.991V233.052ZM215.757 216.362C225.13 216.362 232.568 223.679 232.568 233.052C232.568 242.424 225.13 249.802 215.757 249.802C206.385 249.802 199.007 242.364 199.007 233.052C199.007 223.679 206.445 216.362 215.757 216.362ZM177.178 287.414L203.059 334.339C180.322 331.557 154.804 328.594 135.574 335.306L135.756 306.281L177.178 287.414ZM254.458 287.414L303.379 309.607C287.656 332.767 254.216 332.706 228.396 334.883L254.458 287.414ZM119.731 313.537L119.429 343.53C111.93 347.884 106.367 354.234 100.804 360.039L59.0796 341.051L119.731 313.537ZM317.952 316.258L372.556 341.051L340.265 355.745L292.917 337.846C304.709 332.343 312.57 327.082 317.952 316.258ZM268.366 345.586L319.766 365.058L215.818 412.345L201.849 405.935C205.961 384.529 199.37 366.146 190.844 349.094C224.526 352.843 243.816 350.726 268.366 345.586ZM171.312 346.191C181.169 364.513 189.09 380.357 186.792 399.102L115.982 366.872C131.099 346.372 152.627 343.53 171.312 346.191Z" fill="black"/>
</svg>
