<svg width="512" height="512" viewBox="0 0 512 512" fill="none" xmlns="http://www.w3.org/2000/svg">
<g clip-path="url(#clip0_57_2)">
<path d="M210.736 419.098L226.192 440.833C181.084 437.771 139.588 427.775 107.115 411.92C71.5423 394.551 51.141 371.799 51.141 349.497C51.141 327.196 71.5433 304.443 107.115 287.075C145.618 268.275 196.803 257.709 251.658 257.179V227.162C192.307 227.704 136.446 239.348 93.9437 260.101C46.9846 283.03 21.123 314.779 21.123 349.498C21.123 384.218 46.9856 415.967 93.9437 438.896C130.633 456.809 177.274 467.939 227.522 470.998L210.736 494.603L235.199 512L274.416 456.851L235.199 401.702L210.736 419.098Z" fill="#FFE797"/>
<path d="M418.054 260.101C375.868 239.503 320.522 227.872 261.664 227.17V257.192C316.019 257.878 366.689 268.427 404.883 287.075C440.455 304.443 460.857 327.196 460.857 349.497C460.857 361.772 454.741 380.512 425.602 400.088C402.553 415.572 369.858 427.793 332.871 434.835V465.35C376.61 457.69 414.409 443.771 442.342 425.006C474.092 403.676 490.876 377.565 490.876 349.498C490.876 314.777 465.013 283.029 418.054 260.101Z" fill="#FFB54C"/>
<path d="M112.58 143.419C112.58 253.852 240.46 371.376 245.903 376.325L255.999 385.503L264.004 164.098L255.999 0C176.918 0 112.58 64.3376 112.58 143.419Z" fill="#FF637B"/>
<path d="M255.998 0V385.503L266.094 376.325C271.537 371.376 399.417 253.852 399.417 143.419C399.417 64.3376 335.08 0 255.998 0Z" fill="#E20A6C"/>
<path d="M197.631 143.419C197.631 175.655 223.764 201.787 255.999 201.787L275.01 153.091L255.999 85.0498C223.764 85.0508 197.631 111.183 197.631 143.419Z" fill="#F5F8F9"/>
<path d="M255.998 85.0508V201.788C288.234 201.788 314.366 175.655 314.366 143.42C314.367 111.183 288.234 85.0508 255.998 85.0508Z" fill="#E6E6FF"/>
</g>
<defs>
<clipPath id="clip0_57_2">
<rect width="512" height="512" fill="white"/>
</clipPath>
</defs>
</svg>
