<svg width="512" height="512" viewBox="0 0 512 512" fill="none" xmlns="http://www.w3.org/2000/svg">
<g clip-path="url(#clip0_56_2)">
<path d="M508.8 491.09L418.8 281.09C417.643 278.392 415.72 276.092 413.269 274.477C410.818 272.861 407.947 272 405.012 272H105.012C99.0116 272 93.5896 275.574 91.2266 281.09L1.22664 491.09C-3.00836 500.969 4.24164 512 15.0116 512H495.012C505.758 512 513.043 500.988 508.801 491.09H508.8Z" fill="#E0F4FE"/>
<path d="M495.012 512H255.012V272H405.012C411.012 272 416.434 275.578 418.801 281.09L508.801 491.09C513.043 500.988 505.761 512 495.011 512H495.012Z" fill="#BCDCFE"/>
<path d="M63.7069 426.438L51.1599 450.71C51.1599 450.71 41.1559 474.062 37.7539 482H218.8L238.218 479.672L144.19 385.172L63.7069 426.438Z" fill="#159BE1"/>
<path d="M444.383 421.492L439.605 405.782L395.125 302H341.453L305.133 302.656L144.191 385.172L238.219 479.672L261.223 482H292.433L328.324 480.996L444.383 421.492Z" fill="#5DC983"/>
<path d="M444.383 421.488L328.324 481L292.434 482H261.223L255.012 481.371V328.36L305.132 302.661L329.395 302.22L341.453 302.001H395.121L439.601 405.782L444.383 421.488ZM114.902 302C105.707 323.457 69.742 407.36 69.742 407.36L63.707 426.437L305.129 302.657L275.613 302H114.902Z" fill="#0EAB61"/>
<path d="M305.133 302.66L255.012 328.36V302H275.613L305.133 302.66Z" fill="#0EAB61"/>
<path d="M444.383 421.492L328.324 480.996L357.664 482H472.262C465.328 465.811 458.391 449.622 451.453 433.434L444.383 421.492Z" fill="#159BE1"/>
<path d="M169.323 390.102L261.222 482H218.799L141.259 404.46L51.2402 450.52L69.7402 407.36C72.2012 406.102 273.15 303.258 275.611 302H341.451L169.323 390.102Z" fill="#FED941"/>
<path d="M255.012 475.79L261.222 482H255.012V475.79Z" fill="#FEB99E"/>
<path d="M341.453 302L323.484 311.2L255.012 346.238V312.54C267.332 306.24 275.145 302.24 275.613 302.001L341.453 302ZM451.453 433.43L357.664 482H292.434L439.602 405.781L451.453 433.43Z" fill="#FCBE29"/>
<path d="M255.012 0C181.687 0 120.012 53.75 120.012 147C120.012 241.523 238.645 379.035 243.695 384.844C249.665 391.711 260.352 391.723 266.332 384.844C271.382 379.035 390.012 241.524 390.012 147C390.012 54.61 327.207 0 255.012 0ZM255.012 180C230.199 180 210.012 159.812 210.012 135C210.012 110.188 230.199 90 255.012 90C279.825 90 300.012 110.188 300.012 135C300.012 159.812 279.824 180 255.012 180Z" fill="#EE3616"/>
<path d="M255.012 0V90C279.824 90 300.012 110.191 300.012 135C300.012 159.809 279.824 180 255.012 180V390C259.184 390 263.344 388.281 266.332 384.84C310.574 333.98 390.012 223.203 390.012 147C390.012 54.61 327.203 0 255.012 0Z" fill="#CB0010"/>
</g>
<defs>
<clipPath id="clip0_56_2">
<rect width="512" height="512" fill="white"/>
</clipPath>
</defs>
</svg>
