<svg width="512" height="512" viewBox="0 0 512 512" fill="none" xmlns="http://www.w3.org/2000/svg">
<path d="M11 257C11 121.867 120.402 12.2901 255.465 12.0001C391.379 11.7101 500.925 120.945 501 256.86C501.04 323.906 474.137 384.664 430.535 428.922C423.395 436.172 411.985 436.805 403.879 430.656C362.78 399.496 311.55 381 256 381C200.332 381 149.004 399.574 107.863 430.855C99.859 436.937 88.637 436.191 81.574 429.035C37.938 384.797 11 324.047 11 257Z" fill="#B0DDE9"/>
<path d="M266 258.582C266 264.105 261.523 268.582 256 268.582C250.477 268.582 246 264.105 246 258.582C246 253.059 250.477 248.582 256 248.582C261.523 248.582 266 253.059 266 258.582ZM256 211C250.477 211 246 215.477 246 221C246 226.523 250.477 231 256 231C261.523 231 266 226.523 266 221C266 215.477 261.523 211 256 211ZM256 173.418C250.477 173.418 246 177.895 246 183.418C246 188.941 250.477 193.418 256 193.418C261.523 193.418 266 188.941 266 183.418C266 177.895 261.523 173.418 256 173.418ZM202.215 251.512C198.312 255.418 198.312 261.75 202.215 265.652C206.121 269.559 212.453 269.559 216.359 265.652C220.262 261.75 220.262 255.418 216.359 251.512C212.453 247.605 206.121 247.605 202.215 251.512ZM175.641 224.937C171.734 228.844 171.734 235.176 175.641 239.078C179.547 242.984 185.879 242.984 189.781 239.078C193.687 235.176 193.687 228.844 189.781 224.938C185.879 221.031 179.547 221.031 175.641 224.938V224.937ZM149.066 198.363C145.16 202.266 145.16 208.598 149.066 212.503C152.972 216.408 159.305 216.41 163.207 212.503C167.113 208.598 167.113 202.266 163.207 198.363C159.305 194.457 152.973 194.457 149.067 198.363H149.066ZM362.934 198.363C359.027 194.457 352.695 194.457 348.793 198.363C344.887 202.266 344.887 208.598 348.793 212.503C352.695 216.41 359.027 216.41 362.933 212.503C366.839 208.596 366.841 202.266 362.934 198.363ZM322.214 224.937C318.312 228.844 318.312 235.176 322.214 239.078C326.121 242.984 332.454 242.984 336.359 239.078C340.262 235.176 340.262 228.844 336.359 224.938C332.453 221.031 326.121 221.031 322.215 224.938L322.214 224.937ZM295.641 251.512C291.734 255.418 291.734 261.75 295.641 265.652C299.547 269.559 305.879 269.559 309.781 265.652C313.687 261.75 313.687 255.418 309.781 251.512C305.879 247.605 299.547 247.605 295.641 251.512Z" fill="#95BCC9"/>
<path d="M431 276V428.441C386.531 473.824 324.559 502 256 502C187.441 502 125.469 473.824 81 428.441V302.363L19.73 339.121C11.047 344.332 0 338.078 0 327.95C0 323.587 2.188 319.513 5.824 317.099L87.418 263.712C87.609 263.575 88.218 263.196 88.218 263.196C90.5602 261.761 93.2532 261.001 96 261H416C424.285 261 431 267.715 431 276Z" fill="#DCA050"/>
<path d="M512 327.95C512 338.078 500.953 344.332 492.27 339.121L431 302.363V428.441C386.531 473.824 324.559 502 256 502C201.29 502 150.777 484.062 110 453.758V276C110 267.715 116.715 261 125 261H416C418.855 261 421.504 261.785 423.777 263.172C423.777 263.172 424.367 263.547 424.563 263.68L506.176 317.098C507.966 318.286 509.435 319.899 510.451 321.792C511.467 323.685 511.999 325.8 512 327.949V327.95Z" fill="#EBAE56"/>
<path d="M186.855 451V467.57C186.855 473.094 182.379 477.57 176.855 477.57H160.285C154.762 477.57 150.285 473.094 150.285 467.57V451C150.285 445.477 154.762 441 160.285 441H176.855C182.379 441 186.855 445.477 186.855 451ZM126.57 441H110C106.016 441 102.582 443.34 100.977 446.715C111.962 455.699 123.705 463.715 136.074 470.672C136.394 469.695 136.57 468.652 136.57 467.57V451C136.57 445.477 132.094 441 126.57 441ZM227.145 441H210.57C205.05 441 200.57 445.477 200.57 451V467.57C200.57 473.094 205.05 477.57 210.57 477.57H227.145C232.665 477.57 237.145 473.094 237.145 467.57V451C237.145 445.477 232.665 441 227.145 441Z" fill="#CE9047"/>
<path d="M94.8603 260.043C95.2397 260.015 95.6199 260.001 96.0003 260H416.164C423.582 260.078 428.742 267.46 426.594 274.563L393.223 384.843C392.291 387.925 390.392 390.625 387.807 392.544C385.221 394.464 382.087 395.5 378.867 395.5H131.293C128.039 395.5 124.872 394.442 122.272 392.484C119.672 390.526 117.779 387.776 116.879 384.648L85.1453 274.402C83.1993 267.637 87.8363 260.57 94.8603 260.043Z" fill="#FFF2B4"/>
<path d="M336 81C336 125.184 300.184 161 256 161C211.816 161 176 125.184 176 81C176 36.816 211.816 1 256 1C300.184 1 336 36.816 336 81Z" fill="#73D37A"/>
<path d="M320.422 128.422C305.855 148.18 282.43 161 256 161C211.816 161 176 125.184 176 81.0001C176 54.5701 188.82 31.1451 208.578 16.5781C198.793 29.8481 193 46.2461 193 64.0001C193 108.184 228.816 144 273 144C290.754 144 307.152 138.207 320.422 128.422Z" fill="#49CB5C"/>
<path d="M280.07 31.0001C283.977 31.0001 287.828 31.8711 291.352 33.5501L304.719 39.9141C305.401 40.2389 305.978 40.7503 306.382 41.3892C306.785 42.0281 307 42.7683 307 43.5241V67.0001C307 69.2101 305.21 71.0001 303 71.0001H286V126C286 127.326 285.473 128.598 284.536 129.536C283.598 130.473 282.326 131 281 131H231C229.674 131 228.402 130.473 227.464 129.536C226.527 128.598 226 127.326 226 126V71.0001H209C206.79 71.0001 205 69.2101 205 67.0001V43.5271C205 41.9841 205.887 40.5781 207.281 39.9141L220.648 33.5511C224.172 31.8715 228.026 31 231.93 31.0001C232.973 31.0001 233.984 31.3981 234.719 32.1401C240.152 37.6101 247.679 41.0001 256 41.0001C264.321 41.0001 271.848 37.6101 277.281 32.1371C277.648 31.7733 278.084 31.4856 278.563 31.2905C279.041 31.0954 279.554 30.9967 280.071 31.0001H280.07Z" fill="#DDF4BA"/>
<path d="M160 131C160 175.184 124.184 211 80 211C35.816 211 0 175.184 0 131C0 86.816 35.816 51 80 51C124.184 51 160 86.816 160 131Z" fill="#FD7A7A"/>
<path d="M144.422 178.422C129.855 198.18 106.43 211 80 211C35.816 211 0 175.184 0 131C0 104.57 12.82 81.1451 32.578 66.5781C22.793 79.8481 17 96.2461 17 114C17 158.184 52.816 194 97 194C114.754 194 131.152 188.207 144.422 178.422Z" fill="#FD5757"/>
<path d="M125 137.922C125 157.156 104.852 181.461 80 181.461C55.148 181.461 35 157.156 35 137.921C35 129.848 38.55 123.949 44.512 119.824C50.648 115.57 58.523 114.98 65.48 117.704C68.553 118.912 71.7616 119.74 75.035 120.172C75.235 116.222 76.363 112.512 78.195 109.254C71.301 111.84 62.977 110.172 57.133 104.328C50.977 98.1762 49.449 89.2582 52.653 82.1722C59.743 78.9692 68.656 80.4962 74.809 86.6522C80.223 92.0622 82.055 99.6092 80.239 106.176C84.816 100.27 91.973 96.4612 100.004 96.4612C102.766 96.4612 105.004 98.6952 105.004 101.461C105.004 102.787 104.477 104.059 103.54 104.997C102.602 105.934 101.33 106.461 100.004 106.461C92.172 106.461 85.73 112.492 85.066 120.156C88.3055 119.722 91.4808 118.898 94.523 117.703C101.477 114.98 109.352 115.57 115.493 119.82C121.449 123.95 125 129.848 125 137.922Z" fill="#FDCBBB"/>
<path d="M512 131C512 175.184 476.184 211 432 211C387.816 211 352 175.184 352 131C352 86.816 387.816 51 432 51C476.184 51 512 86.816 512 131Z" fill="#649EB0"/>
<path d="M496.422 178.422C481.855 198.18 458.43 211 432 211C387.816 211 352 175.184 352 131C352 104.57 364.82 81.1451 384.578 66.5781C374.793 79.8481 369 96.2461 369 114C369 158.184 404.816 194 449 194C466.754 194 483.152 188.207 496.422 178.422Z" fill="#458FA4"/>
<path d="M413.5 116C413.5 120.14 410.14 123.5 406 123.5C401.86 123.5 398.5 120.14 398.5 116C398.5 111.86 401.86 108.5 406 108.5C410.14 108.5 413.5 111.86 413.5 116ZM466 108.5C461.86 108.5 458.5 111.86 458.5 116C458.5 120.14 461.86 123.5 466 123.5C470.14 123.5 473.5 120.14 473.5 116C473.5 111.86 470.14 108.5 466 108.5ZM490 155.613C490 164.113 483.11 171 474.613 171C471.056 171 467.61 169.768 464.859 167.513C462.109 165.258 460.225 162.12 459.527 158.633L459.141 156.687C458.255 152.263 455.863 148.283 452.374 145.423C448.884 142.563 444.512 141 440 141H432C422.7 141 414.687 147.566 412.863 156.688L412.477 158.633C411.778 162.121 409.893 165.259 407.142 167.513C404.391 169.768 400.944 171 397.387 171C388.891 171 382.004 164.11 382.004 155.613C382.004 145.887 382.774 136.176 384.313 126.57L387.371 107.434C388.887 97.964 397.055 91 406.645 91H465.359C474.945 91 483.113 97.965 484.629 107.434L487.691 126.57C489.227 136.175 489.999 145.886 490 155.613ZM421 116C421 107.715 414.285 101 406 101C397.715 101 391 107.715 391 116C391 124.285 397.715 131 406 131C414.285 131 421 124.285 421 116ZM434 127C434 124.79 432.21 123 430 123C427.79 123 426 124.79 426 127C426 129.21 427.79 131 430 131C432.21 131 434 129.21 434 127ZM446 127C446 124.79 444.21 123 442 123C439.79 123 438 124.79 438 127C438 129.21 439.79 131 442 131C444.21 131 446 129.21 446 127ZM481 116C481 107.715 474.285 101 466 101C457.715 101 451 107.715 451 116C451 124.285 457.715 131 466 131C474.285 131 481 124.285 481 116Z" fill="#B0DDE9"/>
</svg>
