<svg xmlns="http://www.w3.org/2000/svg" version="1.1" xmlns:xlink="http://www.w3.org/1999/xlink" width="512" height="512" x="0" y="0" viewBox="0 0 512 512" style="enable-background:new 0 0 512 512" xml:space="preserve"><g><circle cx="256" cy="256" r="248.17" fill="#d15573" opacity="1" data-original="#d15573"></circle><path fill="#c21d44" d="M271.67 488.5C134.61 488.5 23.5 377.39 23.5 240.33c0-64.544 24.646-123.327 65.032-167.468C38.939 118.237 7.83 183.483 7.83 256c0 137.061 111.11 248.17 248.17 248.17 72.517 0 137.763-31.109 183.138-80.702C394.997 463.854 336.214 488.5 271.67 488.5z" opacity="1" data-original="#c21d44"></path><path fill="#e5ecf5" d="M53.5 218.596h405.032v74.809H53.5z" opacity="1" data-original="#e5ecf5"></path><path fill="#cad8eb" d="M75.943 270.961v-52.365H53.5v74.808h405.032v-22.443z" opacity="1" data-original="#cad8eb"></path><path fill="#ffffff" d="M278.495 151h15v15h-15zM75.995 241h15v15h-15zM106.123 241h15v15h-15z" opacity="1" data-original="#ffffff"></path><path d="M437.019 74.981C388.667 26.629 324.38 0 256 0S123.333 26.629 74.981 74.981 0 187.62 0 256c0 64.323 23.949 125.814 67.436 173.149 43.221 47.044 101.926 76.098 165.303 81.808l1.347-14.959C109.198 484.746 15.019 381.569 15.019 256 15.019 123.123 123.123 15.019 256 15.019S496.981 123.123 496.981 256c0 125.681-94.271 228.866-219.282 240.018l1.335 14.96c63.426-5.658 122.187-34.69 165.457-81.749C488.025 381.883 512 320.362 512 256c0-68.38-26.629-132.667-74.981-181.019z" fill="#000000" opacity="1" data-original="#000000"></path><path d="m248.501 496.866-.461 15.013a262.614 262.614 0 0 0 15.886.001l-.457-15.013c-4.968.152-10.043.151-14.968-.001zM466.302 211.038h-30.07v15.019h15.051v59.886H60.749v-59.886h360.464v-15.019H45.729v89.924h420.573zM150.859 120.884v44.883c0 16.563 13.475 30.129 30.039 30.129s30.039-13.566 30.039-30.129v-44.883h-15.019v44.883c0 8.282-6.738 15.019-15.019 15.019s-15.019-6.738-15.019-15.019v-44.883zM225.956 135.828h22.529v60.068h15.019v-60.068h22.529v-14.944h-60.077zM135.84 166.06v-15.12c0-16.563-13.475-30.056-30.039-30.056s-30.039 13.493-30.039 30.056v15.12c0 16.563 13.475 29.836 30.039 29.836s30.039-13.273 30.039-29.836zm-45.058 0v-15.12c0-8.282 6.738-15.019 15.019-15.019s15.019 6.738 15.019 15.019v15.12c0 8.282-6.738 15.019-15.019 15.019s-15.019-6.737-15.019-15.019zM368.64 166.06v-15.12c0-16.563-13.475-30.056-30.039-30.056-16.563 0-30.039 13.493-30.039 30.056v15.12c0 16.563 13.475 29.836 30.039 29.836 16.563 0 30.039-13.273 30.039-29.836zm-45.058 0v-15.12c0-8.282 6.738-15.019 15.019-15.019 8.282 0 15.019 6.738 15.019 15.019v15.12c0 8.282-6.738 15.019-15.019 15.019-8.282 0-15.019-6.737-15.019-15.019zM428.728 135.904v-15.02h-45.069v75.012h15.019v-29.985h15.03v-15.02h-15.03v-14.987zM203.4 391.125v-59.951h22.529v-15.146h-60.077v15.146h22.529v59.951zM346.073 331.062h15.047v-15.034h-15.047c-20.74 0-37.612 16.887-37.612 37.627 0 20.43 17.268 37.47 37.682 37.47h14.992l-.028-14.905h-14.991c-12.461 0-22.635-10.06-22.635-22.565-.002-12.458 10.134-22.593 22.592-22.593zM128.551 376.22H98.285l.067 14.905h30.267c29.395-1.194 29.616-44.228-.08-45.167l-7.659-.007c-9.695-.174-9.703-14.608.006-14.777h30.026v-15.146h-30.026c-29.537.782-29.546 44.135-.021 44.942l7.66.007c9.812.159 9.625 14.941.026 15.243zM263.744 391.125c16.563 0 30.039-13.361 30.039-29.924v-15.12c0-16.563-13.475-30.053-30.039-30.053-16.563 0-30.039 13.49-30.039 30.053v15.12c0 16.563 13.476 29.924 30.039 29.924zm-15.019-45.044c0-8.282 6.738-15.019 15.019-15.019 8.282 0 15.019 6.738 15.019 15.019v15.12c0 8.282-6.738 15.019-15.019 15.019-8.282 0-15.019-6.738-15.019-15.019zM421.191 323.538v-7.51h-15.019v7.51c0 9.79-6.279 18.137-15.019 21.237v-28.747h-15.019v75.097h15.019v-28.682c8.741 3.1 15.019 11.447 15.019 21.237v7.51h15.019v-7.51c0-12.288-5.934-23.217-15.086-30.071 9.152-6.854 15.086-17.783 15.086-30.071zM279.12 92.26l6.077-43.28 14.87 2.089-6.077 43.278zM210.547 49.94l14.87-2.087 6.076 43.28-14.87 2.087zM248.49 47.081h15.019v43.716H248.49zM279 420.036l14.87-2.088 6.076 43.28-14.87 2.088zM210.427 462.345l6.077-43.28 14.87 2.088-6.077 43.28zM248.459 421.495h15.019v43.716h-15.019z" fill="#000000" opacity="1" data-original="#000000"></path></g></svg>