<svg width="512" height="512" viewBox="0 0 512 512" fill="none" xmlns="http://www.w3.org/2000/svg">
<path d="M288.033 47.504H223.965C222.95 47.5041 221.944 47.3041 221.005 46.9155C220.067 46.5268 219.214 45.9571 218.496 45.2388C217.777 44.5205 217.208 43.6677 216.819 42.7292C216.43 41.7907 216.23 40.7848 216.23 39.769V23.204C216.23 10.41 226.639 0 239.434 0H272.563C285.358 0 295.767 10.41 295.767 23.204V39.769C295.768 40.7848 295.568 41.7906 295.179 42.7291C294.791 43.6676 294.221 44.5204 293.503 45.2387C292.785 45.957 291.932 46.5268 290.994 46.9155C290.055 47.3041 289.049 47.5041 288.033 47.504ZM231.7 32.034H280.299V23.204C280.299 18.939 276.829 15.469 272.564 15.469H239.435C235.17 15.469 231.7 18.939 231.7 23.204V32.034Z" fill="#FFE177"/>
<path d="M441.205 512H70.7949C68.9384 512 67.1579 511.263 65.8452 509.95C64.5324 508.637 63.7949 506.857 63.7949 505V38.4863C63.7949 36.6298 64.5324 34.8493 65.8452 33.5366C67.1579 32.2238 68.9384 31.4863 70.7949 31.4863H175.915L216.232 41.6483H295.632L336.087 31.4863H441.207C443.063 31.4863 444.844 32.2238 446.157 33.5366C447.469 34.8493 448.207 36.6298 448.207 38.4863V505C448.206 506.857 447.468 508.637 446.155 509.95C444.842 511.263 443.062 512 441.205 512Z" fill="#BE7A4B"/>
<path d="M409.171 479.966H102.829C100.973 479.966 99.1921 479.229 97.8793 477.916C96.5666 476.603 95.8291 474.823 95.8291 472.966V70.5215C95.8291 68.665 96.5666 66.8845 97.8793 65.5717C99.1921 64.259 100.973 63.5215 102.829 63.5215H409.171C411.028 63.5215 412.808 64.259 414.121 65.5717C415.434 66.8845 416.171 68.665 416.171 70.5215V472.966C416.171 474.823 415.434 476.603 414.121 477.916C412.808 479.229 411.028 479.966 409.171 479.966Z" fill="#F3FAFF"/>
<path d="M95.8289 472.966V70.5213C95.8289 68.6648 96.5664 66.8843 97.8792 65.5716C99.1919 64.2588 100.972 63.5213 102.829 63.5213H103.795V38.4863C103.795 36.6298 104.532 34.8493 105.845 33.5366C107.158 32.2238 108.938 31.4863 110.795 31.4863H70.7949C68.9384 31.4863 67.1579 32.2238 65.8452 33.5366C64.5324 34.8493 63.7949 36.6298 63.7949 38.4863V505C63.7949 506.857 64.5324 508.637 65.8452 509.95C67.1579 511.263 68.9384 512 70.7949 512H110.795C108.938 512 107.158 511.263 105.845 509.95C104.532 508.637 103.795 506.857 103.795 505V479.966H102.829C100.972 479.966 99.1919 479.229 97.8792 477.916C96.5664 476.603 95.8289 474.823 95.8289 472.966Z" fill="#BA6F3C"/>
<path d="M102.829 63.5215C100.973 63.5215 99.1921 64.259 97.8793 65.5717C96.5666 66.8845 95.8291 68.665 95.8291 70.5215V472.966C95.8291 474.823 96.5666 476.603 97.8793 477.916C99.1921 479.229 100.973 479.966 102.829 479.966H103.795V63.5215H102.829Z" fill="#D8ECFE"/>
<path d="M159.897 227.567C168.743 227.567 175.914 220.396 175.914 211.55C175.914 202.704 168.743 195.533 159.897 195.533C151.051 195.533 143.88 202.704 143.88 211.55C143.88 220.396 151.051 227.567 159.897 227.567Z" fill="#FFCEBF"/>
<path d="M153.88 211.55C153.88 204.452 158.502 198.43 164.897 196.329C163.283 195.8 161.595 195.531 159.897 195.533C151.051 195.533 143.88 202.704 143.88 211.55C143.88 220.396 151.051 227.567 159.897 227.567C161.645 227.567 163.322 227.278 164.897 226.76C158.502 224.659 153.88 218.648 153.88 211.55Z" fill="#FFB09E"/>
<path d="M159.897 323.62C168.743 323.62 175.914 316.449 175.914 307.603C175.914 298.757 168.743 291.586 159.897 291.586C151.051 291.586 143.88 298.757 143.88 307.603C143.88 316.449 151.051 323.62 159.897 323.62Z" fill="#FFCEBF"/>
<path d="M153.88 307.602C153.88 300.504 158.502 294.482 164.897 292.381C163.283 291.852 161.595 291.583 159.897 291.585C151.051 291.585 143.88 298.756 143.88 307.602C143.88 316.448 151.051 323.619 159.897 323.619C161.645 323.619 163.322 323.33 164.897 322.812C158.502 320.711 153.88 314.701 153.88 307.602Z" fill="#FFB09E"/>
<path d="M159.897 419.73C168.743 419.73 175.914 412.559 175.914 403.713C175.914 394.867 168.743 387.696 159.897 387.696C151.051 387.696 143.88 394.867 143.88 403.713C143.88 412.559 151.051 419.73 159.897 419.73Z" fill="#FFCEBF"/>
<path d="M153.88 403.713C153.88 396.615 158.502 390.593 164.897 388.492C163.283 387.963 161.595 387.694 159.897 387.696C151.051 387.696 143.88 394.867 143.88 403.713C143.88 412.559 151.051 419.73 159.897 419.73C161.645 419.73 163.322 419.441 164.897 418.923C158.502 416.822 153.88 410.811 153.88 403.713Z" fill="#FFB09E"/>
<path d="M305.086 95.5553H206.915C189.794 95.5553 175.915 81.6763 175.915 64.5553V31.4863H336.086V64.5543C336.086 81.6763 322.206 95.5553 305.086 95.5553Z" fill="#FFE177"/>
<path d="M205.914 64.5553V31.4863H175.914V64.5543C175.914 81.6753 189.793 95.5543 206.914 95.5543H236.914C219.794 95.5553 205.914 81.6763 205.914 64.5553Z" fill="#FFD15B"/>
<path d="M184.932 254.702H134.864C133.008 254.702 131.227 253.965 129.915 252.652C128.602 251.339 127.864 249.559 127.864 247.702C127.864 233.82 139.117 222.567 152.999 222.567H166.798C180.68 222.567 191.933 233.82 191.933 247.702C191.933 249.559 191.195 251.339 189.882 252.652C188.569 253.965 186.789 254.702 184.932 254.702Z" fill="#FF8086"/>
<path d="M147.863 247.702C147.863 234.871 157.48 224.293 169.897 222.764C168.869 222.635 167.833 222.57 166.796 222.567H152.997C139.115 222.567 127.862 233.82 127.862 247.702C127.862 249.559 128.6 251.339 129.913 252.652C131.225 253.965 133.006 254.702 134.862 254.702H154.862C153.006 254.702 151.226 253.965 149.913 252.652C148.601 251.339 147.863 249.559 147.863 247.702Z" fill="#E5646E"/>
<path d="M384.141 230.302H288.034C283.762 230.302 280.299 226.84 280.299 222.567C280.299 218.294 283.762 214.832 288.034 214.832H384.141C388.413 214.832 391.876 218.294 391.876 222.567C391.876 226.84 388.413 230.302 384.141 230.302ZM352.102 262.336H288.034C285.982 262.336 284.015 261.521 282.564 260.07C281.114 258.62 280.299 256.652 280.299 254.601C280.299 252.55 281.114 250.582 282.564 249.132C284.015 247.681 285.982 246.866 288.034 246.866H352.102C354.153 246.866 356.121 247.681 357.571 249.132C359.022 250.582 359.837 252.55 359.837 254.601C359.837 256.652 359.022 258.62 357.571 260.07C356.121 261.521 354.153 262.336 352.102 262.336Z" fill="#7883A0"/>
<path d="M184.932 350.755H134.864C133.008 350.755 131.227 350.018 129.915 348.705C128.602 347.392 127.864 345.612 127.864 343.755C127.864 329.873 139.117 318.62 152.999 318.62H166.798C180.68 318.62 191.933 329.873 191.933 343.755C191.933 345.612 191.195 347.392 189.882 348.705C188.569 350.018 186.789 350.755 184.932 350.755Z" fill="#BBEC6C"/>
<path d="M147.863 343.755C147.863 330.924 157.48 320.346 169.897 318.817C168.869 318.688 167.833 318.622 166.796 318.62H152.997C139.115 318.62 127.862 329.873 127.862 343.755C127.862 345.612 128.6 347.392 129.913 348.705C131.225 350.018 133.006 350.755 134.862 350.755H154.862C153.006 350.755 151.226 350.017 149.913 348.705C148.601 347.392 147.863 345.611 147.863 343.755Z" fill="#99DA2B"/>
<path d="M249 350.654H230.966C229.109 350.654 227.329 349.917 226.016 348.604C224.703 347.291 223.966 345.511 223.966 343.654V325.62C223.966 323.764 224.703 321.983 226.016 320.67C227.329 319.358 229.109 318.62 230.966 318.62H249C250.856 318.62 252.637 319.358 253.95 320.67C255.262 321.983 256 323.764 256 325.62V343.654C256 345.511 255.262 347.291 253.95 348.604C252.637 349.917 250.856 350.654 249 350.654Z" fill="#D8ECFE"/>
<path d="M384.141 326.354H288.034C285.982 326.354 284.015 325.539 282.564 324.088C281.114 322.638 280.299 320.67 280.299 318.619C280.299 316.567 281.114 314.6 282.564 313.149C284.015 311.699 285.982 310.884 288.034 310.884H384.141C388.413 310.884 391.876 314.346 391.876 318.619C391.876 322.892 388.413 326.354 384.141 326.354ZM352.102 358.389H288.034C285.982 358.389 284.015 357.574 282.564 356.123C281.114 354.673 280.299 352.705 280.299 350.654C280.299 348.602 281.114 346.635 282.564 345.184C284.015 343.734 285.982 342.919 288.034 342.919H352.102C354.153 342.919 356.121 343.734 357.571 345.184C359.022 346.635 359.837 348.602 359.837 350.654C359.837 352.705 359.022 354.673 357.571 356.123C356.121 357.574 354.153 358.389 352.102 358.389Z" fill="#7883A0"/>
<path d="M184.932 446.865H134.864C133.008 446.865 131.227 446.128 129.915 444.815C128.602 443.502 127.864 441.722 127.864 439.865C127.864 425.983 139.117 414.73 152.999 414.73H166.798C180.68 414.73 191.933 425.983 191.933 439.865C191.933 441.722 191.195 443.503 189.882 444.815C188.569 446.128 186.789 446.865 184.932 446.865Z" fill="#FFE177"/>
<path d="M147.863 439.865C147.863 427.034 157.48 416.456 169.897 414.927C168.869 414.799 167.833 414.733 166.796 414.73H152.997C139.115 414.73 127.862 425.983 127.862 439.865C127.862 441.722 128.6 443.502 129.913 444.815C131.225 446.128 133.006 446.865 134.862 446.865H154.862C153.006 446.865 151.226 446.128 149.913 444.815C148.601 443.502 147.863 441.722 147.863 439.865Z" fill="#FFD15B"/>
<path d="M249 446.764H230.966C229.109 446.764 227.329 446.027 226.016 444.714C224.703 443.401 223.966 441.621 223.966 439.764V421.73C223.966 419.874 224.703 418.093 226.016 416.781C227.329 415.468 229.109 414.73 230.966 414.73H249C250.856 414.73 252.637 415.468 253.95 416.781C255.262 418.093 256 419.874 256 421.73V439.764C256 441.621 255.262 443.401 253.95 444.714C252.637 446.027 250.856 446.764 249 446.764Z" fill="#D8ECFE"/>
<path d="M384.141 422.465H288.034C285.982 422.465 284.015 421.65 282.564 420.2C281.114 418.749 280.299 416.782 280.299 414.73C280.299 412.679 281.114 410.711 282.564 409.261C284.015 407.81 285.982 406.995 288.034 406.995H384.141C386.192 406.995 388.16 407.81 389.61 409.261C391.061 410.711 391.876 412.679 391.876 414.73C391.876 416.782 391.061 418.749 389.61 420.2C388.16 421.65 386.192 422.465 384.141 422.465ZM352.102 454.499H288.034C283.762 454.499 280.299 451.037 280.299 446.764C280.299 442.491 283.762 439.029 288.034 439.029H352.102C356.374 439.029 359.837 442.491 359.837 446.764C359.837 451.037 356.374 454.499 352.102 454.499Z" fill="#7883A0"/>
<path d="M239.982 246.419C237.93 246.419 235.963 245.604 234.513 244.153L218.496 228.136C217.084 226.678 216.302 224.723 216.319 222.693C216.335 220.664 217.149 218.722 218.584 217.287C220.019 215.852 221.961 215.038 223.991 215.022C226.021 215.005 227.975 215.787 229.434 217.199L238.94 226.704L256.2 202.108C256.783 201.277 257.524 200.568 258.382 200.023C259.239 199.479 260.195 199.108 261.195 198.933C262.196 198.757 263.221 198.781 264.212 199.001C265.203 199.222 266.142 199.636 266.973 200.22C267.804 200.803 268.513 201.544 269.058 202.402C269.603 203.259 269.973 204.215 270.149 205.215C270.324 206.216 270.301 207.241 270.08 208.232C269.859 209.224 269.445 210.162 268.862 210.993L246.313 243.127C245.599 244.144 244.652 244.974 243.55 245.547C242.448 246.12 241.224 246.419 239.982 246.419Z" fill="#BBEC6C"/>
<path d="M313.068 159.623H198.932C197.075 159.623 195.295 158.885 193.982 157.573C192.669 156.26 191.932 154.479 191.932 152.623V134.589C191.932 132.732 192.669 130.952 193.982 129.639C195.295 128.326 197.075 127.589 198.932 127.589H313.069C314.925 127.589 316.706 128.326 318.018 129.639C319.331 130.952 320.069 132.732 320.069 134.589V152.623C320.068 154.479 319.331 156.26 318.018 157.573C316.705 158.885 314.924 159.623 313.068 159.623Z" fill="#8AC9FE"/>
</svg>
