<svg width="512" height="512" viewBox="0 0 512 512" fill="none" xmlns="http://www.w3.org/2000/svg">
<path d="M352 72V360C352.038 369.428 349.251 378.65 344 386.48C339.636 393.099 333.697 398.531 326.715 402.287C319.734 406.043 311.928 408.006 304 408H144C137.695 408.006 131.45 406.769 125.624 404.359C119.797 401.949 114.503 398.414 110.045 393.955C105.586 389.497 102.051 384.203 99.6409 378.376C97.231 372.55 95.9937 366.305 96 360V72C96 59.2696 101.057 47.0606 110.059 38.0589C119.061 29.0571 131.27 24 144 24H304C316.73 24 328.939 29.0571 337.941 38.0589C346.943 47.0606 352 59.2696 352 72Z" fill="#5AAAE7"/>
<path d="M199.2 341.68C199.2 345.891 198.097 350.028 196 353.68L164.64 408H148.8L144 400L180 337.68C182.097 334.028 183.2 329.891 183.2 325.68C183.219 323.32 182.868 320.971 182.16 318.72C183.931 319.205 185.627 319.932 187.2 320.88C190.861 322.976 193.9 326.006 196.008 329.66C198.116 333.314 199.217 337.462 199.2 341.68ZM344 304V386.48C339.636 393.099 333.697 398.531 326.715 402.287C319.734 406.043 311.928 408.006 304 408H296V304C296 297.635 298.529 291.53 303.029 287.029C307.53 282.529 313.635 280 320 280C326.365 280 332.47 282.529 336.971 287.029C341.471 291.53 344 297.635 344 304Z" fill="#3D9AE2"/>
<path d="M198.56 347.12C198.052 349.426 197.188 351.639 196 353.68L192 360.56V360C191.989 357.899 192.401 355.818 193.212 353.88C194.023 351.942 195.216 350.187 196.72 348.72C197.296 348.145 197.911 347.61 198.56 347.12Z" fill="#D8D7DA"/>
<path d="M183.2 325.68C183.206 320.392 181.465 315.25 178.248 311.053C175.031 306.856 170.518 303.839 165.41 302.471C160.302 301.102 154.885 301.46 150 303.487C145.116 305.514 141.038 309.097 138.4 313.68L100.24 379.76C97.4357 373.551 95.9901 366.814 96 360V232.16C93.3473 232.528 90.8293 233.555 88.6768 235.149C86.5244 236.742 84.8063 238.85 83.68 241.28L47.36 320.08C42.4997 330.557 39.9878 341.97 40 353.52V496L168 495.92V453.2C167.983 444.49 165.605 435.947 161.12 428.48L148.8 408L144 400L180 337.68C182.097 334.028 183.2 329.891 183.2 325.68Z" fill="#FFC477"/>
<path d="M240 344C244.24 344.013 248.302 345.702 251.3 348.7C254.298 351.698 255.987 355.76 256 360C255.969 364.234 254.273 368.285 251.279 371.279C248.285 374.273 244.234 375.969 240 376H208C203.76 375.987 199.698 374.298 196.7 371.3C193.702 368.302 192.013 364.24 192 360C192.031 355.766 193.727 351.715 196.721 348.721C199.715 345.727 203.766 344.031 208 344H240Z" fill="#E6E7E8"/>
<path d="M423.999 400C423.999 393.635 426.528 387.53 431.028 383.029C435.529 378.529 441.634 376 447.999 376C454.364 376 460.469 378.529 464.97 383.029C469.47 387.53 471.999 393.635 471.999 400V496H256.879L222.399 436.32C220.292 432.67 219.183 428.53 219.184 424.316C219.184 420.102 220.295 415.962 222.403 412.313C224.511 408.664 227.543 405.635 231.194 403.53C234.844 401.424 238.985 400.317 243.199 400.32C247.417 400.303 251.565 401.404 255.219 403.512C258.873 405.62 261.903 408.659 263.999 412.32L279.999 440V288C279.999 281.635 282.528 275.53 287.028 271.029C291.529 266.529 297.634 264 303.999 264C310.364 264 316.469 266.529 320.97 271.029C325.47 275.53 327.999 281.635 327.999 288V384C327.999 377.635 330.528 371.53 335.028 367.029C339.529 362.529 345.634 360 351.999 360C358.364 360 364.469 362.529 368.97 367.029C373.47 371.53 375.999 377.635 375.999 384V392C375.999 385.635 378.528 379.53 383.028 375.029C387.529 370.529 393.634 368 399.999 368C406.364 368 412.469 370.529 416.97 375.029C421.47 379.53 423.999 385.635 423.999 392V400Z" fill="#FFC477"/>
<path d="M240 280C279.765 280 312 247.765 312 208C312 168.235 279.765 136 240 136C200.235 136 168 168.235 168 208C168 247.765 200.235 280 240 280Z" fill="#3D9AE2"/>
<path d="M224 264C263.765 264 296 231.765 296 192C296 152.235 263.765 120 224 120C184.235 120 152 152.235 152 192C152 231.765 184.235 264 224 264Z" fill="#FFD422"/>
<path d="M160 48H176V64H160V48ZM192 48H256V64H192V48ZM240 336H208C201.635 336 195.53 338.529 191.029 343.029C186.528 347.53 184 353.635 184 360C184 366.365 186.528 372.47 191.029 376.971C195.53 381.471 201.635 384 208 384H240C246.365 384 252.469 381.471 256.97 376.971C261.471 372.47 264 366.365 264 360C264 353.635 261.471 347.53 256.97 343.029C252.469 338.529 246.365 336 240 336ZM240 368H208C205.878 368 203.843 367.157 202.343 365.657C200.843 364.157 200 362.122 200 360C200 357.878 200.843 355.843 202.343 354.343C203.843 352.843 205.878 352 208 352H240C242.121 352 244.156 352.843 245.657 354.343C247.157 355.843 248 357.878 248 360C248 362.122 247.157 364.157 245.657 365.657C244.156 367.157 242.121 368 240 368ZM31.9998 224H47.9997V131.312L58.3438 141.656L69.6557 130.344L45.6557 106.344C44.1555 104.844 42.1211 104.002 39.9998 104.002C37.8784 104.002 35.844 104.844 34.3438 106.344L10.3438 130.344L21.6558 141.656L31.9998 131.312V224ZM400 131.312V224H416V131.312L426.344 141.656L437.656 130.344L413.656 106.344C412.156 104.844 410.121 104.002 408 104.002C405.878 104.002 403.844 104.844 402.344 106.344L378.344 130.344L389.656 141.656L400 131.312Z" fill="black"/>
<path d="M448 368C440.468 367.97 433.175 370.637 427.44 375.52C424.588 370.791 420.564 366.878 415.757 364.159C410.95 361.44 405.523 360.008 400 360C392.468 359.97 385.175 362.637 379.44 367.52C375.119 360.322 368.134 355.119 360 353.04V72C359.983 57.1531 354.078 42.9191 343.579 32.4207C333.081 21.9224 318.847 16.0169 304 16H144C129.153 16.0169 114.919 21.9224 104.421 32.4207C93.9224 42.9191 88.0169 57.1531 88 72V218.4C82.9145 220.779 78.8138 224.851 76.4 229.92L40.08 308.72C34.7819 320.266 32.0264 332.816 32 345.52V496H48V345.52C48.027 335.133 50.2917 324.873 54.64 315.44L88 243.04V360C88.011 366.526 89.1756 372.999 91.44 379.12L83.52 392.8L97.36 400.8L145.36 317.68C146.4 315.852 147.79 314.247 149.451 312.956C151.112 311.666 153.011 310.716 155.04 310.16C159.148 309.109 163.503 309.682 167.2 311.76C170.875 313.898 173.553 317.406 174.647 321.514C175.742 325.622 175.164 329.997 173.04 333.68L137.04 396C136.344 397.25 135.986 398.66 136 400.091C136.014 401.521 136.4 402.924 137.12 404.16L154.24 432.64C157.992 438.843 159.984 445.951 160 453.2V495.92H176V453.2C175.982 443.054 173.217 433.102 168 424.4L162.96 416H212.32C210.143 424.212 211.293 432.951 215.52 440.32L250 500L263.84 492L229.36 432.32C227.756 429.578 227.005 426.421 227.202 423.251C227.399 420.08 228.535 417.04 230.465 414.518C232.395 411.995 235.033 410.105 238.042 409.086C241.051 408.068 244.294 407.968 247.36 408.8C249.399 409.331 251.309 410.272 252.973 411.565C254.637 412.858 256.021 414.476 257.04 416.32L273.04 444C273.939 445.518 275.306 446.705 276.935 447.383C278.564 448.06 280.369 448.193 282.08 447.76C283.785 447.301 285.29 446.291 286.361 444.887C287.431 443.484 288.008 441.765 288 440V288C288 283.757 289.686 279.687 292.686 276.686C295.687 273.686 299.757 272 304 272C308.243 272 312.313 273.686 315.314 276.686C318.314 279.687 320 283.757 320 288V416C320 418.122 320.843 420.157 322.343 421.657C323.843 423.157 325.878 424 328 424C330.122 424 332.157 423.157 333.657 421.657C335.157 420.157 336 418.122 336 416V384C336 379.757 337.686 375.687 340.686 372.686C343.687 369.686 347.757 368 352 368C356.243 368 360.313 369.686 363.314 372.686C366.314 375.687 368 379.757 368 384V416C368 418.122 368.843 420.157 370.343 421.657C371.843 423.157 373.878 424 376 424C378.122 424 380.157 423.157 381.657 421.657C383.157 420.157 384 418.122 384 416V392C384 387.757 385.686 383.687 388.686 380.686C391.687 377.686 395.757 376 400 376C404.243 376 408.313 377.686 411.314 380.686C414.314 383.687 416 387.757 416 392V416C416 418.122 416.843 420.157 418.343 421.657C419.843 423.157 421.878 424 424 424C426.122 424 428.157 423.157 429.657 421.657C431.157 420.157 432 418.122 432 416V400C432 395.757 433.686 391.687 436.686 388.686C439.687 385.686 443.757 384 448 384C452.243 384 456.313 385.686 459.314 388.686C462.314 391.687 464 395.757 464 400V496H480V400C480 391.513 476.629 383.374 470.627 377.373C464.626 371.371 456.487 368 448 368ZM344 353.04C341.196 353.764 338.505 354.867 336 356.32V288C336 279.513 332.629 271.374 326.627 265.373C320.626 259.371 312.487 256 304 256C295.513 256 287.374 259.371 281.373 265.373C275.371 271.374 272 279.513 272 288V400H263.92C260.318 396.913 256.086 394.647 251.52 393.36C243.308 391.188 234.571 392.337 227.2 396.56C225.531 397.569 223.952 398.72 222.48 400H153.36L153.28 399.92L186.96 341.68C191.203 334.328 192.353 325.592 190.155 317.393C187.957 309.194 182.592 302.203 175.24 297.96C167.888 293.717 159.152 292.567 150.953 294.765C142.754 296.963 135.763 302.328 131.52 309.68L104 357.28V72C104 61.3913 108.214 51.2172 115.716 43.7157C123.217 36.2143 133.391 32 144 32H304C314.609 32 324.783 36.2143 332.284 43.7157C339.786 51.2172 344 61.3913 344 72V353.04Z" fill="black"/>
<path d="M216 168H232C234.122 168 236.157 168.843 237.657 170.343C239.157 171.843 240 173.878 240 176H256C256 169.635 253.471 163.53 248.971 159.029C244.47 154.529 238.365 152 232 152V144H216V152C209.635 152 203.53 154.529 199.029 159.029C194.529 163.53 192 169.635 192 176C192 182.365 194.529 188.47 199.029 192.971C203.53 197.471 209.635 200 216 200H232C234.122 200 236.157 200.843 237.657 202.343C239.157 203.843 240 205.878 240 208C240 210.122 239.157 212.157 237.657 213.657C236.157 215.157 234.122 216 232 216H216C213.878 216 211.843 215.157 210.343 213.657C208.843 212.157 208 210.122 208 208H192C192 214.365 194.529 220.47 199.029 224.971C203.53 229.471 209.635 232 216 232V240H232V232C238.365 232 244.47 229.471 248.971 224.971C253.471 220.47 256 214.365 256 208C256 201.635 253.471 195.53 248.971 191.029C244.47 186.529 238.365 184 232 184H216C213.878 184 211.843 183.157 210.343 181.657C208.843 180.157 208 178.122 208 176C208 173.878 208.843 171.843 210.343 170.343C211.843 168.843 213.878 168 216 168Z" fill="black"/>
<path d="M224 112C208.177 112 192.71 116.692 179.554 125.482C166.398 134.273 156.145 146.767 150.09 161.385C144.035 176.003 142.45 192.089 145.537 207.607C148.624 223.126 156.243 237.38 167.431 248.569C178.62 259.757 192.874 267.376 208.393 270.463C223.911 273.55 239.997 271.965 254.615 265.91C269.233 259.855 281.727 249.602 290.518 236.446C299.308 223.29 304 207.823 304 192C303.977 170.79 295.541 150.455 280.543 135.457C265.545 120.459 245.21 112.023 224 112ZM224 256C211.342 256 198.968 252.246 188.444 245.214C177.919 238.182 169.716 228.186 164.872 216.492C160.028 204.797 158.76 191.929 161.23 179.514C163.699 167.099 169.795 155.696 178.745 146.745C187.696 137.795 199.099 131.699 211.514 129.23C223.929 126.76 236.797 128.028 248.492 132.872C260.186 137.716 270.182 145.919 277.214 156.444C284.246 166.968 288 179.342 288 192C287.981 208.968 281.232 225.236 269.234 237.234C257.236 249.232 240.968 255.981 224 256ZM400 240H416V256H400V240ZM400 272H416V288H400V272ZM32 240H48V256H32V240Z" fill="black"/>
</svg>
