<svg width="512" height="512" viewBox="0 0 512 512" fill="none" xmlns="http://www.w3.org/2000/svg">
<path fill-rule="evenodd" clip-rule="evenodd" d="M310.255 47.728C327.156 51.7542 343.307 58.45 358.1 67.563L389.189 53.755L425.833 90.397L412.029 121.478C421.144 136.274 427.841 152.43 431.868 169.336L463.587 181.546V233.365L431.86 245.578C427.834 262.479 421.137 278.631 412.024 293.423L425.832 324.513L389.19 361.156L358.109 347.352C343.312 356.467 327.157 363.164 310.251 367.191L298.042 398.911H246.221L234.009 367.184C217.107 363.158 200.956 356.462 186.164 347.349L155.074 361.157L118.431 324.515L132.234 293.434C123.119 278.637 116.422 262.481 112.396 245.575L80.6758 233.366V181.546L112.4 169.335C116.426 152.432 123.122 136.279 132.237 121.486L118.431 90.399L155.072 53.755L186.163 67.564C200.956 58.4508 217.107 51.7551 234.009 47.729L246.221 16.002H298.041L310.255 47.728Z" fill="#A79BA7"/>
<path fill-rule="evenodd" clip-rule="evenodd" d="M186.167 347.348L155.077 361.156L150.265 356.344L179.403 343.403C181.627 344.773 183.883 346.088 186.167 347.348ZM310.255 47.728C326.926 51.6998 342.869 58.2691 357.5 67.195C357.694 67.326 357.894 67.449 358.1 67.563L349.218 71.508C334.422 62.398 311.513 51.751 294.609 47.728L282.397 16.001H298.043L310.255 47.728ZM150.263 58.566L155.075 53.754L186.166 67.563C183.88 68.8239 181.625 70.1393 179.402 71.508L150.263 58.566ZM378.356 58.567L389.19 53.755L425.834 90.397L412.03 121.478C421.145 136.274 427.842 152.43 431.869 169.336L463.588 181.546V233.365L431.861 245.578C427.834 262.479 421.138 278.631 412.025 293.423L425.833 324.513L389.191 361.156L378.357 356.344L410.187 324.512L396.379 293.422C405.492 278.63 412.188 262.478 416.215 245.577L447.942 233.364V181.545L416.223 169.335C412.196 152.429 405.499 136.273 396.384 121.477L410.187 90.396L378.356 58.567ZM357.506 347.723C342.873 356.65 326.927 363.22 310.253 367.191L298.044 398.911H282.398L294.607 367.191C311.515 363.168 334.429 352.521 349.228 343.408L358.11 347.353C357.903 347.468 357.702 347.591 357.506 347.723Z" fill="#837683"/>
<path d="M350.79 286.17C394.26 242.7 394.26 172.222 350.79 128.752C307.321 85.2825 236.842 85.2825 193.373 128.752C149.903 172.222 149.903 242.7 193.373 286.17C236.842 329.639 307.321 329.639 350.79 286.17Z" fill="#ECEFF1"/>
<path fill-rule="evenodd" clip-rule="evenodd" d="M272.132 96.1445C274.763 96.1445 277.37 96.2425 279.955 96.4215C222.132 100.437 176.467 148.612 176.467 207.455C176.467 266.299 222.132 314.473 279.955 318.488C277.37 318.667 274.762 318.765 272.132 318.765C210.658 318.765 160.821 268.928 160.821 207.454C160.821 145.981 210.658 96.1445 272.132 96.1445Z" fill="#D1D1D6"/>
<path fill-rule="evenodd" clip-rule="evenodd" d="M292.522 176.602L301.926 204.69C326.44 230.978 344.3 253.249 355.504 272.922C391.32 335.81 340.369 399.683 272.133 398.533C203.897 399.683 152.945 335.81 188.761 272.922C199.965 253.249 217.825 230.978 242.339 204.69L251.775 176.633L228.805 153.664C223.198 148.057 223.198 138.883 228.805 133.276C233.574 128.507 241.122 127.702 246.797 131.344C248.905 132.697 251.326 132.913 253.639 131.955C255.951 130.997 257.51 129.133 258.045 126.686C259.458 120.215 265.252 115.33 272.132 115.329C278.887 115.329 284.78 120.091 286.22 126.686C286.754 129.133 288.313 130.996 290.626 131.955C292.94 132.914 295.36 132.697 297.466 131.344C303.04 127.766 310.593 128.411 315.458 133.275V133.276C321.065 138.883 321.065 148.057 315.458 153.664L292.522 176.602Z" fill="#FFC338"/>
<path fill-rule="evenodd" clip-rule="evenodd" d="M292.521 176.602L301.926 204.69C326.44 230.978 344.299 253.249 355.504 272.922C391.32 335.81 340.368 399.683 272.132 398.533C270.804 398.553 269.475 398.547 268.147 398.517C334.358 397.173 382.649 334.578 347.534 272.922C336.329 253.249 318.47 230.978 293.956 204.69L284.551 176.602L307.489 153.664C313.095 148.058 313.095 138.883 307.489 133.276V133.275C305.764 131.548 303.626 130.292 301.278 129.625C306.155 128.236 311.636 129.453 315.459 133.275V133.276C321.066 138.882 321.066 148.057 315.459 153.664L292.521 176.602ZM235.03 129.629C238.923 128.523 243.231 129.054 246.798 131.344L246.827 131.362C246.459 131.591 246.072 131.789 245.67 131.955C243.357 132.913 240.936 132.697 238.828 131.344C237.653 130.59 236.373 130.012 235.03 129.629ZM268.144 115.895C273.129 117.341 277.103 121.432 278.25 126.686C278.784 129.133 280.343 130.996 282.656 131.955C284.96 132.909 287.368 132.698 289.468 131.362C287.792 130.318 286.659 128.7 286.22 126.687C284.78 120.092 278.887 115.33 272.132 115.33C270.75 115.33 269.412 115.527 268.144 115.895Z" fill="#F5B829"/>
<path fill-rule="evenodd" clip-rule="evenodd" d="M271.413 332.561C271.743 332.537 272.075 332.539 272.405 332.568L272.709 332.563C273.646 332.534 274.582 332.459 275.513 332.34C279.454 331.862 283.395 330.606 286.201 328.477C288.443 326.776 289.935 324.398 289.861 321.278C289.855 321.035 289.821 320.655 289.758 320.132C289.282 316.208 287.052 313.589 284.084 311.797C280.373 309.556 275.489 308.369 270.914 307.618C265.218 306.683 259.041 304.984 254.012 301.701C248.243 297.935 244.098 292.364 243.695 284.06C243.294 275.794 246.854 269.166 252.469 264.6C256.123 261.629 260.659 259.59 265.49 258.616V253.58C265.49 251.889 266.161 250.267 267.357 249.072C268.553 247.876 270.175 247.204 271.866 247.204C273.557 247.204 275.179 247.876 276.374 249.072C277.57 250.267 278.242 251.889 278.242 253.58V258.52C278.864 258.638 279.483 258.775 280.098 258.93C288.472 261.053 296.091 266.559 300.092 276.089C300.416 276.861 300.584 277.689 300.588 278.526C300.592 279.363 300.43 280.193 300.114 280.967C299.797 281.742 299.33 282.447 298.741 283.041C298.152 283.636 297.452 284.108 296.68 284.432C295.908 284.756 295.08 284.924 294.243 284.928C293.406 284.932 292.576 284.771 291.802 284.454C291.027 284.137 290.322 283.671 289.728 283.082C289.133 282.492 288.661 281.792 288.337 281.02C286.064 275.608 281.75 272.484 277.01 271.283C275.477 270.896 273.904 270.69 272.323 270.668C272.045 270.688 271.766 270.689 271.488 270.672C270.312 270.703 269.142 270.834 267.989 271.065C265.155 271.636 262.54 272.794 260.491 274.46C257.875 276.587 256.214 279.656 256.399 283.459C256.57 286.974 258.394 289.378 260.938 291.039C264.221 293.182 268.703 294.365 272.959 295.063C278.859 296.032 285.295 297.645 290.662 300.886C296.772 304.575 301.379 310.118 302.413 318.635C302.494 319.304 302.545 320.086 302.566 320.976C302.751 328.748 299.205 334.54 293.875 338.585C289.439 341.951 283.79 343.975 278.245 344.819V349.647C278.245 351.338 277.573 352.96 276.377 354.156C275.182 355.351 273.56 356.023 271.869 356.023C270.178 356.023 268.556 355.351 267.36 354.156C266.164 352.96 265.493 351.338 265.493 349.647V344.698C260.93 343.893 256.573 342.242 252.821 339.742C247.328 336.084 243.12 330.687 241.341 323.549C240.957 321.918 241.233 320.201 242.108 318.772C242.983 317.343 244.386 316.317 246.013 315.916C247.64 315.516 249.36 315.774 250.798 316.634C252.236 317.494 253.277 318.887 253.694 320.51C254.636 324.289 256.892 327.165 259.845 329.131C263.105 331.309 267.197 332.451 271.413 332.561Z" fill="#FFE177"/>
<path fill-rule="evenodd" clip-rule="evenodd" d="M240.84 204.691H303.427C311.143 204.691 317.456 198.378 317.456 190.663C317.456 182.946 311.144 176.634 303.427 176.634H240.84C233.124 176.634 226.811 182.946 226.811 190.662C226.811 198.378 233.124 204.691 240.84 204.691Z" fill="#837683"/>
<path fill-rule="evenodd" clip-rule="evenodd" d="M295.457 204.691H303.427C311.144 204.691 317.456 198.377 317.456 190.663C317.456 182.946 311.144 176.634 303.427 176.634H295.457C303.173 176.634 309.486 182.946 309.486 190.663C309.486 198.377 303.173 204.691 295.457 204.691Z" fill="#685E68"/>
<path fill-rule="evenodd" clip-rule="evenodd" d="M78.6901 389.084L151.078 347.145C164.664 339.274 178.478 333.693 193.41 338.537C210.059 343.936 237.245 355.529 264.97 360.53C275.261 363.866 281.677 374.171 278.877 384.619C276.077 395.069 267.247 400.457 254.788 398.529L264.48 400.08C275.586 401.856 285.785 400.336 295.506 394.676L365.104 354.139C419.204 322.631 427.15 371.104 409.163 382.178L282.86 459.95C271.244 467.101 258.533 468.77 245.356 465.238L153.745 440.691L119.818 460.279C113.295 464.045 104.903 461.797 101.137 455.273L73.7031 407.755C69.9391 401.238 72.1791 392.856 78.6901 389.084Z" fill="#F6DCCD"/>
<path fill-rule="evenodd" clip-rule="evenodd" d="M277.226 388.953C273.358 396.513 265.386 400.168 254.788 398.529C239.782 394.561 224.793 390.492 209.798 386.475C207.889 385.94 206.268 384.674 205.287 382.952C204.305 381.23 204.043 379.191 204.556 377.276C205.069 375.361 206.316 373.726 208.027 372.726C209.738 371.725 211.775 371.439 213.695 371.931L277.226 388.953ZM78.6898 389.084L151.078 347.145C164.664 339.274 178.478 333.693 193.41 338.537C202.317 341.425 214.241 346.087 227.65 350.563L87.4227 431.523L73.7007 407.755C69.9387 401.238 72.1788 392.856 78.6898 389.084Z" fill="#F1CBBC"/>
<path fill-rule="evenodd" clip-rule="evenodd" d="M87.0957 368.222L144.506 469.661C147.282 474.566 145.54 480.85 140.635 483.626L121.108 494.678C116.203 497.454 109.919 495.712 107.143 490.807L49.7327 389.368C46.9567 384.463 48.6987 378.179 53.6037 375.403L73.1317 364.352C78.0357 361.576 84.3197 363.317 87.0957 368.222Z" fill="#D1D1D6"/>
<path fill-rule="evenodd" clip-rule="evenodd" d="M117.289 437.917L127.45 455.871L137.498 473.625C140.268 478.52 138.539 484.788 133.657 487.573L140.632 483.625C145.537 480.849 147.279 474.565 144.503 469.66L134.421 451.845L114.176 416.074L93.9092 380.263L87.0942 368.22C84.6892 363.971 79.6522 362.097 75.1592 363.476L86.9592 384.326L107.203 420.097L117.285 437.912L117.289 437.917Z" fill="#B1B1B5"/>
<path fill-rule="evenodd" clip-rule="evenodd" d="M72.7836 381.4C71.8726 381.527 70.9957 381.833 70.2034 382.3C69.4111 382.767 68.719 383.386 68.167 384.121C67.6149 384.857 67.2139 385.695 66.987 386.586C66.7601 387.477 66.7118 388.405 66.8448 389.315C66.9779 390.225 67.2896 391.099 67.7622 391.888C68.2347 392.677 68.8587 393.365 69.5982 393.912C70.3377 394.459 71.1781 394.854 72.071 395.074C72.9638 395.295 73.8915 395.337 74.8006 395.197C76.6199 394.918 78.255 393.931 79.3493 392.451C80.4437 390.971 80.9084 389.119 80.6422 387.298C80.3759 385.476 79.4003 383.834 77.9281 382.729C76.4559 381.625 74.6066 381.147 72.7836 381.4Z" fill="#685E68"/>
</svg>
