<svg width="512" height="512" viewBox="0 0 512 512" fill="none" xmlns="http://www.w3.org/2000/svg">
<path d="M256 499.2C390.315 499.2 499.2 390.315 499.2 256C499.2 121.684 390.315 12.7998 256 12.7998C121.684 12.7998 12.7998 121.684 12.7998 256C12.7998 390.315 121.684 499.2 256 499.2Z" fill="#EE3624"/>
<path d="M371.149 308.838L318.31 256L371.149 203.162C374.916 199.394 377.032 194.284 377.032 188.956C377.032 183.628 374.916 178.519 371.149 174.751L337.249 140.856C335.384 138.99 333.169 137.51 330.731 136.5C328.293 135.49 325.68 134.97 323.041 134.97C320.403 134.97 317.79 135.49 315.352 136.5C312.914 137.51 310.699 138.99 308.833 140.856L256 193.69L203.162 140.851C199.394 137.084 194.284 134.968 188.956 134.968C183.628 134.968 178.519 137.084 174.751 140.851L140.856 174.746C138.99 176.611 137.51 178.826 136.5 181.264C135.49 183.702 134.97 186.315 134.97 188.954C134.97 191.592 135.49 194.205 136.5 196.643C137.51 199.081 138.99 201.296 140.856 203.162L193.69 256L140.851 308.838C137.084 312.606 134.968 317.716 134.968 323.044C134.968 328.372 137.084 333.482 140.851 337.249L174.746 371.144C176.611 373.01 178.826 374.49 181.264 375.5C183.702 376.51 186.315 377.03 188.954 377.03C191.592 377.03 194.205 376.51 196.643 375.5C199.081 374.49 201.296 373.01 203.162 371.144L256 318.31L308.838 371.149C312.606 374.916 317.716 377.032 323.044 377.032C328.372 377.032 333.482 374.916 337.249 371.149L371.144 337.255C373.01 335.389 374.49 333.174 375.5 330.736C376.51 328.298 377.03 325.685 377.03 323.046C377.03 320.408 376.51 317.795 375.5 315.357C374.49 312.919 373.015 310.704 371.149 308.838Z" fill="white"/>
<path d="M499.2 256C499.2 390.297 390.298 499.2 256 499.2V12.7998C390.298 12.7998 499.2 121.702 499.2 256Z" fill="black" fill-opacity="0.0627451"/>
</svg>
