<svg width="512" height="512" viewBox="0 0 512 512" fill="none" xmlns="http://www.w3.org/2000/svg">
<path d="M199.658 193.777C199.658 204.697 163.575 213.549 119.065 213.549C74.5547 213.549 38.4727 204.7 38.4727 193.777C38.4727 182.854 74.5547 174 119.065 174C163.575 174 199.658 182.857 199.658 193.777Z" fill="#80EAFF"/>
<path d="M125.301 213.491C123.244 213.53 121.166 213.549 119.067 213.549C74.5566 213.549 38.4746 204.697 38.4746 193.777C38.4746 182.857 74.5556 174 119.066 174C121.164 174 123.242 174.019 125.3 174.058C83.6996 174.839 50.9416 183.367 50.9416 193.773C50.9416 204.179 83.7006 212.71 125.301 213.491Z" fill="#66CCFF"/>
<path d="M119.065 194.527C119.065 194.527 44.1133 159.076 44.1133 82.4273C44.1857 62.5961 52.1144 43.6018 66.1629 29.6046C80.2114 15.6073 99.2344 7.74805 119.066 7.74805C138.897 7.74805 157.92 15.6073 171.969 29.6046C186.017 43.6018 193.946 62.5961 194.018 82.4273C194.018 159.076 119.065 194.527 119.065 194.527Z" fill="#FF5959"/>
<path d="M119.065 194.528C119.065 194.528 44.1133 159.077 44.1133 82.4276C44.1131 72.5847 46.0517 62.8381 49.8184 53.7443C53.585 44.6505 59.1059 36.3877 66.0658 29.4276C73.0257 22.4674 81.2884 16.9463 90.3821 13.1795C99.4758 9.41261 109.222 7.47376 119.065 7.47363C38.4733 26.6766 45.9863 135.984 119.065 194.528Z" fill="#E63A57"/>
<path d="M164.648 83.6348C164.648 92.6504 161.975 101.464 156.966 108.96C151.957 116.456 144.838 122.299 136.509 125.749C128.179 129.199 119.014 130.102 110.171 128.343C101.329 126.584 93.2068 122.243 86.8317 115.868C80.4567 109.493 76.1152 101.37 74.3564 92.5278C72.5975 83.6854 73.5002 74.5199 76.9504 66.1905C80.4005 57.8612 86.2431 50.7419 93.7394 45.7331C101.236 40.7242 110.049 38.0508 119.064 38.0508C131.154 38.0508 142.749 42.8534 151.297 51.402C159.846 59.9507 164.648 71.5452 164.648 83.6348Z" fill="#F5F5F5"/>
<path d="M223.499 423.671C231.495 423.671 239.311 426.043 245.959 430.486C252.607 434.928 257.788 441.242 260.848 448.63C263.907 456.017 264.707 464.145 263.147 471.987C261.587 479.83 257.737 487.033 252.083 492.687C246.429 498.34 239.225 502.19 231.383 503.75C223.541 505.31 215.412 504.509 208.025 501.45C200.638 498.39 194.324 493.208 189.882 486.56C185.44 479.912 183.069 472.096 183.068 464.1C183.068 458.79 184.114 453.533 186.145 448.628C188.177 443.722 191.155 439.265 194.91 435.511C198.664 431.757 203.122 428.779 208.027 426.747C212.932 424.716 218.19 423.67 223.499 423.671Z" fill="#68544F"/>
<path d="M218.244 504.174C208.516 502.901 199.584 498.133 193.112 490.759C186.641 483.385 183.072 473.908 183.072 464.098C183.072 454.287 186.641 444.81 193.112 437.436C199.584 430.062 208.516 425.294 218.244 424.021C203.16 430.263 192.464 445.847 192.464 464.098C192.464 482.349 203.16 497.933 218.244 504.174Z" fill="#53433F"/>
<path d="M223.499 443.428C227.587 443.428 231.584 444.64 234.983 446.911C238.382 449.182 241.032 452.41 242.596 456.187C244.161 459.964 244.57 464.12 243.773 468.13C242.976 472.139 241.007 475.822 238.116 478.713C235.226 481.604 231.543 483.573 227.533 484.37C223.523 485.168 219.367 484.759 215.59 483.194C211.813 481.63 208.585 478.981 206.314 475.581C204.042 472.182 202.83 468.186 202.83 464.098C202.83 458.616 205.008 453.359 208.884 449.482C212.76 445.606 218.017 443.428 223.499 443.428Z" fill="#F5F5F5"/>
<path d="M424.858 423.671C432.854 423.671 440.67 426.042 447.318 430.484C453.967 434.926 459.148 441.24 462.208 448.628C465.268 456.015 466.069 464.143 464.509 471.986C462.949 479.828 459.099 487.031 453.445 492.685C447.791 498.339 440.588 502.19 432.745 503.75C424.903 505.31 416.775 504.51 409.387 501.45C402 498.39 395.686 493.208 391.244 486.56C386.801 479.912 384.43 472.096 384.43 464.1C384.43 458.791 385.475 453.534 387.507 448.628C389.538 443.723 392.516 439.267 396.27 435.512C400.025 431.758 404.481 428.78 409.386 426.748C414.291 424.717 419.549 423.671 424.858 423.671Z" fill="#68544F"/>
<path d="M419.607 504.174C409.877 502.903 400.943 498.135 394.47 490.761C387.997 483.387 384.428 473.91 384.428 464.098C384.428 454.285 387.997 444.808 394.47 437.434C400.943 430.06 409.877 425.292 419.607 424.021C404.523 430.263 393.827 445.847 393.827 464.098C393.827 482.349 404.522 497.933 419.607 504.174Z" fill="#53433F"/>
<path d="M424.858 443.428C428.946 443.428 432.942 444.64 436.341 446.911C439.74 449.183 442.39 452.411 443.954 456.188C445.519 459.965 445.928 464.121 445.13 468.13C444.333 472.14 442.364 475.823 439.473 478.714C436.583 481.604 432.9 483.573 428.89 484.371C424.88 485.168 420.724 484.759 416.947 483.194C413.171 481.63 409.942 478.981 407.671 475.581C405.4 472.182 404.188 468.186 404.188 464.098C404.188 458.616 406.366 453.358 410.242 449.482C414.118 445.606 419.376 443.428 424.858 443.428Z" fill="#F5F5F5"/>
<path d="M276.481 467.852C276.19 471.803 271.133 485.203 270.031 488.87C270.031 488.87 256.846 462.638 225.268 449.66C197.621 438.297 178.027 435.3 178.027 435.3C184.324 425.373 193.713 417.795 204.746 413.738C215.779 409.68 227.842 409.369 239.069 412.851L276.481 467.852Z" fill="#FFDF40"/>
<path d="M270.031 488.871C270.031 488.871 256.846 462.639 225.268 449.661C197.621 438.298 178.027 435.301 178.027 435.301C187.507 420.368 221.7 430.707 238.658 439.271C269.21 454.7 271.133 485.2 270.031 488.871Z" fill="#FFBE40"/>
<path d="M470.733 423.059C373.55 423.059 372.68 479.303 372.68 479.303H283.05C283.05 479.303 231.742 419.148 230 394.121C228.576 373.636 263.357 319.061 263.357 319.061L286.048 317.705C286.048 317.705 269.51 381.455 273.206 402.605C274.699 411.147 285.726 432.305 291.752 443.428C292.917 445.576 294.642 447.369 296.744 448.617C298.845 449.865 301.245 450.522 303.69 450.517H321.61C324.662 450.516 327.625 449.488 330.022 447.598C332.419 445.709 334.111 443.068 334.826 440.1L346.857 390.186L456.443 390.1C456.443 390.1 481.8 423.059 470.733 423.059Z" fill="#FFDF40"/>
<path d="M471.228 412.956C473.941 418.596 474.803 423.056 470.728 423.056C373.545 423.056 372.675 479.3 372.675 479.3H283.05C283.05 479.3 231.742 419.148 230 394.121C228.576 373.636 263.357 319.061 263.357 319.061L275.413 318.341L269.529 329.405C266.329 334.666 260.868 343.872 255.545 354.005C241.112 381.491 240.509 391.089 240.668 393.376C241.646 407.444 267.945 444.464 288.024 468.607H363.732C366.328 459.53 370.943 451.157 377.232 444.116C394.038 425.005 421.479 414.439 458.907 412.64C462.867 412.771 467.062 412.885 471.228 412.956Z" fill="#FFBE40"/>
<path d="M270.346 290.416C286.286 290.416 299.207 296.986 299.207 305.091C299.207 313.196 286.286 319.766 270.346 319.766C254.406 319.766 250.789 313.2 250.789 305.091C250.789 296.982 254.407 290.416 270.346 290.416Z" fill="#FFDF40"/>
<path d="M260.409 318.563C252.8 316.31 250.789 311.127 250.789 305.09C250.789 299.053 252.8 293.871 260.409 291.617C268.019 293.871 270.03 299.054 270.03 305.09C270.03 311.126 268.019 316.31 260.409 318.563Z" fill="#FFBE40"/>
<path d="M465.388 380.024C463.319 384.589 459.997 388.812 454.667 390.924L346.856 390.189L343.383 379.736C343.091 378.857 343.013 377.922 343.155 377.007C343.297 376.092 343.656 375.225 344.201 374.476C344.745 373.728 345.461 373.12 346.288 372.704C347.115 372.288 348.029 372.075 348.955 372.083C356.946 372.159 368.997 372.106 376.593 371.292C388.768 369.992 391.593 362.379 391.593 362.379H453.856C455.951 362.372 458.014 362.889 459.858 363.882C461.703 364.876 463.269 366.315 464.415 368.069C465.561 369.823 466.25 371.835 466.42 373.923C466.59 376.011 466.235 378.108 465.388 380.024Z" fill="#68544F"/>
<path d="M465.388 380.023C463.319 384.588 459.997 388.811 454.667 390.923L346.856 390.188L344.271 382.406L450.771 383.133C456.1 381.02 459.423 376.797 461.491 372.233C462.41 370.23 462.768 368.015 462.528 365.824C464.432 367.594 465.732 369.916 466.245 372.463C466.758 375.011 466.458 377.655 465.388 380.023Z" fill="#53433F"/>
<path d="M197.307 385.183H103.575C84.1144 385.183 67.6874 378.736 56.0684 366.539C45.7528 355.353 40.0254 340.695 40.0254 325.479C40.0254 310.263 45.7528 295.605 56.0684 284.42C67.6874 272.22 84.1144 265.776 103.575 265.776H401.119C425.295 265.776 436.305 247.716 436.305 230.936C436.305 214.156 425.299 196.1 401.119 196.1H216.426C214.835 196.1 213.309 195.467 212.184 194.342C211.059 193.217 210.426 191.691 210.426 190.1C210.426 188.508 211.059 186.982 212.184 185.857C213.309 184.732 214.835 184.1 216.426 184.1H401.119C432.097 184.1 448.305 207.664 448.305 230.94C448.305 254.216 432.097 277.78 401.119 277.78H103.575C68.1574 277.78 52.0254 302.508 52.0254 325.48C52.0254 348.452 68.1574 373.18 103.575 373.18H197.307C198.899 373.18 200.425 373.812 201.55 374.937C202.675 376.062 203.307 377.588 203.307 379.18C203.307 380.771 202.675 382.297 201.55 383.422C200.425 384.547 198.899 385.18 197.307 385.18V385.183Z" fill="#4DA6FF"/>
<path d="M269.421 143.762C268.967 142.666 268.848 141.46 269.079 140.296C269.311 139.132 269.882 138.063 270.721 137.224L284.699 123.245C285.254 122.681 285.916 122.232 286.646 121.924C287.376 121.616 288.159 121.456 288.951 121.453C289.743 121.45 290.528 121.604 291.261 121.905C291.993 122.207 292.658 122.65 293.218 123.21C293.779 123.771 294.222 124.436 294.524 125.168C294.825 125.901 294.979 126.686 294.976 127.478C294.973 128.27 294.813 129.053 294.505 129.783C294.197 130.513 293.748 131.175 293.184 131.73L289.448 135.466H344.726C346.317 135.466 347.843 136.098 348.968 137.224C350.094 138.349 350.726 139.875 350.726 141.466C350.726 143.057 350.094 144.584 348.968 145.709C347.843 146.834 346.317 147.466 344.726 147.466H289.45L293.826 151.842C294.951 152.967 295.583 154.494 295.583 156.085C295.583 157.676 294.951 159.202 293.825 160.328C292.7 161.453 291.174 162.085 289.582 162.085C287.991 162.085 286.465 161.452 285.34 160.327C285.34 160.327 270.657 145.627 270.624 145.586C270.114 145.057 269.706 144.439 269.421 143.762ZM189.431 352.136H134.153L138.529 356.512C139.654 357.637 140.287 359.164 140.287 360.755C140.287 362.346 139.655 363.873 138.53 364.998C137.405 366.124 135.878 366.756 134.287 366.756C132.696 366.756 131.169 366.124 130.044 364.999C130.044 364.999 115.361 350.299 115.328 350.257C114.241 349.131 113.642 347.621 113.661 346.056C113.679 344.49 114.314 342.995 115.428 341.895L129.406 327.916C129.963 327.359 130.624 326.917 131.352 326.615C132.08 326.314 132.86 326.159 133.648 326.159C134.436 326.158 135.217 326.314 135.945 326.615C136.673 326.917 137.334 327.359 137.891 327.916C138.448 328.473 138.89 329.134 139.192 329.862C139.494 330.59 139.649 331.37 139.649 332.158C139.649 332.946 139.494 333.727 139.192 334.454C138.891 335.182 138.449 335.844 137.892 336.401L134.156 340.137H189.433C191.024 340.137 192.55 340.769 193.675 341.895C194.801 343.02 195.433 344.546 195.433 346.137C195.433 347.728 194.801 349.255 193.675 350.38C192.55 351.505 191.024 352.137 189.433 352.137L189.431 352.136Z" fill="#E63A57"/>
<path d="M316.16 304.037C316.16 305.348 315.639 306.606 314.712 307.533C313.784 308.461 312.526 308.982 311.215 308.982H288.7C287.4 308.963 286.16 308.434 285.248 307.509C284.336 306.583 283.824 305.336 283.824 304.036C283.824 302.737 284.336 301.489 285.248 300.564C286.16 299.638 287.4 299.109 288.7 299.091H311.22C312.531 299.092 313.787 299.614 314.713 300.542C315.64 301.469 316.16 302.726 316.16 304.037Z" fill="#68544F"/>
</svg>
