<svg xmlns="http://www.w3.org/2000/svg" version="1.1" xmlns:xlink="http://www.w3.org/1999/xlink" width="512" height="512" x="0" y="0" viewBox="0 0 68 68" style="enable-background:new 0 0 512 512" xml:space="preserve"><g><path fill="#f73731" d="m34.754 28.586-4.889 7.457a4.214 4.214 0 0 1-6.024.93 4.698 4.698 0 0 1-.487-.43l-.124-.132-4.27-4.45 2.61-9.926h2.658c.974 0 1.836.643 2.11 1.585l1.486 6.024 3.901-4.032z" opacity="1" data-original="#f73731"></path><path fill="#222333" d="M23.229 53.865V42.239H12.574l1.983 11.626z" opacity="1" data-original="#222333"></path><path fill="#222333" d="m14.518 53.865 1.928-11.626H6.086v11.626z" opacity="1" data-original="#222333"></path><path fill="#fdbbad" d="M6.275 49.224a3.921 3.921 0 0 1-3.921-3.92v-.406h3.921z" opacity="1" data-original="#fdbbad"></path><path fill="#f73731" d="M6.085 22.035a3.584 3.584 0 0 0-3.583 3.53l-.12 8.013-.028 11.32h3.921l-.19-15.61z" opacity="1" data-original="#f73731"></path><path fill="#f73731" d="M23.229 23.084v19.8H6.085v-20.85H22.18c.582 0 1.049.468 1.049 1.05z" opacity="1" data-original="#f73731"></path><path fill="#f8c51a" d="m16.802 39.761-2.259 2.185-2.255-2.185 1.688-15.863h1.138z" opacity="1" data-original="#f8c51a"></path><path fill="#ef9b13" d="m14.545 41.946 1.614-2.644-1.614-15.404h.57l1.689 15.863z" opacity="1" data-original="#ef9b13"></path><path fill="#f8c51a" d="m16.786 23.197-2.21 2.21-2.21-2.21z" opacity="1" data-original="#f8c51a"></path><path fill="#fdbbad" d="M16.99 18.485v3.546l-2.442 1.166-2.445-1.166v-3.546z" opacity="1" data-original="#fdbbad"></path><path fill="#eca090" d="M16.99 18.485v2.54c-1.73.082-3.35-.332-4.887-1.16v-1.38z" opacity="1" data-original="#eca090"></path><path fill="#e2eaff" d="m18.429 22.034-1.914 2.582-1.967-1.42 2.443-2.128 1.402.961zM10.666 22.034l1.913 2.582 1.968-1.42-2.444-2.128-1.401.961z" opacity="1" data-original="#e2eaff"></path><ellipse cx="18.817" cy="14.843" fill="#fdbbad" rx="1.069" ry="1.247" opacity="1" data-original="#fdbbad"></ellipse><ellipse cx="10.338" cy="14.843" fill="#fdbbad" rx="1.069" ry="1.247" opacity="1" data-original="#fdbbad"></ellipse><path fill="#eca090" d="M9.88 15.485a.098.098 0 0 0 .066-.172.594.594 0 0 1-.217-.441c0-.162.077-.319.217-.442a.098.098 0 0 0-.13-.147.786.786 0 0 0-.283.589c0 .218.1.427.283.589a.099.099 0 0 0 .065.024z" opacity="1" data-original="#eca090"></path><path fill="#fdbbad" d="M18.961 13.484v2.295a4.415 4.415 0 0 1-8.829 0v-2.295a4.412 4.412 0 0 1 4.415-4.415c1.22 0 2.322.493 3.122 1.292.8.8 1.292 1.903 1.292 3.123z" opacity="1" data-original="#fdbbad"></path><path fill="#333333" d="M13.203 14.546c0 .307-.169.553-.378.553s-.381-.246-.381-.553c0-.306.172-.557.381-.557s.378.25.378.557zM16.649 14.546c0 .307-.169.553-.378.553s-.381-.246-.381-.553c0-.306.172-.557.381-.557s.378.25.378.557z" opacity="1" data-original="#333333"></path><path fill="#ffffff" d="M13.006 16.929c0 .022-.007.043-.007.066a1.547 1.547 0 1 0 3.095 0c0-.023-.006-.044-.007-.066z" opacity="1" data-original="#ffffff"></path><path fill="#eca090" d="M19.222 15.428a.098.098 0 0 1-.065-.172.594.594 0 0 0 .217-.442.594.594 0 0 0-.216-.442.098.098 0 0 1 .13-.147c.182.161.283.37.283.59 0 .217-.1.426-.283.588a.099.099 0 0 1-.066.025z" opacity="1" data-original="#eca090"></path><path fill="#0e0f16" d="M18.961 14.872h-.471l-.741-4.306 2.484-.068zM10.137 14.872h.472l.74-4.306-1.827-1.3s-.62.885-.656 1.232c-.117 1.133 1.271 4.374 1.271 4.374z" opacity="1" data-original="#0e0f16"></path><path fill="#222333" d="M20.246 10.643a.576.576 0 0 1-.325.54c-1.61.747-7.415 1.184-10.165-.397C7.1 9.26 8.22 7.252 8.22 7.252s1.775.455 3.08-.35 3.003-2.017 6.158-.318c2.468 1.33 2.772 3.275 2.787 4.06z" opacity="1" data-original="#222333"></path><path fill="#0e0f16" d="M15.146 53.865h-1.598l.799-5.764z" opacity="1" data-original="#0e0f16"></path><path fill="#c61f17" d="M23.535 30.5v6.155a4.698 4.698 0 0 1-.18-.175l-.125-.13V30.5z" opacity="1" data-original="#c61f17"></path><path fill="#fdbbad" d="m36.014 23.858-1.46 1.755.91.736c.531.43.531 1.242-.006 1.673l-.705.562-3.028-2.971.15-1.018a.591.591 0 0 1 .587-.505c.325 0 .587.262.587.586v.456l1.872-2.197a.72.72 0 0 1 1.13.056.71.71 0 0 1 .125.412c0 .162-.05.324-.162.455z" opacity="1" data-original="#fdbbad"></path><path fill="#c61f17" d="m6.085 27.32-.454 17.578h.644z" opacity="1" data-original="#c61f17"></path><path fill="#e2eaff" d="M21.502 27.9v2.74c0 .21-.17.38-.372.38h-3.682a.373.373 0 0 1-.372-.38V27.9c0-.21.163-.373.372-.373h3.682c.202 0 .372.163.372.372z" opacity="1" data-original="#e2eaff"></path><path fill="#222333" d="M19.593 27.237v.868a.303.303 0 1 1-.607 0v-.868a.303.303 0 1 1 .607 0z" opacity="1" data-original="#222333"></path><path fill="#e8ebf2" d="M2 45.609h41.323v16.512H2z" opacity="1" data-original="#e8ebf2"></path><path fill="#ccd2e0" d="M4.183 56.938v-6.146a3 3 0 0 0 3-3H38.14a3 3 0 0 0 3 3v6.146a3 3 0 0 0-3 3H7.183a3 3 0 0 0-3-3z" opacity="1" data-original="#ccd2e0"></path><path fill="#7d9ce360" d="M2 40.822h41.323v4.787H2z" opacity="1" data-original="#7d9ce360"></path><path fill="#0e0f16" d="m49.739 62.274-.001-19.283h10.794l-3.398 19.283z" opacity="1" data-original="#0e0f16"></path><path fill="#1baa75" d="m53.291 29.323-4.303 1.913-.354.13-.041.016a3.226 3.226 0 0 1-3.677-1.089l-5.78-7.68 3.256-3.111 4.762 4.721c1.965-1.809 3.329-3.226 4.576-3.369z" opacity="1" data-original="#1baa75"></path><path fill="#0e0f16" d="M51.527 11.505c-.015.044-1.954 5.96-1.309 7.84.39 1.136 3.075 2.837 4.348 2.049 1.274-.789 1.42-7.795 1.42-7.795l-.896-1.294z" opacity="1" data-original="#0e0f16"></path><path fill="#222333" d="M65.73 62.274V42.99H54.197l3.63 19.283z" opacity="1" data-original="#222333"></path><path fill="#fdbbad" d="M55.149 15.273h4.359v5.293h-4.359z" opacity="1" data-original="#fdbbad"></path><path fill="#eca090" d="M55.148 14.374v4.064s1.928.997 4.36.623v-4.687z" opacity="1" data-original="#eca090"></path><path fill="#fdbbad" d="M51.88 12.356v2.624a3.811 3.811 0 0 0 3.813 3.813 3.814 3.814 0 0 0 3.813-3.813v-2.624a3.814 3.814 0 0 0-6.513-2.694 3.813 3.813 0 0 0-1.113 2.694z" opacity="1" data-original="#fdbbad"></path><ellipse cx="55.876" cy="13.645" fill="#0e0f16" rx=".356" ry=".497" opacity="1" data-original="#0e0f16"></ellipse><ellipse cx="53.344" cy="13.645" fill="#0e0f16" rx=".356" ry=".497" opacity="1" data-original="#0e0f16"></ellipse><path fill="#ffffff" d="M55.932 15.77c0 .018.005.035.005.054a1.26 1.26 0 1 1-2.518 0c0-.019.005-.036.005-.054z" opacity="1" data-original="#ffffff"></path><path fill="#1baa75" d="M65.888 25.816v21.179H50.6c-.021 0-.05 0-.078-.007-.014.007-.043.007-.064.007h-.901V24.666c0-1.944 0-3.782 3.57-4.052.142-.014.51-.029.93-.029.319-.007.68-.007.993 0l-.007.007 5.614-.007a5.231 5.231 0 0 1 5.23 5.231z" opacity="1" data-original="#1baa75"></path><path fill="#0f875a" d="M65.888 29.337v17.658h-1.129a22.931 22.931 0 0 0-3.868-3.549c-.638-.468-1.32-.908-2.093-1.064-.426-.093-.83-.057-1.25.035-.305.071-.603.22-.915.1-.71-.277-.56-1.392-.412-1.967.185-.716.568-1.37.958-2.001a58.351 58.351 0 0 1 6.005-8.056c.461-.518.965-1.05 1.64-1.213.347-.085.716-.05 1.064.057z" opacity="1" data-original="#0f875a"></path><path fill="#1baa75" d="M61.404 20.593c2.565 0 4.634 2.1 4.595 4.665l-.65 7.316a5.193 5.193 0 0 1-1.554 3.266l-7.172 6.967-2.295-3.331 5.33-7.039z" opacity="1" data-original="#1baa75"></path><path fill="#0f875a" d="m54.47 39.583-.283-.215 5.302-7.002.803-5.45.352.05-.844 5.578z" opacity="1" data-original="#0f875a"></path><path fill="#fdbbad" d="m56.626 42.807-2.271 2.104a1.61 1.61 0 0 1-2.36-2.173l1.295-1.655h-.818a.63.63 0 0 1-.111-1.25l1.965-.354zM55.15 20.566l.302 3.162 4.054-3.162z" opacity="1" data-original="#fdbbad"></path><path fill="#0f875a" d="M49.563 25.37v5.317l-.354.13V25.37z" opacity="1" data-original="#0f875a"></path><path fill="#0e0f16" d="M60.14 21.686c-.409-.138-.702-.494-.702-.925l.004-7.697c-.87-.425-1.226-.734-1.217-1.2-1.97.844-7.165-.068-7.59-.59-.747-.907.895-3.553 3.772-4.847 2.112-.96 3.67.328 3.67.328 4.159-1.126 4.056 4.223 4.075 4.59.064 1.224 2.983 6.811 3.232 9.238" opacity="1" data-original="#0e0f16"></path><path fill="#fdbbad" d="M59.438 13.057a1.168 1.168 0 0 1 0 2.335zM41.004 18.42l-1.868 4.193-3.866-3.272 2.046-3.322z" opacity="1" data-original="#fdbbad"></path><path fill="#f8c51a" d="m40.53 11.406 3.8 3.911c.185.192.18.5-.011.686l-6.303 6.123a.485.485 0 0 1-.685-.01l-3.8-3.91a.485.485 0 0 1 .01-.686l6.303-6.124a.485.485 0 0 1 .685.01z" opacity="1" data-original="#f8c51a"></path><path fill="#ffffff" d="m40.362 12.342.917.943a.17.17 0 0 1-.004.239l-2.49 2.42a.12.12 0 0 1-.169-.003l-.993-1.022c-.041-.042-.04-.112.01-.16l2.491-2.42a.17.17 0 0 1 .238.003z" opacity="1" data-original="#ffffff"></path><path fill="#bdc8ff" d="M39.992 13.29a.105.105 0 0 1-.003.146l-1.405 1.366c-.046.044-.113.043-.152.003a.109.109 0 0 1 .002-.157l1.406-1.365c.04-.04.107-.038.152.007zM39.815 14.13a.105.105 0 0 1-.002.146l-.895.87c-.046.044-.113.043-.152.003a.109.109 0 0 1 .002-.157l.896-.87c.04-.039.107-.038.151.008z" opacity="1" data-original="#bdc8ff"></path><path fill="#ffffff" d="m37.641 19.194.119.122a.124.124 0 0 1-.003.175l-.851.827a.124.124 0 0 1-.175-.002l-.119-.122a.12.12 0 0 1 .003-.175l.851-.827a.12.12 0 0 1 .175.002zM40.832 16.094l.12.122a.124.124 0 0 1-.003.175l-.852.827a.124.124 0 0 1-.175-.002l-.118-.123a.12.12 0 0 1 .002-.174l.852-.828a.12.12 0 0 1 .174.003zM39.239 17.642l.119.122c.045.047.043.13-.007.179l-.852.827a.128.128 0 0 1-.174-.002l-.12-.123a.124.124 0 0 1 .003-.174l.852-.827c.05-.05.13-.053.179-.002zM41.542 16.893a.224.224 0 0 1-.005.322l-3.861 3.751a.23.23 0 0 1-.322-.004.23.23 0 0 1 .005-.322l3.86-3.751a.224.224 0 0 1 .323.004zM35.936 17.11l.234-.227.458.472-.234.227zM35.78 16.942l.116.12.234-.227-.117-.12a.262.262 0 0 0-.37-.006l-.121.119c.077-.011.176.03.258.114z" opacity="1" data-original="#ffffff"></path><path fill="#ffffff" d="m36.508 17.773-.768-.792c-.076-.078-.173-.115-.231-.093a.074.074 0 0 0-.026.016l-.562.546c-.024.022-.03.06-.02.106a.335.335 0 0 0 .088.152l.769.793c.09.092.205.127.257.077l.562-.546c.023-.022.03-.06.02-.106a.333.333 0 0 0-.089-.153z" opacity="1" data-original="#ffffff"></path><path fill="#ffffff" d="m36.432 17.614.116.12a.389.389 0 0 1 .103.18c.007.03.008.057.003.082l.122-.118a.262.262 0 0 0 .006-.37l-.116-.12zM35.065 17.867l-.116-.12a.391.391 0 0 1-.103-.178.21.21 0 0 1-.003-.083l-.122.118a.262.262 0 0 0-.006.37l.117.12zM35.718 18.54l-.117-.12-.233.227.116.12c.1.103.266.106.37.005l.121-.118c-.077.01-.176-.03-.257-.114zM34.872 18.142l.233-.226.457.471-.233.226z" opacity="1" data-original="#ffffff"></path><path fill="#fdbbad" d="m40.314 19.894-.255-2.539a.744.744 0 0 1 1.455-.281l.878 2.428-3.256 3.11" opacity="1" data-original="#fdbbad"></path></g></svg>