<svg xmlns="http://www.w3.org/2000/svg" version="1.1" xmlns:xlink="http://www.w3.org/1999/xlink"
    width="512" height="512" x="0" y="0" viewBox="0 0 512 512"
    style="enable-background:new 0 0 512 512" xml:space="preserve"><g><path fill="#feb4a9" d="M322.03 488.13H183.49l9.84-85.66 9.86-86h112.74l1.86 52.39z" opacity="1" data-original="#feb4a9"></path><path fill="#f47d71" d="M317.79 368.86c-26.09 23.85-59.48 38.52-94.13 38.52a92.78 92.78 0 0 1-30.33-4.91l9.86-86h112.74z" opacity="1" data-original="#f47d71"></path><path fill="#feb4a9" d="M369.84 216.27c0 83.09-70 154-146.18 154-70.26 0-108.25-70.95-108.25-154s57-143.21 127.22-143.21 127.21 60.12 127.21 143.21z" opacity="1" data-original="#feb4a9"></path><ellipse cx="177.36" cy="207.46" fill="#352120" rx="11.46" ry="17.42" opacity="1" data-original="#352120"></ellipse><ellipse cx="274.87" cy="207.46" fill="#352120" rx="11.46" ry="17.42" opacity="1" data-original="#352120"></ellipse><path fill="#352120" d="M275.46 100.47s-7.08 111.32 57.91 111.36 55.85-16 55.85-16 36.9-100.8-12.87-146.51-101.12-30-101.12-30-77.13-46.15-137.57 4.13-99 109.19-82.78 151.85 46.73 33.51 46.73 33.51-26.92-23.36-16.76-47.23-7.94 31.49 30.56 42.16S195.39 3.81 275.46 100.47z" opacity="1" data-original="#352120"></path><g fill="none" stroke-linecap="round" stroke-linejoin="round" stroke-width="6.64"><path stroke="#352120" d="M144.08 174c17.88-8.33 33.72-7 47.26 5.08M254.2 174c17.87-8.33 33.72-7 47.26 5.08" fill="" opacity="1"></path><path stroke="#f44945" d="M194.21 301.58s32.34 4.74 70.47-12.86" fill="" opacity="1"></path></g><path fill="#feb4a9" d="M402.38 219.61c0 23.82-18.73 45.21-38.87 45.21s-34.07-21.39-34.07-45.21 16.33-41.06 36.47-41.06 36.47 17.24 36.47 41.06z" opacity="1" data-original="#feb4a9"></path><path fill="#352120" d="M319 402.64c-1.74 47-27.44 73.05-78.73 73.05-36.7-1.28-54.59-8.63-46.93-73.22l-86.64 24.36A88.44 88.44 0 0 0 42.2 512h427.6a88.44 88.44 0 0 0-64.54-85.15z" opacity="1" data-original="#352120"></path></g></svg>