<svg xmlns="http://www.w3.org/2000/svg" version="1.1" xmlns:xlink="http://www.w3.org/1999/xlink"
    width="512" height="512" x="0" y="0" viewBox="0 0 60 60"
    style="enable-background:new 0 0 512 512" xml:space="preserve"><g><path fill="#7a4b44" d="M33 42h4a6 6 0 0 1 6 6 1 1 0 0 1-1 1H18a1 1 0 0 1-1-1 6 6 0 0 1 6-6z" opacity="1" data-original="#7a4b44"></path><path fill="#a1695c" d="M33 24v18a3 3 0 0 1-3 3 3 3 0 0 1-3-3V24z" opacity="1" data-original="#a1695c"></path><path fill="#cd885d" d="M59 16v4c0 2.761-12.984 5-29 5S1 22.761 1 20v-4z" opacity="1" data-original="#cd885d"></path><ellipse cx="30" cy="16" fill="#e5ad74" rx="29" ry="5" opacity="1" data-original="#e5ad74"></ellipse></g></svg>